G04 #@! TF.GenerationSoftware,KiCad,Pcbnew,(5.1.12)-1*
G04 #@! TF.CreationDate,2023-03-25T16:08:14+00:00*
G04 #@! TF.ProjectId,Decoder,4465636f-6465-4722-9e6b-696361645f70,1*
G04 #@! TF.SameCoordinates,Original*
G04 #@! TF.FileFunction,Soldermask,Bot*
G04 #@! TF.FilePolarity,Negative*
%FSLAX46Y46*%
G04 Gerber Fmt 4.6, Leading zero omitted, Abs format (unit mm)*
G04 Created by KiCad (PCBNEW (5.1.12)-1) date 2023-03-25 16:08:14*
%MOMM*%
%LPD*%
G01*
G04 APERTURE LIST*
%ADD10C,3.200000*%
%ADD11R,0.900000X0.800000*%
%ADD12R,0.800000X0.900000*%
%ADD13O,1.700000X1.700000*%
%ADD14R,1.700000X1.700000*%
%ADD15R,1.300000X1.550000*%
%ADD16C,2.100000*%
%ADD17C,1.750000*%
%ADD18R,2.800000X1.500000*%
%ADD19R,1.500000X2.800000*%
%ADD20C,4.000000*%
%ADD21C,1.600000*%
%ADD22R,1.600000X1.600000*%
%ADD23R,2.000000X0.350000*%
%ADD24R,1.000000X2.000000*%
%ADD25R,9.000000X2.000000*%
%ADD26O,1.500000X1.500000*%
%ADD27R,1.500000X1.500000*%
%ADD28C,1.500000*%
%ADD29O,1.200000X1.200000*%
%ADD30O,1.600000X1.200000*%
%ADD31O,2.000000X2.000000*%
%ADD32C,2.000000*%
%ADD33O,1.600000X1.600000*%
G04 APERTURE END LIST*
D10*
G04 #@! TO.C,H906*
X260985000Y-44323000D03*
G04 #@! TD*
G04 #@! TO.C,H905*
X247015000Y-44323000D03*
G04 #@! TD*
G04 #@! TO.C,R902*
G36*
G01*
X223390000Y-22028999D02*
X223390000Y-22929001D01*
G75*
G02*
X223140001Y-23179000I-249999J0D01*
G01*
X222439999Y-23179000D01*
G75*
G02*
X222190000Y-22929001I0J249999D01*
G01*
X222190000Y-22028999D01*
G75*
G02*
X222439999Y-21779000I249999J0D01*
G01*
X223140001Y-21779000D01*
G75*
G02*
X223390000Y-22028999I0J-249999D01*
G01*
G37*
G36*
G01*
X225390000Y-22028999D02*
X225390000Y-22929001D01*
G75*
G02*
X225140001Y-23179000I-249999J0D01*
G01*
X224439999Y-23179000D01*
G75*
G02*
X224190000Y-22929001I0J249999D01*
G01*
X224190000Y-22028999D01*
G75*
G02*
X224439999Y-21779000I249999J0D01*
G01*
X225140001Y-21779000D01*
G75*
G02*
X225390000Y-22028999I0J-249999D01*
G01*
G37*
G04 #@! TD*
G04 #@! TO.C,H904*
X30480000Y-156210000D03*
G04 #@! TD*
G04 #@! TO.C,H903*
X269240000Y-156210000D03*
G04 #@! TD*
G04 #@! TO.C,H902*
X281305000Y-18415000D03*
G04 #@! TD*
G04 #@! TO.C,H901*
X31115000Y-18415000D03*
G04 #@! TD*
D11*
G04 #@! TO.C,Q905*
X129143000Y-43942000D03*
X127143000Y-42992000D03*
X127143000Y-44892000D03*
G04 #@! TD*
G04 #@! TO.C,Q904*
X156448000Y-68326000D03*
X154448000Y-67376000D03*
X154448000Y-69276000D03*
G04 #@! TD*
G04 #@! TO.C,Q903*
X131429000Y-51562000D03*
X129429000Y-50612000D03*
X129429000Y-52512000D03*
G04 #@! TD*
D12*
G04 #@! TO.C,Q902*
X185100000Y-44434000D03*
X186050000Y-42434000D03*
X184150000Y-42434000D03*
G04 #@! TD*
D11*
G04 #@! TO.C,Q901*
X231632000Y-41275000D03*
X229632000Y-40325000D03*
X229632000Y-42225000D03*
G04 #@! TD*
G04 #@! TO.C,U982*
G36*
G01*
X234662000Y-32997000D02*
X234662000Y-32797000D01*
G75*
G02*
X234762000Y-32697000I100000J0D01*
G01*
X236037000Y-32697000D01*
G75*
G02*
X236137000Y-32797000I0J-100000D01*
G01*
X236137000Y-32997000D01*
G75*
G02*
X236037000Y-33097000I-100000J0D01*
G01*
X234762000Y-33097000D01*
G75*
G02*
X234662000Y-32997000I0J100000D01*
G01*
G37*
G36*
G01*
X234662000Y-32347000D02*
X234662000Y-32147000D01*
G75*
G02*
X234762000Y-32047000I100000J0D01*
G01*
X236037000Y-32047000D01*
G75*
G02*
X236137000Y-32147000I0J-100000D01*
G01*
X236137000Y-32347000D01*
G75*
G02*
X236037000Y-32447000I-100000J0D01*
G01*
X234762000Y-32447000D01*
G75*
G02*
X234662000Y-32347000I0J100000D01*
G01*
G37*
G36*
G01*
X234662000Y-31697000D02*
X234662000Y-31497000D01*
G75*
G02*
X234762000Y-31397000I100000J0D01*
G01*
X236037000Y-31397000D01*
G75*
G02*
X236137000Y-31497000I0J-100000D01*
G01*
X236137000Y-31697000D01*
G75*
G02*
X236037000Y-31797000I-100000J0D01*
G01*
X234762000Y-31797000D01*
G75*
G02*
X234662000Y-31697000I0J100000D01*
G01*
G37*
G36*
G01*
X234662000Y-31047000D02*
X234662000Y-30847000D01*
G75*
G02*
X234762000Y-30747000I100000J0D01*
G01*
X236037000Y-30747000D01*
G75*
G02*
X236137000Y-30847000I0J-100000D01*
G01*
X236137000Y-31047000D01*
G75*
G02*
X236037000Y-31147000I-100000J0D01*
G01*
X234762000Y-31147000D01*
G75*
G02*
X234662000Y-31047000I0J100000D01*
G01*
G37*
G36*
G01*
X234662000Y-30397000D02*
X234662000Y-30197000D01*
G75*
G02*
X234762000Y-30097000I100000J0D01*
G01*
X236037000Y-30097000D01*
G75*
G02*
X236137000Y-30197000I0J-100000D01*
G01*
X236137000Y-30397000D01*
G75*
G02*
X236037000Y-30497000I-100000J0D01*
G01*
X234762000Y-30497000D01*
G75*
G02*
X234662000Y-30397000I0J100000D01*
G01*
G37*
G36*
G01*
X234662000Y-29747000D02*
X234662000Y-29547000D01*
G75*
G02*
X234762000Y-29447000I100000J0D01*
G01*
X236037000Y-29447000D01*
G75*
G02*
X236137000Y-29547000I0J-100000D01*
G01*
X236137000Y-29747000D01*
G75*
G02*
X236037000Y-29847000I-100000J0D01*
G01*
X234762000Y-29847000D01*
G75*
G02*
X234662000Y-29747000I0J100000D01*
G01*
G37*
G36*
G01*
X234662000Y-29097000D02*
X234662000Y-28897000D01*
G75*
G02*
X234762000Y-28797000I100000J0D01*
G01*
X236037000Y-28797000D01*
G75*
G02*
X236137000Y-28897000I0J-100000D01*
G01*
X236137000Y-29097000D01*
G75*
G02*
X236037000Y-29197000I-100000J0D01*
G01*
X234762000Y-29197000D01*
G75*
G02*
X234662000Y-29097000I0J100000D01*
G01*
G37*
G36*
G01*
X234662000Y-28447000D02*
X234662000Y-28247000D01*
G75*
G02*
X234762000Y-28147000I100000J0D01*
G01*
X236037000Y-28147000D01*
G75*
G02*
X236137000Y-28247000I0J-100000D01*
G01*
X236137000Y-28447000D01*
G75*
G02*
X236037000Y-28547000I-100000J0D01*
G01*
X234762000Y-28547000D01*
G75*
G02*
X234662000Y-28447000I0J100000D01*
G01*
G37*
G36*
G01*
X234662000Y-27797000D02*
X234662000Y-27597000D01*
G75*
G02*
X234762000Y-27497000I100000J0D01*
G01*
X236037000Y-27497000D01*
G75*
G02*
X236137000Y-27597000I0J-100000D01*
G01*
X236137000Y-27797000D01*
G75*
G02*
X236037000Y-27897000I-100000J0D01*
G01*
X234762000Y-27897000D01*
G75*
G02*
X234662000Y-27797000I0J100000D01*
G01*
G37*
G36*
G01*
X234662000Y-27147000D02*
X234662000Y-26947000D01*
G75*
G02*
X234762000Y-26847000I100000J0D01*
G01*
X236037000Y-26847000D01*
G75*
G02*
X236137000Y-26947000I0J-100000D01*
G01*
X236137000Y-27147000D01*
G75*
G02*
X236037000Y-27247000I-100000J0D01*
G01*
X234762000Y-27247000D01*
G75*
G02*
X234662000Y-27147000I0J100000D01*
G01*
G37*
G36*
G01*
X228937000Y-27147000D02*
X228937000Y-26947000D01*
G75*
G02*
X229037000Y-26847000I100000J0D01*
G01*
X230312000Y-26847000D01*
G75*
G02*
X230412000Y-26947000I0J-100000D01*
G01*
X230412000Y-27147000D01*
G75*
G02*
X230312000Y-27247000I-100000J0D01*
G01*
X229037000Y-27247000D01*
G75*
G02*
X228937000Y-27147000I0J100000D01*
G01*
G37*
G36*
G01*
X228937000Y-27797000D02*
X228937000Y-27597000D01*
G75*
G02*
X229037000Y-27497000I100000J0D01*
G01*
X230312000Y-27497000D01*
G75*
G02*
X230412000Y-27597000I0J-100000D01*
G01*
X230412000Y-27797000D01*
G75*
G02*
X230312000Y-27897000I-100000J0D01*
G01*
X229037000Y-27897000D01*
G75*
G02*
X228937000Y-27797000I0J100000D01*
G01*
G37*
G36*
G01*
X228937000Y-28447000D02*
X228937000Y-28247000D01*
G75*
G02*
X229037000Y-28147000I100000J0D01*
G01*
X230312000Y-28147000D01*
G75*
G02*
X230412000Y-28247000I0J-100000D01*
G01*
X230412000Y-28447000D01*
G75*
G02*
X230312000Y-28547000I-100000J0D01*
G01*
X229037000Y-28547000D01*
G75*
G02*
X228937000Y-28447000I0J100000D01*
G01*
G37*
G36*
G01*
X228937000Y-29097000D02*
X228937000Y-28897000D01*
G75*
G02*
X229037000Y-28797000I100000J0D01*
G01*
X230312000Y-28797000D01*
G75*
G02*
X230412000Y-28897000I0J-100000D01*
G01*
X230412000Y-29097000D01*
G75*
G02*
X230312000Y-29197000I-100000J0D01*
G01*
X229037000Y-29197000D01*
G75*
G02*
X228937000Y-29097000I0J100000D01*
G01*
G37*
G36*
G01*
X228937000Y-29747000D02*
X228937000Y-29547000D01*
G75*
G02*
X229037000Y-29447000I100000J0D01*
G01*
X230312000Y-29447000D01*
G75*
G02*
X230412000Y-29547000I0J-100000D01*
G01*
X230412000Y-29747000D01*
G75*
G02*
X230312000Y-29847000I-100000J0D01*
G01*
X229037000Y-29847000D01*
G75*
G02*
X228937000Y-29747000I0J100000D01*
G01*
G37*
G36*
G01*
X228937000Y-30397000D02*
X228937000Y-30197000D01*
G75*
G02*
X229037000Y-30097000I100000J0D01*
G01*
X230312000Y-30097000D01*
G75*
G02*
X230412000Y-30197000I0J-100000D01*
G01*
X230412000Y-30397000D01*
G75*
G02*
X230312000Y-30497000I-100000J0D01*
G01*
X229037000Y-30497000D01*
G75*
G02*
X228937000Y-30397000I0J100000D01*
G01*
G37*
G36*
G01*
X228937000Y-31047000D02*
X228937000Y-30847000D01*
G75*
G02*
X229037000Y-30747000I100000J0D01*
G01*
X230312000Y-30747000D01*
G75*
G02*
X230412000Y-30847000I0J-100000D01*
G01*
X230412000Y-31047000D01*
G75*
G02*
X230312000Y-31147000I-100000J0D01*
G01*
X229037000Y-31147000D01*
G75*
G02*
X228937000Y-31047000I0J100000D01*
G01*
G37*
G36*
G01*
X228937000Y-31697000D02*
X228937000Y-31497000D01*
G75*
G02*
X229037000Y-31397000I100000J0D01*
G01*
X230312000Y-31397000D01*
G75*
G02*
X230412000Y-31497000I0J-100000D01*
G01*
X230412000Y-31697000D01*
G75*
G02*
X230312000Y-31797000I-100000J0D01*
G01*
X229037000Y-31797000D01*
G75*
G02*
X228937000Y-31697000I0J100000D01*
G01*
G37*
G36*
G01*
X228937000Y-32347000D02*
X228937000Y-32147000D01*
G75*
G02*
X229037000Y-32047000I100000J0D01*
G01*
X230312000Y-32047000D01*
G75*
G02*
X230412000Y-32147000I0J-100000D01*
G01*
X230412000Y-32347000D01*
G75*
G02*
X230312000Y-32447000I-100000J0D01*
G01*
X229037000Y-32447000D01*
G75*
G02*
X228937000Y-32347000I0J100000D01*
G01*
G37*
G36*
G01*
X228937000Y-32997000D02*
X228937000Y-32797000D01*
G75*
G02*
X229037000Y-32697000I100000J0D01*
G01*
X230312000Y-32697000D01*
G75*
G02*
X230412000Y-32797000I0J-100000D01*
G01*
X230412000Y-32997000D01*
G75*
G02*
X230312000Y-33097000I-100000J0D01*
G01*
X229037000Y-33097000D01*
G75*
G02*
X228937000Y-32997000I0J100000D01*
G01*
G37*
G04 #@! TD*
D13*
G04 #@! TO.C,JP901*
X236220000Y-45085000D03*
X236220000Y-47625000D03*
D14*
X236220000Y-50165000D03*
G04 #@! TD*
D15*
G04 #@! TO.C,SW981*
X234660000Y-62395000D03*
X230160000Y-62395000D03*
X230160000Y-54445000D03*
X234660000Y-54445000D03*
G04 #@! TD*
G04 #@! TO.C,U902*
G36*
G01*
X102085000Y-22005000D02*
X101885000Y-22005000D01*
G75*
G02*
X101785000Y-21905000I0J100000D01*
G01*
X101785000Y-20630000D01*
G75*
G02*
X101885000Y-20530000I100000J0D01*
G01*
X102085000Y-20530000D01*
G75*
G02*
X102185000Y-20630000I0J-100000D01*
G01*
X102185000Y-21905000D01*
G75*
G02*
X102085000Y-22005000I-100000J0D01*
G01*
G37*
G36*
G01*
X101435000Y-22005000D02*
X101235000Y-22005000D01*
G75*
G02*
X101135000Y-21905000I0J100000D01*
G01*
X101135000Y-20630000D01*
G75*
G02*
X101235000Y-20530000I100000J0D01*
G01*
X101435000Y-20530000D01*
G75*
G02*
X101535000Y-20630000I0J-100000D01*
G01*
X101535000Y-21905000D01*
G75*
G02*
X101435000Y-22005000I-100000J0D01*
G01*
G37*
G36*
G01*
X100785000Y-22005000D02*
X100585000Y-22005000D01*
G75*
G02*
X100485000Y-21905000I0J100000D01*
G01*
X100485000Y-20630000D01*
G75*
G02*
X100585000Y-20530000I100000J0D01*
G01*
X100785000Y-20530000D01*
G75*
G02*
X100885000Y-20630000I0J-100000D01*
G01*
X100885000Y-21905000D01*
G75*
G02*
X100785000Y-22005000I-100000J0D01*
G01*
G37*
G36*
G01*
X100135000Y-22005000D02*
X99935000Y-22005000D01*
G75*
G02*
X99835000Y-21905000I0J100000D01*
G01*
X99835000Y-20630000D01*
G75*
G02*
X99935000Y-20530000I100000J0D01*
G01*
X100135000Y-20530000D01*
G75*
G02*
X100235000Y-20630000I0J-100000D01*
G01*
X100235000Y-21905000D01*
G75*
G02*
X100135000Y-22005000I-100000J0D01*
G01*
G37*
G36*
G01*
X99485000Y-22005000D02*
X99285000Y-22005000D01*
G75*
G02*
X99185000Y-21905000I0J100000D01*
G01*
X99185000Y-20630000D01*
G75*
G02*
X99285000Y-20530000I100000J0D01*
G01*
X99485000Y-20530000D01*
G75*
G02*
X99585000Y-20630000I0J-100000D01*
G01*
X99585000Y-21905000D01*
G75*
G02*
X99485000Y-22005000I-100000J0D01*
G01*
G37*
G36*
G01*
X98835000Y-22005000D02*
X98635000Y-22005000D01*
G75*
G02*
X98535000Y-21905000I0J100000D01*
G01*
X98535000Y-20630000D01*
G75*
G02*
X98635000Y-20530000I100000J0D01*
G01*
X98835000Y-20530000D01*
G75*
G02*
X98935000Y-20630000I0J-100000D01*
G01*
X98935000Y-21905000D01*
G75*
G02*
X98835000Y-22005000I-100000J0D01*
G01*
G37*
G36*
G01*
X98185000Y-22005000D02*
X97985000Y-22005000D01*
G75*
G02*
X97885000Y-21905000I0J100000D01*
G01*
X97885000Y-20630000D01*
G75*
G02*
X97985000Y-20530000I100000J0D01*
G01*
X98185000Y-20530000D01*
G75*
G02*
X98285000Y-20630000I0J-100000D01*
G01*
X98285000Y-21905000D01*
G75*
G02*
X98185000Y-22005000I-100000J0D01*
G01*
G37*
G36*
G01*
X97535000Y-22005000D02*
X97335000Y-22005000D01*
G75*
G02*
X97235000Y-21905000I0J100000D01*
G01*
X97235000Y-20630000D01*
G75*
G02*
X97335000Y-20530000I100000J0D01*
G01*
X97535000Y-20530000D01*
G75*
G02*
X97635000Y-20630000I0J-100000D01*
G01*
X97635000Y-21905000D01*
G75*
G02*
X97535000Y-22005000I-100000J0D01*
G01*
G37*
G36*
G01*
X96885000Y-22005000D02*
X96685000Y-22005000D01*
G75*
G02*
X96585000Y-21905000I0J100000D01*
G01*
X96585000Y-20630000D01*
G75*
G02*
X96685000Y-20530000I100000J0D01*
G01*
X96885000Y-20530000D01*
G75*
G02*
X96985000Y-20630000I0J-100000D01*
G01*
X96985000Y-21905000D01*
G75*
G02*
X96885000Y-22005000I-100000J0D01*
G01*
G37*
G36*
G01*
X96235000Y-22005000D02*
X96035000Y-22005000D01*
G75*
G02*
X95935000Y-21905000I0J100000D01*
G01*
X95935000Y-20630000D01*
G75*
G02*
X96035000Y-20530000I100000J0D01*
G01*
X96235000Y-20530000D01*
G75*
G02*
X96335000Y-20630000I0J-100000D01*
G01*
X96335000Y-21905000D01*
G75*
G02*
X96235000Y-22005000I-100000J0D01*
G01*
G37*
G36*
G01*
X96235000Y-27730000D02*
X96035000Y-27730000D01*
G75*
G02*
X95935000Y-27630000I0J100000D01*
G01*
X95935000Y-26355000D01*
G75*
G02*
X96035000Y-26255000I100000J0D01*
G01*
X96235000Y-26255000D01*
G75*
G02*
X96335000Y-26355000I0J-100000D01*
G01*
X96335000Y-27630000D01*
G75*
G02*
X96235000Y-27730000I-100000J0D01*
G01*
G37*
G36*
G01*
X96885000Y-27730000D02*
X96685000Y-27730000D01*
G75*
G02*
X96585000Y-27630000I0J100000D01*
G01*
X96585000Y-26355000D01*
G75*
G02*
X96685000Y-26255000I100000J0D01*
G01*
X96885000Y-26255000D01*
G75*
G02*
X96985000Y-26355000I0J-100000D01*
G01*
X96985000Y-27630000D01*
G75*
G02*
X96885000Y-27730000I-100000J0D01*
G01*
G37*
G36*
G01*
X97535000Y-27730000D02*
X97335000Y-27730000D01*
G75*
G02*
X97235000Y-27630000I0J100000D01*
G01*
X97235000Y-26355000D01*
G75*
G02*
X97335000Y-26255000I100000J0D01*
G01*
X97535000Y-26255000D01*
G75*
G02*
X97635000Y-26355000I0J-100000D01*
G01*
X97635000Y-27630000D01*
G75*
G02*
X97535000Y-27730000I-100000J0D01*
G01*
G37*
G36*
G01*
X98185000Y-27730000D02*
X97985000Y-27730000D01*
G75*
G02*
X97885000Y-27630000I0J100000D01*
G01*
X97885000Y-26355000D01*
G75*
G02*
X97985000Y-26255000I100000J0D01*
G01*
X98185000Y-26255000D01*
G75*
G02*
X98285000Y-26355000I0J-100000D01*
G01*
X98285000Y-27630000D01*
G75*
G02*
X98185000Y-27730000I-100000J0D01*
G01*
G37*
G36*
G01*
X98835000Y-27730000D02*
X98635000Y-27730000D01*
G75*
G02*
X98535000Y-27630000I0J100000D01*
G01*
X98535000Y-26355000D01*
G75*
G02*
X98635000Y-26255000I100000J0D01*
G01*
X98835000Y-26255000D01*
G75*
G02*
X98935000Y-26355000I0J-100000D01*
G01*
X98935000Y-27630000D01*
G75*
G02*
X98835000Y-27730000I-100000J0D01*
G01*
G37*
G36*
G01*
X99485000Y-27730000D02*
X99285000Y-27730000D01*
G75*
G02*
X99185000Y-27630000I0J100000D01*
G01*
X99185000Y-26355000D01*
G75*
G02*
X99285000Y-26255000I100000J0D01*
G01*
X99485000Y-26255000D01*
G75*
G02*
X99585000Y-26355000I0J-100000D01*
G01*
X99585000Y-27630000D01*
G75*
G02*
X99485000Y-27730000I-100000J0D01*
G01*
G37*
G36*
G01*
X100135000Y-27730000D02*
X99935000Y-27730000D01*
G75*
G02*
X99835000Y-27630000I0J100000D01*
G01*
X99835000Y-26355000D01*
G75*
G02*
X99935000Y-26255000I100000J0D01*
G01*
X100135000Y-26255000D01*
G75*
G02*
X100235000Y-26355000I0J-100000D01*
G01*
X100235000Y-27630000D01*
G75*
G02*
X100135000Y-27730000I-100000J0D01*
G01*
G37*
G36*
G01*
X100785000Y-27730000D02*
X100585000Y-27730000D01*
G75*
G02*
X100485000Y-27630000I0J100000D01*
G01*
X100485000Y-26355000D01*
G75*
G02*
X100585000Y-26255000I100000J0D01*
G01*
X100785000Y-26255000D01*
G75*
G02*
X100885000Y-26355000I0J-100000D01*
G01*
X100885000Y-27630000D01*
G75*
G02*
X100785000Y-27730000I-100000J0D01*
G01*
G37*
G36*
G01*
X101435000Y-27730000D02*
X101235000Y-27730000D01*
G75*
G02*
X101135000Y-27630000I0J100000D01*
G01*
X101135000Y-26355000D01*
G75*
G02*
X101235000Y-26255000I100000J0D01*
G01*
X101435000Y-26255000D01*
G75*
G02*
X101535000Y-26355000I0J-100000D01*
G01*
X101535000Y-27630000D01*
G75*
G02*
X101435000Y-27730000I-100000J0D01*
G01*
G37*
G36*
G01*
X102085000Y-27730000D02*
X101885000Y-27730000D01*
G75*
G02*
X101785000Y-27630000I0J100000D01*
G01*
X101785000Y-26355000D01*
G75*
G02*
X101885000Y-26255000I100000J0D01*
G01*
X102085000Y-26255000D01*
G75*
G02*
X102185000Y-26355000I0J-100000D01*
G01*
X102185000Y-27630000D01*
G75*
G02*
X102085000Y-27730000I-100000J0D01*
G01*
G37*
G04 #@! TD*
G04 #@! TO.C,U901*
G36*
G01*
X197970000Y-22005000D02*
X197770000Y-22005000D01*
G75*
G02*
X197670000Y-21905000I0J100000D01*
G01*
X197670000Y-20630000D01*
G75*
G02*
X197770000Y-20530000I100000J0D01*
G01*
X197970000Y-20530000D01*
G75*
G02*
X198070000Y-20630000I0J-100000D01*
G01*
X198070000Y-21905000D01*
G75*
G02*
X197970000Y-22005000I-100000J0D01*
G01*
G37*
G36*
G01*
X197320000Y-22005000D02*
X197120000Y-22005000D01*
G75*
G02*
X197020000Y-21905000I0J100000D01*
G01*
X197020000Y-20630000D01*
G75*
G02*
X197120000Y-20530000I100000J0D01*
G01*
X197320000Y-20530000D01*
G75*
G02*
X197420000Y-20630000I0J-100000D01*
G01*
X197420000Y-21905000D01*
G75*
G02*
X197320000Y-22005000I-100000J0D01*
G01*
G37*
G36*
G01*
X196670000Y-22005000D02*
X196470000Y-22005000D01*
G75*
G02*
X196370000Y-21905000I0J100000D01*
G01*
X196370000Y-20630000D01*
G75*
G02*
X196470000Y-20530000I100000J0D01*
G01*
X196670000Y-20530000D01*
G75*
G02*
X196770000Y-20630000I0J-100000D01*
G01*
X196770000Y-21905000D01*
G75*
G02*
X196670000Y-22005000I-100000J0D01*
G01*
G37*
G36*
G01*
X196020000Y-22005000D02*
X195820000Y-22005000D01*
G75*
G02*
X195720000Y-21905000I0J100000D01*
G01*
X195720000Y-20630000D01*
G75*
G02*
X195820000Y-20530000I100000J0D01*
G01*
X196020000Y-20530000D01*
G75*
G02*
X196120000Y-20630000I0J-100000D01*
G01*
X196120000Y-21905000D01*
G75*
G02*
X196020000Y-22005000I-100000J0D01*
G01*
G37*
G36*
G01*
X195370000Y-22005000D02*
X195170000Y-22005000D01*
G75*
G02*
X195070000Y-21905000I0J100000D01*
G01*
X195070000Y-20630000D01*
G75*
G02*
X195170000Y-20530000I100000J0D01*
G01*
X195370000Y-20530000D01*
G75*
G02*
X195470000Y-20630000I0J-100000D01*
G01*
X195470000Y-21905000D01*
G75*
G02*
X195370000Y-22005000I-100000J0D01*
G01*
G37*
G36*
G01*
X194720000Y-22005000D02*
X194520000Y-22005000D01*
G75*
G02*
X194420000Y-21905000I0J100000D01*
G01*
X194420000Y-20630000D01*
G75*
G02*
X194520000Y-20530000I100000J0D01*
G01*
X194720000Y-20530000D01*
G75*
G02*
X194820000Y-20630000I0J-100000D01*
G01*
X194820000Y-21905000D01*
G75*
G02*
X194720000Y-22005000I-100000J0D01*
G01*
G37*
G36*
G01*
X194070000Y-22005000D02*
X193870000Y-22005000D01*
G75*
G02*
X193770000Y-21905000I0J100000D01*
G01*
X193770000Y-20630000D01*
G75*
G02*
X193870000Y-20530000I100000J0D01*
G01*
X194070000Y-20530000D01*
G75*
G02*
X194170000Y-20630000I0J-100000D01*
G01*
X194170000Y-21905000D01*
G75*
G02*
X194070000Y-22005000I-100000J0D01*
G01*
G37*
G36*
G01*
X193420000Y-22005000D02*
X193220000Y-22005000D01*
G75*
G02*
X193120000Y-21905000I0J100000D01*
G01*
X193120000Y-20630000D01*
G75*
G02*
X193220000Y-20530000I100000J0D01*
G01*
X193420000Y-20530000D01*
G75*
G02*
X193520000Y-20630000I0J-100000D01*
G01*
X193520000Y-21905000D01*
G75*
G02*
X193420000Y-22005000I-100000J0D01*
G01*
G37*
G36*
G01*
X192770000Y-22005000D02*
X192570000Y-22005000D01*
G75*
G02*
X192470000Y-21905000I0J100000D01*
G01*
X192470000Y-20630000D01*
G75*
G02*
X192570000Y-20530000I100000J0D01*
G01*
X192770000Y-20530000D01*
G75*
G02*
X192870000Y-20630000I0J-100000D01*
G01*
X192870000Y-21905000D01*
G75*
G02*
X192770000Y-22005000I-100000J0D01*
G01*
G37*
G36*
G01*
X192120000Y-22005000D02*
X191920000Y-22005000D01*
G75*
G02*
X191820000Y-21905000I0J100000D01*
G01*
X191820000Y-20630000D01*
G75*
G02*
X191920000Y-20530000I100000J0D01*
G01*
X192120000Y-20530000D01*
G75*
G02*
X192220000Y-20630000I0J-100000D01*
G01*
X192220000Y-21905000D01*
G75*
G02*
X192120000Y-22005000I-100000J0D01*
G01*
G37*
G36*
G01*
X192120000Y-27730000D02*
X191920000Y-27730000D01*
G75*
G02*
X191820000Y-27630000I0J100000D01*
G01*
X191820000Y-26355000D01*
G75*
G02*
X191920000Y-26255000I100000J0D01*
G01*
X192120000Y-26255000D01*
G75*
G02*
X192220000Y-26355000I0J-100000D01*
G01*
X192220000Y-27630000D01*
G75*
G02*
X192120000Y-27730000I-100000J0D01*
G01*
G37*
G36*
G01*
X192770000Y-27730000D02*
X192570000Y-27730000D01*
G75*
G02*
X192470000Y-27630000I0J100000D01*
G01*
X192470000Y-26355000D01*
G75*
G02*
X192570000Y-26255000I100000J0D01*
G01*
X192770000Y-26255000D01*
G75*
G02*
X192870000Y-26355000I0J-100000D01*
G01*
X192870000Y-27630000D01*
G75*
G02*
X192770000Y-27730000I-100000J0D01*
G01*
G37*
G36*
G01*
X193420000Y-27730000D02*
X193220000Y-27730000D01*
G75*
G02*
X193120000Y-27630000I0J100000D01*
G01*
X193120000Y-26355000D01*
G75*
G02*
X193220000Y-26255000I100000J0D01*
G01*
X193420000Y-26255000D01*
G75*
G02*
X193520000Y-26355000I0J-100000D01*
G01*
X193520000Y-27630000D01*
G75*
G02*
X193420000Y-27730000I-100000J0D01*
G01*
G37*
G36*
G01*
X194070000Y-27730000D02*
X193870000Y-27730000D01*
G75*
G02*
X193770000Y-27630000I0J100000D01*
G01*
X193770000Y-26355000D01*
G75*
G02*
X193870000Y-26255000I100000J0D01*
G01*
X194070000Y-26255000D01*
G75*
G02*
X194170000Y-26355000I0J-100000D01*
G01*
X194170000Y-27630000D01*
G75*
G02*
X194070000Y-27730000I-100000J0D01*
G01*
G37*
G36*
G01*
X194720000Y-27730000D02*
X194520000Y-27730000D01*
G75*
G02*
X194420000Y-27630000I0J100000D01*
G01*
X194420000Y-26355000D01*
G75*
G02*
X194520000Y-26255000I100000J0D01*
G01*
X194720000Y-26255000D01*
G75*
G02*
X194820000Y-26355000I0J-100000D01*
G01*
X194820000Y-27630000D01*
G75*
G02*
X194720000Y-27730000I-100000J0D01*
G01*
G37*
G36*
G01*
X195370000Y-27730000D02*
X195170000Y-27730000D01*
G75*
G02*
X195070000Y-27630000I0J100000D01*
G01*
X195070000Y-26355000D01*
G75*
G02*
X195170000Y-26255000I100000J0D01*
G01*
X195370000Y-26255000D01*
G75*
G02*
X195470000Y-26355000I0J-100000D01*
G01*
X195470000Y-27630000D01*
G75*
G02*
X195370000Y-27730000I-100000J0D01*
G01*
G37*
G36*
G01*
X196020000Y-27730000D02*
X195820000Y-27730000D01*
G75*
G02*
X195720000Y-27630000I0J100000D01*
G01*
X195720000Y-26355000D01*
G75*
G02*
X195820000Y-26255000I100000J0D01*
G01*
X196020000Y-26255000D01*
G75*
G02*
X196120000Y-26355000I0J-100000D01*
G01*
X196120000Y-27630000D01*
G75*
G02*
X196020000Y-27730000I-100000J0D01*
G01*
G37*
G36*
G01*
X196670000Y-27730000D02*
X196470000Y-27730000D01*
G75*
G02*
X196370000Y-27630000I0J100000D01*
G01*
X196370000Y-26355000D01*
G75*
G02*
X196470000Y-26255000I100000J0D01*
G01*
X196670000Y-26255000D01*
G75*
G02*
X196770000Y-26355000I0J-100000D01*
G01*
X196770000Y-27630000D01*
G75*
G02*
X196670000Y-27730000I-100000J0D01*
G01*
G37*
G36*
G01*
X197320000Y-27730000D02*
X197120000Y-27730000D01*
G75*
G02*
X197020000Y-27630000I0J100000D01*
G01*
X197020000Y-26355000D01*
G75*
G02*
X197120000Y-26255000I100000J0D01*
G01*
X197320000Y-26255000D01*
G75*
G02*
X197420000Y-26355000I0J-100000D01*
G01*
X197420000Y-27630000D01*
G75*
G02*
X197320000Y-27730000I-100000J0D01*
G01*
G37*
G36*
G01*
X197970000Y-27730000D02*
X197770000Y-27730000D01*
G75*
G02*
X197670000Y-27630000I0J100000D01*
G01*
X197670000Y-26355000D01*
G75*
G02*
X197770000Y-26255000I100000J0D01*
G01*
X197970000Y-26255000D01*
G75*
G02*
X198070000Y-26355000I0J-100000D01*
G01*
X198070000Y-27630000D01*
G75*
G02*
X197970000Y-27730000I-100000J0D01*
G01*
G37*
G04 #@! TD*
G04 #@! TO.C,R921*
G36*
G01*
X75822000Y-21786001D02*
X75822000Y-20885999D01*
G75*
G02*
X76071999Y-20636000I249999J0D01*
G01*
X76772001Y-20636000D01*
G75*
G02*
X77022000Y-20885999I0J-249999D01*
G01*
X77022000Y-21786001D01*
G75*
G02*
X76772001Y-22036000I-249999J0D01*
G01*
X76071999Y-22036000D01*
G75*
G02*
X75822000Y-21786001I0J249999D01*
G01*
G37*
G36*
G01*
X73822000Y-21786001D02*
X73822000Y-20885999D01*
G75*
G02*
X74071999Y-20636000I249999J0D01*
G01*
X74772001Y-20636000D01*
G75*
G02*
X75022000Y-20885999I0J-249999D01*
G01*
X75022000Y-21786001D01*
G75*
G02*
X74772001Y-22036000I-249999J0D01*
G01*
X74071999Y-22036000D01*
G75*
G02*
X73822000Y-21786001I0J249999D01*
G01*
G37*
G04 #@! TD*
G04 #@! TO.C,R920*
G36*
G01*
X91951000Y-22802001D02*
X91951000Y-21901999D01*
G75*
G02*
X92200999Y-21652000I249999J0D01*
G01*
X92901001Y-21652000D01*
G75*
G02*
X93151000Y-21901999I0J-249999D01*
G01*
X93151000Y-22802001D01*
G75*
G02*
X92901001Y-23052000I-249999J0D01*
G01*
X92200999Y-23052000D01*
G75*
G02*
X91951000Y-22802001I0J249999D01*
G01*
G37*
G36*
G01*
X89951000Y-22802001D02*
X89951000Y-21901999D01*
G75*
G02*
X90200999Y-21652000I249999J0D01*
G01*
X90901001Y-21652000D01*
G75*
G02*
X91151000Y-21901999I0J-249999D01*
G01*
X91151000Y-22802001D01*
G75*
G02*
X90901001Y-23052000I-249999J0D01*
G01*
X90200999Y-23052000D01*
G75*
G02*
X89951000Y-22802001I0J249999D01*
G01*
G37*
G04 #@! TD*
G04 #@! TO.C,R919*
G36*
G01*
X85236000Y-23818001D02*
X85236000Y-22917999D01*
G75*
G02*
X85485999Y-22668000I249999J0D01*
G01*
X86186001Y-22668000D01*
G75*
G02*
X86436000Y-22917999I0J-249999D01*
G01*
X86436000Y-23818001D01*
G75*
G02*
X86186001Y-24068000I-249999J0D01*
G01*
X85485999Y-24068000D01*
G75*
G02*
X85236000Y-23818001I0J249999D01*
G01*
G37*
G36*
G01*
X83236000Y-23818001D02*
X83236000Y-22917999D01*
G75*
G02*
X83485999Y-22668000I249999J0D01*
G01*
X84186001Y-22668000D01*
G75*
G02*
X84436000Y-22917999I0J-249999D01*
G01*
X84436000Y-23818001D01*
G75*
G02*
X84186001Y-24068000I-249999J0D01*
G01*
X83485999Y-24068000D01*
G75*
G02*
X83236000Y-23818001I0J249999D01*
G01*
G37*
G04 #@! TD*
G04 #@! TO.C,R918*
G36*
G01*
X91951000Y-25342001D02*
X91951000Y-24441999D01*
G75*
G02*
X92200999Y-24192000I249999J0D01*
G01*
X92901001Y-24192000D01*
G75*
G02*
X93151000Y-24441999I0J-249999D01*
G01*
X93151000Y-25342001D01*
G75*
G02*
X92901001Y-25592000I-249999J0D01*
G01*
X92200999Y-25592000D01*
G75*
G02*
X91951000Y-25342001I0J249999D01*
G01*
G37*
G36*
G01*
X89951000Y-25342001D02*
X89951000Y-24441999D01*
G75*
G02*
X90200999Y-24192000I249999J0D01*
G01*
X90901001Y-24192000D01*
G75*
G02*
X91151000Y-24441999I0J-249999D01*
G01*
X91151000Y-25342001D01*
G75*
G02*
X90901001Y-25592000I-249999J0D01*
G01*
X90200999Y-25592000D01*
G75*
G02*
X89951000Y-25342001I0J249999D01*
G01*
G37*
G04 #@! TD*
G04 #@! TO.C,R917*
G36*
G01*
X110868000Y-24568999D02*
X110868000Y-25469001D01*
G75*
G02*
X110618001Y-25719000I-249999J0D01*
G01*
X109917999Y-25719000D01*
G75*
G02*
X109668000Y-25469001I0J249999D01*
G01*
X109668000Y-24568999D01*
G75*
G02*
X109917999Y-24319000I249999J0D01*
G01*
X110618001Y-24319000D01*
G75*
G02*
X110868000Y-24568999I0J-249999D01*
G01*
G37*
G36*
G01*
X112868000Y-24568999D02*
X112868000Y-25469001D01*
G75*
G02*
X112618001Y-25719000I-249999J0D01*
G01*
X111917999Y-25719000D01*
G75*
G02*
X111668000Y-25469001I0J249999D01*
G01*
X111668000Y-24568999D01*
G75*
G02*
X111917999Y-24319000I249999J0D01*
G01*
X112618001Y-24319000D01*
G75*
G02*
X112868000Y-24568999I0J-249999D01*
G01*
G37*
G04 #@! TD*
G04 #@! TO.C,R916*
G36*
G01*
X106296000Y-23425999D02*
X106296000Y-24326001D01*
G75*
G02*
X106046001Y-24576000I-249999J0D01*
G01*
X105345999Y-24576000D01*
G75*
G02*
X105096000Y-24326001I0J249999D01*
G01*
X105096000Y-23425999D01*
G75*
G02*
X105345999Y-23176000I249999J0D01*
G01*
X106046001Y-23176000D01*
G75*
G02*
X106296000Y-23425999I0J-249999D01*
G01*
G37*
G36*
G01*
X108296000Y-23425999D02*
X108296000Y-24326001D01*
G75*
G02*
X108046001Y-24576000I-249999J0D01*
G01*
X107345999Y-24576000D01*
G75*
G02*
X107096000Y-24326001I0J249999D01*
G01*
X107096000Y-23425999D01*
G75*
G02*
X107345999Y-23176000I249999J0D01*
G01*
X108046001Y-23176000D01*
G75*
G02*
X108296000Y-23425999I0J-249999D01*
G01*
G37*
G04 #@! TD*
G04 #@! TO.C,R915*
G36*
G01*
X142872000Y-23425999D02*
X142872000Y-24326001D01*
G75*
G02*
X142622001Y-24576000I-249999J0D01*
G01*
X141921999Y-24576000D01*
G75*
G02*
X141672000Y-24326001I0J249999D01*
G01*
X141672000Y-23425999D01*
G75*
G02*
X141921999Y-23176000I249999J0D01*
G01*
X142622001Y-23176000D01*
G75*
G02*
X142872000Y-23425999I0J-249999D01*
G01*
G37*
G36*
G01*
X144872000Y-23425999D02*
X144872000Y-24326001D01*
G75*
G02*
X144622001Y-24576000I-249999J0D01*
G01*
X143921999Y-24576000D01*
G75*
G02*
X143672000Y-24326001I0J249999D01*
G01*
X143672000Y-23425999D01*
G75*
G02*
X143921999Y-23176000I249999J0D01*
G01*
X144622001Y-23176000D01*
G75*
G02*
X144872000Y-23425999I0J-249999D01*
G01*
G37*
G04 #@! TD*
G04 #@! TO.C,R914*
G36*
G01*
X134998000Y-22155999D02*
X134998000Y-23056001D01*
G75*
G02*
X134748001Y-23306000I-249999J0D01*
G01*
X134047999Y-23306000D01*
G75*
G02*
X133798000Y-23056001I0J249999D01*
G01*
X133798000Y-22155999D01*
G75*
G02*
X134047999Y-21906000I249999J0D01*
G01*
X134748001Y-21906000D01*
G75*
G02*
X134998000Y-22155999I0J-249999D01*
G01*
G37*
G36*
G01*
X136998000Y-22155999D02*
X136998000Y-23056001D01*
G75*
G02*
X136748001Y-23306000I-249999J0D01*
G01*
X136047999Y-23306000D01*
G75*
G02*
X135798000Y-23056001I0J249999D01*
G01*
X135798000Y-22155999D01*
G75*
G02*
X136047999Y-21906000I249999J0D01*
G01*
X136748001Y-21906000D01*
G75*
G02*
X136998000Y-22155999I0J-249999D01*
G01*
G37*
G04 #@! TD*
G04 #@! TO.C,R913*
G36*
G01*
X119107000Y-20885999D02*
X119107000Y-21786001D01*
G75*
G02*
X118857001Y-22036000I-249999J0D01*
G01*
X118156999Y-22036000D01*
G75*
G02*
X117907000Y-21786001I0J249999D01*
G01*
X117907000Y-20885999D01*
G75*
G02*
X118156999Y-20636000I249999J0D01*
G01*
X118857001Y-20636000D01*
G75*
G02*
X119107000Y-20885999I0J-249999D01*
G01*
G37*
G36*
G01*
X121107000Y-20885999D02*
X121107000Y-21786001D01*
G75*
G02*
X120857001Y-22036000I-249999J0D01*
G01*
X120156999Y-22036000D01*
G75*
G02*
X119907000Y-21786001I0J249999D01*
G01*
X119907000Y-20885999D01*
G75*
G02*
X120156999Y-20636000I249999J0D01*
G01*
X120857001Y-20636000D01*
G75*
G02*
X121107000Y-20885999I0J-249999D01*
G01*
G37*
G04 #@! TD*
G04 #@! TO.C,R912*
G36*
G01*
X151365000Y-22409999D02*
X151365000Y-23310001D01*
G75*
G02*
X151115001Y-23560000I-249999J0D01*
G01*
X150414999Y-23560000D01*
G75*
G02*
X150165000Y-23310001I0J249999D01*
G01*
X150165000Y-22409999D01*
G75*
G02*
X150414999Y-22160000I249999J0D01*
G01*
X151115001Y-22160000D01*
G75*
G02*
X151365000Y-22409999I0J-249999D01*
G01*
G37*
G36*
G01*
X153365000Y-22409999D02*
X153365000Y-23310001D01*
G75*
G02*
X153115001Y-23560000I-249999J0D01*
G01*
X152414999Y-23560000D01*
G75*
G02*
X152165000Y-23310001I0J249999D01*
G01*
X152165000Y-22409999D01*
G75*
G02*
X152414999Y-22160000I249999J0D01*
G01*
X153115001Y-22160000D01*
G75*
G02*
X153365000Y-22409999I0J-249999D01*
G01*
G37*
G04 #@! TD*
G04 #@! TO.C,R911*
G36*
G01*
X180502000Y-24199001D02*
X180502000Y-23298999D01*
G75*
G02*
X180751999Y-23049000I249999J0D01*
G01*
X181452001Y-23049000D01*
G75*
G02*
X181702000Y-23298999I0J-249999D01*
G01*
X181702000Y-24199001D01*
G75*
G02*
X181452001Y-24449000I-249999J0D01*
G01*
X180751999Y-24449000D01*
G75*
G02*
X180502000Y-24199001I0J249999D01*
G01*
G37*
G36*
G01*
X178502000Y-24199001D02*
X178502000Y-23298999D01*
G75*
G02*
X178751999Y-23049000I249999J0D01*
G01*
X179452001Y-23049000D01*
G75*
G02*
X179702000Y-23298999I0J-249999D01*
G01*
X179702000Y-24199001D01*
G75*
G02*
X179452001Y-24449000I-249999J0D01*
G01*
X178751999Y-24449000D01*
G75*
G02*
X178502000Y-24199001I0J249999D01*
G01*
G37*
G04 #@! TD*
G04 #@! TO.C,R910*
G36*
G01*
X128616000Y-20885999D02*
X128616000Y-21786001D01*
G75*
G02*
X128366001Y-22036000I-249999J0D01*
G01*
X127665999Y-22036000D01*
G75*
G02*
X127416000Y-21786001I0J249999D01*
G01*
X127416000Y-20885999D01*
G75*
G02*
X127665999Y-20636000I249999J0D01*
G01*
X128366001Y-20636000D01*
G75*
G02*
X128616000Y-20885999I0J-249999D01*
G01*
G37*
G36*
G01*
X130616000Y-20885999D02*
X130616000Y-21786001D01*
G75*
G02*
X130366001Y-22036000I-249999J0D01*
G01*
X129665999Y-22036000D01*
G75*
G02*
X129416000Y-21786001I0J249999D01*
G01*
X129416000Y-20885999D01*
G75*
G02*
X129665999Y-20636000I249999J0D01*
G01*
X130366001Y-20636000D01*
G75*
G02*
X130616000Y-20885999I0J-249999D01*
G01*
G37*
G04 #@! TD*
G04 #@! TO.C,R909*
G36*
G01*
X190884000Y-44900001D02*
X190884000Y-43999999D01*
G75*
G02*
X191133999Y-43750000I249999J0D01*
G01*
X191834001Y-43750000D01*
G75*
G02*
X192084000Y-43999999I0J-249999D01*
G01*
X192084000Y-44900001D01*
G75*
G02*
X191834001Y-45150000I-249999J0D01*
G01*
X191133999Y-45150000D01*
G75*
G02*
X190884000Y-44900001I0J249999D01*
G01*
G37*
G36*
G01*
X188884000Y-44900001D02*
X188884000Y-43999999D01*
G75*
G02*
X189133999Y-43750000I249999J0D01*
G01*
X189834001Y-43750000D01*
G75*
G02*
X190084000Y-43999999I0J-249999D01*
G01*
X190084000Y-44900001D01*
G75*
G02*
X189834001Y-45150000I-249999J0D01*
G01*
X189133999Y-45150000D01*
G75*
G02*
X188884000Y-44900001I0J249999D01*
G01*
G37*
G04 #@! TD*
G04 #@! TO.C,R908*
G36*
G01*
X186471000Y-23056001D02*
X186471000Y-22155999D01*
G75*
G02*
X186720999Y-21906000I249999J0D01*
G01*
X187421001Y-21906000D01*
G75*
G02*
X187671000Y-22155999I0J-249999D01*
G01*
X187671000Y-23056001D01*
G75*
G02*
X187421001Y-23306000I-249999J0D01*
G01*
X186720999Y-23306000D01*
G75*
G02*
X186471000Y-23056001I0J249999D01*
G01*
G37*
G36*
G01*
X184471000Y-23056001D02*
X184471000Y-22155999D01*
G75*
G02*
X184720999Y-21906000I249999J0D01*
G01*
X185421001Y-21906000D01*
G75*
G02*
X185671000Y-22155999I0J-249999D01*
G01*
X185671000Y-23056001D01*
G75*
G02*
X185421001Y-23306000I-249999J0D01*
G01*
X184720999Y-23306000D01*
G75*
G02*
X184471000Y-23056001I0J249999D01*
G01*
G37*
G04 #@! TD*
G04 #@! TO.C,R907*
G36*
G01*
X172850000Y-24326001D02*
X172850000Y-23425999D01*
G75*
G02*
X173099999Y-23176000I249999J0D01*
G01*
X173800001Y-23176000D01*
G75*
G02*
X174050000Y-23425999I0J-249999D01*
G01*
X174050000Y-24326001D01*
G75*
G02*
X173800001Y-24576000I-249999J0D01*
G01*
X173099999Y-24576000D01*
G75*
G02*
X172850000Y-24326001I0J249999D01*
G01*
G37*
G36*
G01*
X170850000Y-24326001D02*
X170850000Y-23425999D01*
G75*
G02*
X171099999Y-23176000I249999J0D01*
G01*
X171800001Y-23176000D01*
G75*
G02*
X172050000Y-23425999I0J-249999D01*
G01*
X172050000Y-24326001D01*
G75*
G02*
X171800001Y-24576000I-249999J0D01*
G01*
X171099999Y-24576000D01*
G75*
G02*
X170850000Y-24326001I0J249999D01*
G01*
G37*
G04 #@! TD*
G04 #@! TO.C,R906*
G36*
G01*
X165103000Y-25723001D02*
X165103000Y-24822999D01*
G75*
G02*
X165352999Y-24573000I249999J0D01*
G01*
X166053001Y-24573000D01*
G75*
G02*
X166303000Y-24822999I0J-249999D01*
G01*
X166303000Y-25723001D01*
G75*
G02*
X166053001Y-25973000I-249999J0D01*
G01*
X165352999Y-25973000D01*
G75*
G02*
X165103000Y-25723001I0J249999D01*
G01*
G37*
G36*
G01*
X163103000Y-25723001D02*
X163103000Y-24822999D01*
G75*
G02*
X163352999Y-24573000I249999J0D01*
G01*
X164053001Y-24573000D01*
G75*
G02*
X164303000Y-24822999I0J-249999D01*
G01*
X164303000Y-25723001D01*
G75*
G02*
X164053001Y-25973000I-249999J0D01*
G01*
X163352999Y-25973000D01*
G75*
G02*
X163103000Y-25723001I0J249999D01*
G01*
G37*
G04 #@! TD*
G04 #@! TO.C,R905*
G36*
G01*
X209293000Y-23552999D02*
X209293000Y-24453001D01*
G75*
G02*
X209043001Y-24703000I-249999J0D01*
G01*
X208342999Y-24703000D01*
G75*
G02*
X208093000Y-24453001I0J249999D01*
G01*
X208093000Y-23552999D01*
G75*
G02*
X208342999Y-23303000I249999J0D01*
G01*
X209043001Y-23303000D01*
G75*
G02*
X209293000Y-23552999I0J-249999D01*
G01*
G37*
G36*
G01*
X211293000Y-23552999D02*
X211293000Y-24453001D01*
G75*
G02*
X211043001Y-24703000I-249999J0D01*
G01*
X210342999Y-24703000D01*
G75*
G02*
X210093000Y-24453001I0J249999D01*
G01*
X210093000Y-23552999D01*
G75*
G02*
X210342999Y-23303000I249999J0D01*
G01*
X211043001Y-23303000D01*
G75*
G02*
X211293000Y-23552999I0J-249999D01*
G01*
G37*
G04 #@! TD*
G04 #@! TO.C,R904*
G36*
G01*
X217040000Y-22536999D02*
X217040000Y-23437001D01*
G75*
G02*
X216790001Y-23687000I-249999J0D01*
G01*
X216089999Y-23687000D01*
G75*
G02*
X215840000Y-23437001I0J249999D01*
G01*
X215840000Y-22536999D01*
G75*
G02*
X216089999Y-22287000I249999J0D01*
G01*
X216790001Y-22287000D01*
G75*
G02*
X217040000Y-22536999I0J-249999D01*
G01*
G37*
G36*
G01*
X219040000Y-22536999D02*
X219040000Y-23437001D01*
G75*
G02*
X218790001Y-23687000I-249999J0D01*
G01*
X218089999Y-23687000D01*
G75*
G02*
X217840000Y-23437001I0J249999D01*
G01*
X217840000Y-22536999D01*
G75*
G02*
X218089999Y-22287000I249999J0D01*
G01*
X218790001Y-22287000D01*
G75*
G02*
X219040000Y-22536999I0J-249999D01*
G01*
G37*
G04 #@! TD*
G04 #@! TO.C,R903*
G36*
G01*
X202435000Y-24568999D02*
X202435000Y-25469001D01*
G75*
G02*
X202185001Y-25719000I-249999J0D01*
G01*
X201484999Y-25719000D01*
G75*
G02*
X201235000Y-25469001I0J249999D01*
G01*
X201235000Y-24568999D01*
G75*
G02*
X201484999Y-24319000I249999J0D01*
G01*
X202185001Y-24319000D01*
G75*
G02*
X202435000Y-24568999I0J-249999D01*
G01*
G37*
G36*
G01*
X204435000Y-24568999D02*
X204435000Y-25469001D01*
G75*
G02*
X204185001Y-25719000I-249999J0D01*
G01*
X203484999Y-25719000D01*
G75*
G02*
X203235000Y-25469001I0J249999D01*
G01*
X203235000Y-24568999D01*
G75*
G02*
X203484999Y-24319000I249999J0D01*
G01*
X204185001Y-24319000D01*
G75*
G02*
X204435000Y-24568999I0J-249999D01*
G01*
G37*
G04 #@! TD*
G04 #@! TO.C,R901*
G36*
G01*
X232860001Y-36700000D02*
X231959999Y-36700000D01*
G75*
G02*
X231710000Y-36450001I0J249999D01*
G01*
X231710000Y-35749999D01*
G75*
G02*
X231959999Y-35500000I249999J0D01*
G01*
X232860001Y-35500000D01*
G75*
G02*
X233110000Y-35749999I0J-249999D01*
G01*
X233110000Y-36450001D01*
G75*
G02*
X232860001Y-36700000I-249999J0D01*
G01*
G37*
G36*
G01*
X232860001Y-38700000D02*
X231959999Y-38700000D01*
G75*
G02*
X231710000Y-38450001I0J249999D01*
G01*
X231710000Y-37749999D01*
G75*
G02*
X231959999Y-37500000I249999J0D01*
G01*
X232860001Y-37500000D01*
G75*
G02*
X233110000Y-37749999I0J-249999D01*
G01*
X233110000Y-38450001D01*
G75*
G02*
X232860001Y-38700000I-249999J0D01*
G01*
G37*
G04 #@! TD*
D16*
G04 #@! TO.C,SW984*
X274300000Y-20270000D03*
D17*
X273050000Y-17780000D03*
X268550000Y-17780000D03*
D16*
X267290000Y-20270000D03*
G04 #@! TD*
G04 #@! TO.C,SW983*
X264140000Y-20270000D03*
D17*
X262890000Y-17780000D03*
X258390000Y-17780000D03*
D16*
X257130000Y-20270000D03*
G04 #@! TD*
G04 #@! TO.C,SW982*
X251440000Y-20270000D03*
D17*
X250190000Y-17780000D03*
X245690000Y-17780000D03*
D16*
X244430000Y-20270000D03*
G04 #@! TD*
D18*
G04 #@! TO.C,U981*
X265015000Y-46465000D03*
X265015000Y-44465000D03*
X265015000Y-42465000D03*
X265015000Y-40465000D03*
X265015000Y-38465000D03*
X265015000Y-36465000D03*
X265015000Y-34465000D03*
X265015000Y-32465000D03*
X265015000Y-30465000D03*
X265015000Y-28465000D03*
D19*
X262365000Y-25815000D03*
X260365000Y-25815000D03*
X258365000Y-25815000D03*
X256365000Y-25815000D03*
X254365000Y-25815000D03*
X252365000Y-25815000D03*
X250365000Y-25815000D03*
X248365000Y-25815000D03*
X246365000Y-25815000D03*
X244365000Y-25815000D03*
D18*
X241715000Y-28465000D03*
X241715000Y-30465000D03*
X241715000Y-32465000D03*
X241715000Y-34465000D03*
X241715000Y-36465000D03*
X241715000Y-38465000D03*
X241715000Y-40465000D03*
X241715000Y-42465000D03*
X241715000Y-44465000D03*
X241715000Y-46465000D03*
D19*
X244365000Y-49115000D03*
X246365000Y-49115000D03*
X248365000Y-49115000D03*
X250365000Y-49115000D03*
X252365000Y-49115000D03*
X254365000Y-49115000D03*
X256365000Y-49115000D03*
X258365000Y-49115000D03*
X260365000Y-49115000D03*
X262365000Y-49115000D03*
G04 #@! TD*
D20*
G04 #@! TO.C,J981*
X276005000Y-40945000D03*
X276005000Y-28945000D03*
D21*
X273145000Y-36195000D03*
X273145000Y-33695000D03*
X271145000Y-33695000D03*
D22*
X271145000Y-36195000D03*
G04 #@! TD*
G04 #@! TO.C,U944*
G36*
G01*
X177020000Y-150080000D02*
X177220000Y-150080000D01*
G75*
G02*
X177320000Y-150180000I0J-100000D01*
G01*
X177320000Y-151455000D01*
G75*
G02*
X177220000Y-151555000I-100000J0D01*
G01*
X177020000Y-151555000D01*
G75*
G02*
X176920000Y-151455000I0J100000D01*
G01*
X176920000Y-150180000D01*
G75*
G02*
X177020000Y-150080000I100000J0D01*
G01*
G37*
G36*
G01*
X177670000Y-150080000D02*
X177870000Y-150080000D01*
G75*
G02*
X177970000Y-150180000I0J-100000D01*
G01*
X177970000Y-151455000D01*
G75*
G02*
X177870000Y-151555000I-100000J0D01*
G01*
X177670000Y-151555000D01*
G75*
G02*
X177570000Y-151455000I0J100000D01*
G01*
X177570000Y-150180000D01*
G75*
G02*
X177670000Y-150080000I100000J0D01*
G01*
G37*
G36*
G01*
X178320000Y-150080000D02*
X178520000Y-150080000D01*
G75*
G02*
X178620000Y-150180000I0J-100000D01*
G01*
X178620000Y-151455000D01*
G75*
G02*
X178520000Y-151555000I-100000J0D01*
G01*
X178320000Y-151555000D01*
G75*
G02*
X178220000Y-151455000I0J100000D01*
G01*
X178220000Y-150180000D01*
G75*
G02*
X178320000Y-150080000I100000J0D01*
G01*
G37*
G36*
G01*
X178970000Y-150080000D02*
X179170000Y-150080000D01*
G75*
G02*
X179270000Y-150180000I0J-100000D01*
G01*
X179270000Y-151455000D01*
G75*
G02*
X179170000Y-151555000I-100000J0D01*
G01*
X178970000Y-151555000D01*
G75*
G02*
X178870000Y-151455000I0J100000D01*
G01*
X178870000Y-150180000D01*
G75*
G02*
X178970000Y-150080000I100000J0D01*
G01*
G37*
G36*
G01*
X179620000Y-150080000D02*
X179820000Y-150080000D01*
G75*
G02*
X179920000Y-150180000I0J-100000D01*
G01*
X179920000Y-151455000D01*
G75*
G02*
X179820000Y-151555000I-100000J0D01*
G01*
X179620000Y-151555000D01*
G75*
G02*
X179520000Y-151455000I0J100000D01*
G01*
X179520000Y-150180000D01*
G75*
G02*
X179620000Y-150080000I100000J0D01*
G01*
G37*
G36*
G01*
X180270000Y-150080000D02*
X180470000Y-150080000D01*
G75*
G02*
X180570000Y-150180000I0J-100000D01*
G01*
X180570000Y-151455000D01*
G75*
G02*
X180470000Y-151555000I-100000J0D01*
G01*
X180270000Y-151555000D01*
G75*
G02*
X180170000Y-151455000I0J100000D01*
G01*
X180170000Y-150180000D01*
G75*
G02*
X180270000Y-150080000I100000J0D01*
G01*
G37*
G36*
G01*
X180920000Y-150080000D02*
X181120000Y-150080000D01*
G75*
G02*
X181220000Y-150180000I0J-100000D01*
G01*
X181220000Y-151455000D01*
G75*
G02*
X181120000Y-151555000I-100000J0D01*
G01*
X180920000Y-151555000D01*
G75*
G02*
X180820000Y-151455000I0J100000D01*
G01*
X180820000Y-150180000D01*
G75*
G02*
X180920000Y-150080000I100000J0D01*
G01*
G37*
G36*
G01*
X180920000Y-144355000D02*
X181120000Y-144355000D01*
G75*
G02*
X181220000Y-144455000I0J-100000D01*
G01*
X181220000Y-145730000D01*
G75*
G02*
X181120000Y-145830000I-100000J0D01*
G01*
X180920000Y-145830000D01*
G75*
G02*
X180820000Y-145730000I0J100000D01*
G01*
X180820000Y-144455000D01*
G75*
G02*
X180920000Y-144355000I100000J0D01*
G01*
G37*
G36*
G01*
X180270000Y-144355000D02*
X180470000Y-144355000D01*
G75*
G02*
X180570000Y-144455000I0J-100000D01*
G01*
X180570000Y-145730000D01*
G75*
G02*
X180470000Y-145830000I-100000J0D01*
G01*
X180270000Y-145830000D01*
G75*
G02*
X180170000Y-145730000I0J100000D01*
G01*
X180170000Y-144455000D01*
G75*
G02*
X180270000Y-144355000I100000J0D01*
G01*
G37*
G36*
G01*
X179620000Y-144355000D02*
X179820000Y-144355000D01*
G75*
G02*
X179920000Y-144455000I0J-100000D01*
G01*
X179920000Y-145730000D01*
G75*
G02*
X179820000Y-145830000I-100000J0D01*
G01*
X179620000Y-145830000D01*
G75*
G02*
X179520000Y-145730000I0J100000D01*
G01*
X179520000Y-144455000D01*
G75*
G02*
X179620000Y-144355000I100000J0D01*
G01*
G37*
G36*
G01*
X178970000Y-144355000D02*
X179170000Y-144355000D01*
G75*
G02*
X179270000Y-144455000I0J-100000D01*
G01*
X179270000Y-145730000D01*
G75*
G02*
X179170000Y-145830000I-100000J0D01*
G01*
X178970000Y-145830000D01*
G75*
G02*
X178870000Y-145730000I0J100000D01*
G01*
X178870000Y-144455000D01*
G75*
G02*
X178970000Y-144355000I100000J0D01*
G01*
G37*
G36*
G01*
X178320000Y-144355000D02*
X178520000Y-144355000D01*
G75*
G02*
X178620000Y-144455000I0J-100000D01*
G01*
X178620000Y-145730000D01*
G75*
G02*
X178520000Y-145830000I-100000J0D01*
G01*
X178320000Y-145830000D01*
G75*
G02*
X178220000Y-145730000I0J100000D01*
G01*
X178220000Y-144455000D01*
G75*
G02*
X178320000Y-144355000I100000J0D01*
G01*
G37*
G36*
G01*
X177670000Y-144355000D02*
X177870000Y-144355000D01*
G75*
G02*
X177970000Y-144455000I0J-100000D01*
G01*
X177970000Y-145730000D01*
G75*
G02*
X177870000Y-145830000I-100000J0D01*
G01*
X177670000Y-145830000D01*
G75*
G02*
X177570000Y-145730000I0J100000D01*
G01*
X177570000Y-144455000D01*
G75*
G02*
X177670000Y-144355000I100000J0D01*
G01*
G37*
G36*
G01*
X177020000Y-144355000D02*
X177220000Y-144355000D01*
G75*
G02*
X177320000Y-144455000I0J-100000D01*
G01*
X177320000Y-145730000D01*
G75*
G02*
X177220000Y-145830000I-100000J0D01*
G01*
X177020000Y-145830000D01*
G75*
G02*
X176920000Y-145730000I0J100000D01*
G01*
X176920000Y-144455000D01*
G75*
G02*
X177020000Y-144355000I100000J0D01*
G01*
G37*
G04 #@! TD*
G04 #@! TO.C,U943*
G36*
G01*
X141460000Y-150080000D02*
X141660000Y-150080000D01*
G75*
G02*
X141760000Y-150180000I0J-100000D01*
G01*
X141760000Y-151455000D01*
G75*
G02*
X141660000Y-151555000I-100000J0D01*
G01*
X141460000Y-151555000D01*
G75*
G02*
X141360000Y-151455000I0J100000D01*
G01*
X141360000Y-150180000D01*
G75*
G02*
X141460000Y-150080000I100000J0D01*
G01*
G37*
G36*
G01*
X142110000Y-150080000D02*
X142310000Y-150080000D01*
G75*
G02*
X142410000Y-150180000I0J-100000D01*
G01*
X142410000Y-151455000D01*
G75*
G02*
X142310000Y-151555000I-100000J0D01*
G01*
X142110000Y-151555000D01*
G75*
G02*
X142010000Y-151455000I0J100000D01*
G01*
X142010000Y-150180000D01*
G75*
G02*
X142110000Y-150080000I100000J0D01*
G01*
G37*
G36*
G01*
X142760000Y-150080000D02*
X142960000Y-150080000D01*
G75*
G02*
X143060000Y-150180000I0J-100000D01*
G01*
X143060000Y-151455000D01*
G75*
G02*
X142960000Y-151555000I-100000J0D01*
G01*
X142760000Y-151555000D01*
G75*
G02*
X142660000Y-151455000I0J100000D01*
G01*
X142660000Y-150180000D01*
G75*
G02*
X142760000Y-150080000I100000J0D01*
G01*
G37*
G36*
G01*
X143410000Y-150080000D02*
X143610000Y-150080000D01*
G75*
G02*
X143710000Y-150180000I0J-100000D01*
G01*
X143710000Y-151455000D01*
G75*
G02*
X143610000Y-151555000I-100000J0D01*
G01*
X143410000Y-151555000D01*
G75*
G02*
X143310000Y-151455000I0J100000D01*
G01*
X143310000Y-150180000D01*
G75*
G02*
X143410000Y-150080000I100000J0D01*
G01*
G37*
G36*
G01*
X144060000Y-150080000D02*
X144260000Y-150080000D01*
G75*
G02*
X144360000Y-150180000I0J-100000D01*
G01*
X144360000Y-151455000D01*
G75*
G02*
X144260000Y-151555000I-100000J0D01*
G01*
X144060000Y-151555000D01*
G75*
G02*
X143960000Y-151455000I0J100000D01*
G01*
X143960000Y-150180000D01*
G75*
G02*
X144060000Y-150080000I100000J0D01*
G01*
G37*
G36*
G01*
X144710000Y-150080000D02*
X144910000Y-150080000D01*
G75*
G02*
X145010000Y-150180000I0J-100000D01*
G01*
X145010000Y-151455000D01*
G75*
G02*
X144910000Y-151555000I-100000J0D01*
G01*
X144710000Y-151555000D01*
G75*
G02*
X144610000Y-151455000I0J100000D01*
G01*
X144610000Y-150180000D01*
G75*
G02*
X144710000Y-150080000I100000J0D01*
G01*
G37*
G36*
G01*
X145360000Y-150080000D02*
X145560000Y-150080000D01*
G75*
G02*
X145660000Y-150180000I0J-100000D01*
G01*
X145660000Y-151455000D01*
G75*
G02*
X145560000Y-151555000I-100000J0D01*
G01*
X145360000Y-151555000D01*
G75*
G02*
X145260000Y-151455000I0J100000D01*
G01*
X145260000Y-150180000D01*
G75*
G02*
X145360000Y-150080000I100000J0D01*
G01*
G37*
G36*
G01*
X145360000Y-144355000D02*
X145560000Y-144355000D01*
G75*
G02*
X145660000Y-144455000I0J-100000D01*
G01*
X145660000Y-145730000D01*
G75*
G02*
X145560000Y-145830000I-100000J0D01*
G01*
X145360000Y-145830000D01*
G75*
G02*
X145260000Y-145730000I0J100000D01*
G01*
X145260000Y-144455000D01*
G75*
G02*
X145360000Y-144355000I100000J0D01*
G01*
G37*
G36*
G01*
X144710000Y-144355000D02*
X144910000Y-144355000D01*
G75*
G02*
X145010000Y-144455000I0J-100000D01*
G01*
X145010000Y-145730000D01*
G75*
G02*
X144910000Y-145830000I-100000J0D01*
G01*
X144710000Y-145830000D01*
G75*
G02*
X144610000Y-145730000I0J100000D01*
G01*
X144610000Y-144455000D01*
G75*
G02*
X144710000Y-144355000I100000J0D01*
G01*
G37*
G36*
G01*
X144060000Y-144355000D02*
X144260000Y-144355000D01*
G75*
G02*
X144360000Y-144455000I0J-100000D01*
G01*
X144360000Y-145730000D01*
G75*
G02*
X144260000Y-145830000I-100000J0D01*
G01*
X144060000Y-145830000D01*
G75*
G02*
X143960000Y-145730000I0J100000D01*
G01*
X143960000Y-144455000D01*
G75*
G02*
X144060000Y-144355000I100000J0D01*
G01*
G37*
G36*
G01*
X143410000Y-144355000D02*
X143610000Y-144355000D01*
G75*
G02*
X143710000Y-144455000I0J-100000D01*
G01*
X143710000Y-145730000D01*
G75*
G02*
X143610000Y-145830000I-100000J0D01*
G01*
X143410000Y-145830000D01*
G75*
G02*
X143310000Y-145730000I0J100000D01*
G01*
X143310000Y-144455000D01*
G75*
G02*
X143410000Y-144355000I100000J0D01*
G01*
G37*
G36*
G01*
X142760000Y-144355000D02*
X142960000Y-144355000D01*
G75*
G02*
X143060000Y-144455000I0J-100000D01*
G01*
X143060000Y-145730000D01*
G75*
G02*
X142960000Y-145830000I-100000J0D01*
G01*
X142760000Y-145830000D01*
G75*
G02*
X142660000Y-145730000I0J100000D01*
G01*
X142660000Y-144455000D01*
G75*
G02*
X142760000Y-144355000I100000J0D01*
G01*
G37*
G36*
G01*
X142110000Y-144355000D02*
X142310000Y-144355000D01*
G75*
G02*
X142410000Y-144455000I0J-100000D01*
G01*
X142410000Y-145730000D01*
G75*
G02*
X142310000Y-145830000I-100000J0D01*
G01*
X142110000Y-145830000D01*
G75*
G02*
X142010000Y-145730000I0J100000D01*
G01*
X142010000Y-144455000D01*
G75*
G02*
X142110000Y-144355000I100000J0D01*
G01*
G37*
G36*
G01*
X141460000Y-144355000D02*
X141660000Y-144355000D01*
G75*
G02*
X141760000Y-144455000I0J-100000D01*
G01*
X141760000Y-145730000D01*
G75*
G02*
X141660000Y-145830000I-100000J0D01*
G01*
X141460000Y-145830000D01*
G75*
G02*
X141360000Y-145730000I0J100000D01*
G01*
X141360000Y-144455000D01*
G75*
G02*
X141460000Y-144355000I100000J0D01*
G01*
G37*
G04 #@! TD*
G04 #@! TO.C,U942*
G36*
G01*
X84310000Y-150080000D02*
X84510000Y-150080000D01*
G75*
G02*
X84610000Y-150180000I0J-100000D01*
G01*
X84610000Y-151455000D01*
G75*
G02*
X84510000Y-151555000I-100000J0D01*
G01*
X84310000Y-151555000D01*
G75*
G02*
X84210000Y-151455000I0J100000D01*
G01*
X84210000Y-150180000D01*
G75*
G02*
X84310000Y-150080000I100000J0D01*
G01*
G37*
G36*
G01*
X84960000Y-150080000D02*
X85160000Y-150080000D01*
G75*
G02*
X85260000Y-150180000I0J-100000D01*
G01*
X85260000Y-151455000D01*
G75*
G02*
X85160000Y-151555000I-100000J0D01*
G01*
X84960000Y-151555000D01*
G75*
G02*
X84860000Y-151455000I0J100000D01*
G01*
X84860000Y-150180000D01*
G75*
G02*
X84960000Y-150080000I100000J0D01*
G01*
G37*
G36*
G01*
X85610000Y-150080000D02*
X85810000Y-150080000D01*
G75*
G02*
X85910000Y-150180000I0J-100000D01*
G01*
X85910000Y-151455000D01*
G75*
G02*
X85810000Y-151555000I-100000J0D01*
G01*
X85610000Y-151555000D01*
G75*
G02*
X85510000Y-151455000I0J100000D01*
G01*
X85510000Y-150180000D01*
G75*
G02*
X85610000Y-150080000I100000J0D01*
G01*
G37*
G36*
G01*
X86260000Y-150080000D02*
X86460000Y-150080000D01*
G75*
G02*
X86560000Y-150180000I0J-100000D01*
G01*
X86560000Y-151455000D01*
G75*
G02*
X86460000Y-151555000I-100000J0D01*
G01*
X86260000Y-151555000D01*
G75*
G02*
X86160000Y-151455000I0J100000D01*
G01*
X86160000Y-150180000D01*
G75*
G02*
X86260000Y-150080000I100000J0D01*
G01*
G37*
G36*
G01*
X86910000Y-150080000D02*
X87110000Y-150080000D01*
G75*
G02*
X87210000Y-150180000I0J-100000D01*
G01*
X87210000Y-151455000D01*
G75*
G02*
X87110000Y-151555000I-100000J0D01*
G01*
X86910000Y-151555000D01*
G75*
G02*
X86810000Y-151455000I0J100000D01*
G01*
X86810000Y-150180000D01*
G75*
G02*
X86910000Y-150080000I100000J0D01*
G01*
G37*
G36*
G01*
X87560000Y-150080000D02*
X87760000Y-150080000D01*
G75*
G02*
X87860000Y-150180000I0J-100000D01*
G01*
X87860000Y-151455000D01*
G75*
G02*
X87760000Y-151555000I-100000J0D01*
G01*
X87560000Y-151555000D01*
G75*
G02*
X87460000Y-151455000I0J100000D01*
G01*
X87460000Y-150180000D01*
G75*
G02*
X87560000Y-150080000I100000J0D01*
G01*
G37*
G36*
G01*
X88210000Y-150080000D02*
X88410000Y-150080000D01*
G75*
G02*
X88510000Y-150180000I0J-100000D01*
G01*
X88510000Y-151455000D01*
G75*
G02*
X88410000Y-151555000I-100000J0D01*
G01*
X88210000Y-151555000D01*
G75*
G02*
X88110000Y-151455000I0J100000D01*
G01*
X88110000Y-150180000D01*
G75*
G02*
X88210000Y-150080000I100000J0D01*
G01*
G37*
G36*
G01*
X88210000Y-144355000D02*
X88410000Y-144355000D01*
G75*
G02*
X88510000Y-144455000I0J-100000D01*
G01*
X88510000Y-145730000D01*
G75*
G02*
X88410000Y-145830000I-100000J0D01*
G01*
X88210000Y-145830000D01*
G75*
G02*
X88110000Y-145730000I0J100000D01*
G01*
X88110000Y-144455000D01*
G75*
G02*
X88210000Y-144355000I100000J0D01*
G01*
G37*
G36*
G01*
X87560000Y-144355000D02*
X87760000Y-144355000D01*
G75*
G02*
X87860000Y-144455000I0J-100000D01*
G01*
X87860000Y-145730000D01*
G75*
G02*
X87760000Y-145830000I-100000J0D01*
G01*
X87560000Y-145830000D01*
G75*
G02*
X87460000Y-145730000I0J100000D01*
G01*
X87460000Y-144455000D01*
G75*
G02*
X87560000Y-144355000I100000J0D01*
G01*
G37*
G36*
G01*
X86910000Y-144355000D02*
X87110000Y-144355000D01*
G75*
G02*
X87210000Y-144455000I0J-100000D01*
G01*
X87210000Y-145730000D01*
G75*
G02*
X87110000Y-145830000I-100000J0D01*
G01*
X86910000Y-145830000D01*
G75*
G02*
X86810000Y-145730000I0J100000D01*
G01*
X86810000Y-144455000D01*
G75*
G02*
X86910000Y-144355000I100000J0D01*
G01*
G37*
G36*
G01*
X86260000Y-144355000D02*
X86460000Y-144355000D01*
G75*
G02*
X86560000Y-144455000I0J-100000D01*
G01*
X86560000Y-145730000D01*
G75*
G02*
X86460000Y-145830000I-100000J0D01*
G01*
X86260000Y-145830000D01*
G75*
G02*
X86160000Y-145730000I0J100000D01*
G01*
X86160000Y-144455000D01*
G75*
G02*
X86260000Y-144355000I100000J0D01*
G01*
G37*
G36*
G01*
X85610000Y-144355000D02*
X85810000Y-144355000D01*
G75*
G02*
X85910000Y-144455000I0J-100000D01*
G01*
X85910000Y-145730000D01*
G75*
G02*
X85810000Y-145830000I-100000J0D01*
G01*
X85610000Y-145830000D01*
G75*
G02*
X85510000Y-145730000I0J100000D01*
G01*
X85510000Y-144455000D01*
G75*
G02*
X85610000Y-144355000I100000J0D01*
G01*
G37*
G36*
G01*
X84960000Y-144355000D02*
X85160000Y-144355000D01*
G75*
G02*
X85260000Y-144455000I0J-100000D01*
G01*
X85260000Y-145730000D01*
G75*
G02*
X85160000Y-145830000I-100000J0D01*
G01*
X84960000Y-145830000D01*
G75*
G02*
X84860000Y-145730000I0J100000D01*
G01*
X84860000Y-144455000D01*
G75*
G02*
X84960000Y-144355000I100000J0D01*
G01*
G37*
G36*
G01*
X84310000Y-144355000D02*
X84510000Y-144355000D01*
G75*
G02*
X84610000Y-144455000I0J-100000D01*
G01*
X84610000Y-145730000D01*
G75*
G02*
X84510000Y-145830000I-100000J0D01*
G01*
X84310000Y-145830000D01*
G75*
G02*
X84210000Y-145730000I0J100000D01*
G01*
X84210000Y-144455000D01*
G75*
G02*
X84310000Y-144355000I100000J0D01*
G01*
G37*
G04 #@! TD*
G04 #@! TO.C,U941*
G36*
G01*
X178798000Y-96867000D02*
X178998000Y-96867000D01*
G75*
G02*
X179098000Y-96967000I0J-100000D01*
G01*
X179098000Y-98242000D01*
G75*
G02*
X178998000Y-98342000I-100000J0D01*
G01*
X178798000Y-98342000D01*
G75*
G02*
X178698000Y-98242000I0J100000D01*
G01*
X178698000Y-96967000D01*
G75*
G02*
X178798000Y-96867000I100000J0D01*
G01*
G37*
G36*
G01*
X179448000Y-96867000D02*
X179648000Y-96867000D01*
G75*
G02*
X179748000Y-96967000I0J-100000D01*
G01*
X179748000Y-98242000D01*
G75*
G02*
X179648000Y-98342000I-100000J0D01*
G01*
X179448000Y-98342000D01*
G75*
G02*
X179348000Y-98242000I0J100000D01*
G01*
X179348000Y-96967000D01*
G75*
G02*
X179448000Y-96867000I100000J0D01*
G01*
G37*
G36*
G01*
X180098000Y-96867000D02*
X180298000Y-96867000D01*
G75*
G02*
X180398000Y-96967000I0J-100000D01*
G01*
X180398000Y-98242000D01*
G75*
G02*
X180298000Y-98342000I-100000J0D01*
G01*
X180098000Y-98342000D01*
G75*
G02*
X179998000Y-98242000I0J100000D01*
G01*
X179998000Y-96967000D01*
G75*
G02*
X180098000Y-96867000I100000J0D01*
G01*
G37*
G36*
G01*
X180748000Y-96867000D02*
X180948000Y-96867000D01*
G75*
G02*
X181048000Y-96967000I0J-100000D01*
G01*
X181048000Y-98242000D01*
G75*
G02*
X180948000Y-98342000I-100000J0D01*
G01*
X180748000Y-98342000D01*
G75*
G02*
X180648000Y-98242000I0J100000D01*
G01*
X180648000Y-96967000D01*
G75*
G02*
X180748000Y-96867000I100000J0D01*
G01*
G37*
G36*
G01*
X181398000Y-96867000D02*
X181598000Y-96867000D01*
G75*
G02*
X181698000Y-96967000I0J-100000D01*
G01*
X181698000Y-98242000D01*
G75*
G02*
X181598000Y-98342000I-100000J0D01*
G01*
X181398000Y-98342000D01*
G75*
G02*
X181298000Y-98242000I0J100000D01*
G01*
X181298000Y-96967000D01*
G75*
G02*
X181398000Y-96867000I100000J0D01*
G01*
G37*
G36*
G01*
X182048000Y-96867000D02*
X182248000Y-96867000D01*
G75*
G02*
X182348000Y-96967000I0J-100000D01*
G01*
X182348000Y-98242000D01*
G75*
G02*
X182248000Y-98342000I-100000J0D01*
G01*
X182048000Y-98342000D01*
G75*
G02*
X181948000Y-98242000I0J100000D01*
G01*
X181948000Y-96967000D01*
G75*
G02*
X182048000Y-96867000I100000J0D01*
G01*
G37*
G36*
G01*
X182698000Y-96867000D02*
X182898000Y-96867000D01*
G75*
G02*
X182998000Y-96967000I0J-100000D01*
G01*
X182998000Y-98242000D01*
G75*
G02*
X182898000Y-98342000I-100000J0D01*
G01*
X182698000Y-98342000D01*
G75*
G02*
X182598000Y-98242000I0J100000D01*
G01*
X182598000Y-96967000D01*
G75*
G02*
X182698000Y-96867000I100000J0D01*
G01*
G37*
G36*
G01*
X182698000Y-91142000D02*
X182898000Y-91142000D01*
G75*
G02*
X182998000Y-91242000I0J-100000D01*
G01*
X182998000Y-92517000D01*
G75*
G02*
X182898000Y-92617000I-100000J0D01*
G01*
X182698000Y-92617000D01*
G75*
G02*
X182598000Y-92517000I0J100000D01*
G01*
X182598000Y-91242000D01*
G75*
G02*
X182698000Y-91142000I100000J0D01*
G01*
G37*
G36*
G01*
X182048000Y-91142000D02*
X182248000Y-91142000D01*
G75*
G02*
X182348000Y-91242000I0J-100000D01*
G01*
X182348000Y-92517000D01*
G75*
G02*
X182248000Y-92617000I-100000J0D01*
G01*
X182048000Y-92617000D01*
G75*
G02*
X181948000Y-92517000I0J100000D01*
G01*
X181948000Y-91242000D01*
G75*
G02*
X182048000Y-91142000I100000J0D01*
G01*
G37*
G36*
G01*
X181398000Y-91142000D02*
X181598000Y-91142000D01*
G75*
G02*
X181698000Y-91242000I0J-100000D01*
G01*
X181698000Y-92517000D01*
G75*
G02*
X181598000Y-92617000I-100000J0D01*
G01*
X181398000Y-92617000D01*
G75*
G02*
X181298000Y-92517000I0J100000D01*
G01*
X181298000Y-91242000D01*
G75*
G02*
X181398000Y-91142000I100000J0D01*
G01*
G37*
G36*
G01*
X180748000Y-91142000D02*
X180948000Y-91142000D01*
G75*
G02*
X181048000Y-91242000I0J-100000D01*
G01*
X181048000Y-92517000D01*
G75*
G02*
X180948000Y-92617000I-100000J0D01*
G01*
X180748000Y-92617000D01*
G75*
G02*
X180648000Y-92517000I0J100000D01*
G01*
X180648000Y-91242000D01*
G75*
G02*
X180748000Y-91142000I100000J0D01*
G01*
G37*
G36*
G01*
X180098000Y-91142000D02*
X180298000Y-91142000D01*
G75*
G02*
X180398000Y-91242000I0J-100000D01*
G01*
X180398000Y-92517000D01*
G75*
G02*
X180298000Y-92617000I-100000J0D01*
G01*
X180098000Y-92617000D01*
G75*
G02*
X179998000Y-92517000I0J100000D01*
G01*
X179998000Y-91242000D01*
G75*
G02*
X180098000Y-91142000I100000J0D01*
G01*
G37*
G36*
G01*
X179448000Y-91142000D02*
X179648000Y-91142000D01*
G75*
G02*
X179748000Y-91242000I0J-100000D01*
G01*
X179748000Y-92517000D01*
G75*
G02*
X179648000Y-92617000I-100000J0D01*
G01*
X179448000Y-92617000D01*
G75*
G02*
X179348000Y-92517000I0J100000D01*
G01*
X179348000Y-91242000D01*
G75*
G02*
X179448000Y-91142000I100000J0D01*
G01*
G37*
G36*
G01*
X178798000Y-91142000D02*
X178998000Y-91142000D01*
G75*
G02*
X179098000Y-91242000I0J-100000D01*
G01*
X179098000Y-92517000D01*
G75*
G02*
X178998000Y-92617000I-100000J0D01*
G01*
X178798000Y-92617000D01*
G75*
G02*
X178698000Y-92517000I0J100000D01*
G01*
X178698000Y-91242000D01*
G75*
G02*
X178798000Y-91142000I100000J0D01*
G01*
G37*
G04 #@! TD*
G04 #@! TO.C,R964*
G36*
G01*
X274190000Y-113214999D02*
X274190000Y-114115001D01*
G75*
G02*
X273940001Y-114365000I-249999J0D01*
G01*
X273239999Y-114365000D01*
G75*
G02*
X272990000Y-114115001I0J249999D01*
G01*
X272990000Y-113214999D01*
G75*
G02*
X273239999Y-112965000I249999J0D01*
G01*
X273940001Y-112965000D01*
G75*
G02*
X274190000Y-113214999I0J-249999D01*
G01*
G37*
G36*
G01*
X276190000Y-113214999D02*
X276190000Y-114115001D01*
G75*
G02*
X275940001Y-114365000I-249999J0D01*
G01*
X275239999Y-114365000D01*
G75*
G02*
X274990000Y-114115001I0J249999D01*
G01*
X274990000Y-113214999D01*
G75*
G02*
X275239999Y-112965000I249999J0D01*
G01*
X275940001Y-112965000D01*
G75*
G02*
X276190000Y-113214999I0J-249999D01*
G01*
G37*
G04 #@! TD*
G04 #@! TO.C,R963*
G36*
G01*
X274190000Y-104959999D02*
X274190000Y-105860001D01*
G75*
G02*
X273940001Y-106110000I-249999J0D01*
G01*
X273239999Y-106110000D01*
G75*
G02*
X272990000Y-105860001I0J249999D01*
G01*
X272990000Y-104959999D01*
G75*
G02*
X273239999Y-104710000I249999J0D01*
G01*
X273940001Y-104710000D01*
G75*
G02*
X274190000Y-104959999I0J-249999D01*
G01*
G37*
G36*
G01*
X276190000Y-104959999D02*
X276190000Y-105860001D01*
G75*
G02*
X275940001Y-106110000I-249999J0D01*
G01*
X275239999Y-106110000D01*
G75*
G02*
X274990000Y-105860001I0J249999D01*
G01*
X274990000Y-104959999D01*
G75*
G02*
X275239999Y-104710000I249999J0D01*
G01*
X275940001Y-104710000D01*
G75*
G02*
X276190000Y-104959999I0J-249999D01*
G01*
G37*
G04 #@! TD*
G04 #@! TO.C,R962*
G36*
G01*
X274190000Y-96704999D02*
X274190000Y-97605001D01*
G75*
G02*
X273940001Y-97855000I-249999J0D01*
G01*
X273239999Y-97855000D01*
G75*
G02*
X272990000Y-97605001I0J249999D01*
G01*
X272990000Y-96704999D01*
G75*
G02*
X273239999Y-96455000I249999J0D01*
G01*
X273940001Y-96455000D01*
G75*
G02*
X274190000Y-96704999I0J-249999D01*
G01*
G37*
G36*
G01*
X276190000Y-96704999D02*
X276190000Y-97605001D01*
G75*
G02*
X275940001Y-97855000I-249999J0D01*
G01*
X275239999Y-97855000D01*
G75*
G02*
X274990000Y-97605001I0J249999D01*
G01*
X274990000Y-96704999D01*
G75*
G02*
X275239999Y-96455000I249999J0D01*
G01*
X275940001Y-96455000D01*
G75*
G02*
X276190000Y-96704999I0J-249999D01*
G01*
G37*
G04 #@! TD*
G04 #@! TO.C,R961*
G36*
G01*
X274190000Y-88449999D02*
X274190000Y-89350001D01*
G75*
G02*
X273940001Y-89600000I-249999J0D01*
G01*
X273239999Y-89600000D01*
G75*
G02*
X272990000Y-89350001I0J249999D01*
G01*
X272990000Y-88449999D01*
G75*
G02*
X273239999Y-88200000I249999J0D01*
G01*
X273940001Y-88200000D01*
G75*
G02*
X274190000Y-88449999I0J-249999D01*
G01*
G37*
G36*
G01*
X276190000Y-88449999D02*
X276190000Y-89350001D01*
G75*
G02*
X275940001Y-89600000I-249999J0D01*
G01*
X275239999Y-89600000D01*
G75*
G02*
X274990000Y-89350001I0J249999D01*
G01*
X274990000Y-88449999D01*
G75*
G02*
X275239999Y-88200000I249999J0D01*
G01*
X275940001Y-88200000D01*
G75*
G02*
X276190000Y-88449999I0J-249999D01*
G01*
G37*
G04 #@! TD*
G04 #@! TO.C,R960*
G36*
G01*
X274190000Y-80194999D02*
X274190000Y-81095001D01*
G75*
G02*
X273940001Y-81345000I-249999J0D01*
G01*
X273239999Y-81345000D01*
G75*
G02*
X272990000Y-81095001I0J249999D01*
G01*
X272990000Y-80194999D01*
G75*
G02*
X273239999Y-79945000I249999J0D01*
G01*
X273940001Y-79945000D01*
G75*
G02*
X274190000Y-80194999I0J-249999D01*
G01*
G37*
G36*
G01*
X276190000Y-80194999D02*
X276190000Y-81095001D01*
G75*
G02*
X275940001Y-81345000I-249999J0D01*
G01*
X275239999Y-81345000D01*
G75*
G02*
X274990000Y-81095001I0J249999D01*
G01*
X274990000Y-80194999D01*
G75*
G02*
X275239999Y-79945000I249999J0D01*
G01*
X275940001Y-79945000D01*
G75*
G02*
X276190000Y-80194999I0J-249999D01*
G01*
G37*
G04 #@! TD*
G04 #@! TO.C,R959*
G36*
G01*
X274190000Y-71939999D02*
X274190000Y-72840001D01*
G75*
G02*
X273940001Y-73090000I-249999J0D01*
G01*
X273239999Y-73090000D01*
G75*
G02*
X272990000Y-72840001I0J249999D01*
G01*
X272990000Y-71939999D01*
G75*
G02*
X273239999Y-71690000I249999J0D01*
G01*
X273940001Y-71690000D01*
G75*
G02*
X274190000Y-71939999I0J-249999D01*
G01*
G37*
G36*
G01*
X276190000Y-71939999D02*
X276190000Y-72840001D01*
G75*
G02*
X275940001Y-73090000I-249999J0D01*
G01*
X275239999Y-73090000D01*
G75*
G02*
X274990000Y-72840001I0J249999D01*
G01*
X274990000Y-71939999D01*
G75*
G02*
X275239999Y-71690000I249999J0D01*
G01*
X275940001Y-71690000D01*
G75*
G02*
X276190000Y-71939999I0J-249999D01*
G01*
G37*
G04 #@! TD*
G04 #@! TO.C,R958*
G36*
G01*
X274190000Y-63684999D02*
X274190000Y-64585001D01*
G75*
G02*
X273940001Y-64835000I-249999J0D01*
G01*
X273239999Y-64835000D01*
G75*
G02*
X272990000Y-64585001I0J249999D01*
G01*
X272990000Y-63684999D01*
G75*
G02*
X273239999Y-63435000I249999J0D01*
G01*
X273940001Y-63435000D01*
G75*
G02*
X274190000Y-63684999I0J-249999D01*
G01*
G37*
G36*
G01*
X276190000Y-63684999D02*
X276190000Y-64585001D01*
G75*
G02*
X275940001Y-64835000I-249999J0D01*
G01*
X275239999Y-64835000D01*
G75*
G02*
X274990000Y-64585001I0J249999D01*
G01*
X274990000Y-63684999D01*
G75*
G02*
X275239999Y-63435000I249999J0D01*
G01*
X275940001Y-63435000D01*
G75*
G02*
X276190000Y-63684999I0J-249999D01*
G01*
G37*
G04 #@! TD*
G04 #@! TO.C,R957*
G36*
G01*
X274190000Y-55429999D02*
X274190000Y-56330001D01*
G75*
G02*
X273940001Y-56580000I-249999J0D01*
G01*
X273239999Y-56580000D01*
G75*
G02*
X272990000Y-56330001I0J249999D01*
G01*
X272990000Y-55429999D01*
G75*
G02*
X273239999Y-55180000I249999J0D01*
G01*
X273940001Y-55180000D01*
G75*
G02*
X274190000Y-55429999I0J-249999D01*
G01*
G37*
G36*
G01*
X276190000Y-55429999D02*
X276190000Y-56330001D01*
G75*
G02*
X275940001Y-56580000I-249999J0D01*
G01*
X275239999Y-56580000D01*
G75*
G02*
X274990000Y-56330001I0J249999D01*
G01*
X274990000Y-55429999D01*
G75*
G02*
X275239999Y-55180000I249999J0D01*
G01*
X275940001Y-55180000D01*
G75*
G02*
X276190000Y-55429999I0J-249999D01*
G01*
G37*
G04 #@! TD*
G04 #@! TO.C,R956*
G36*
G01*
X274190000Y-141789999D02*
X274190000Y-142690001D01*
G75*
G02*
X273940001Y-142940000I-249999J0D01*
G01*
X273239999Y-142940000D01*
G75*
G02*
X272990000Y-142690001I0J249999D01*
G01*
X272990000Y-141789999D01*
G75*
G02*
X273239999Y-141540000I249999J0D01*
G01*
X273940001Y-141540000D01*
G75*
G02*
X274190000Y-141789999I0J-249999D01*
G01*
G37*
G36*
G01*
X276190000Y-141789999D02*
X276190000Y-142690001D01*
G75*
G02*
X275940001Y-142940000I-249999J0D01*
G01*
X275239999Y-142940000D01*
G75*
G02*
X274990000Y-142690001I0J249999D01*
G01*
X274990000Y-141789999D01*
G75*
G02*
X275239999Y-141540000I249999J0D01*
G01*
X275940001Y-141540000D01*
G75*
G02*
X276190000Y-141789999I0J-249999D01*
G01*
G37*
G04 #@! TD*
G04 #@! TO.C,R955*
G36*
G01*
X274190000Y-133534999D02*
X274190000Y-134435001D01*
G75*
G02*
X273940001Y-134685000I-249999J0D01*
G01*
X273239999Y-134685000D01*
G75*
G02*
X272990000Y-134435001I0J249999D01*
G01*
X272990000Y-133534999D01*
G75*
G02*
X273239999Y-133285000I249999J0D01*
G01*
X273940001Y-133285000D01*
G75*
G02*
X274190000Y-133534999I0J-249999D01*
G01*
G37*
G36*
G01*
X276190000Y-133534999D02*
X276190000Y-134435001D01*
G75*
G02*
X275940001Y-134685000I-249999J0D01*
G01*
X275239999Y-134685000D01*
G75*
G02*
X274990000Y-134435001I0J249999D01*
G01*
X274990000Y-133534999D01*
G75*
G02*
X275239999Y-133285000I249999J0D01*
G01*
X275940001Y-133285000D01*
G75*
G02*
X276190000Y-133534999I0J-249999D01*
G01*
G37*
G04 #@! TD*
G04 #@! TO.C,R954*
G36*
G01*
X274190000Y-125279999D02*
X274190000Y-126180001D01*
G75*
G02*
X273940001Y-126430000I-249999J0D01*
G01*
X273239999Y-126430000D01*
G75*
G02*
X272990000Y-126180001I0J249999D01*
G01*
X272990000Y-125279999D01*
G75*
G02*
X273239999Y-125030000I249999J0D01*
G01*
X273940001Y-125030000D01*
G75*
G02*
X274190000Y-125279999I0J-249999D01*
G01*
G37*
G36*
G01*
X276190000Y-125279999D02*
X276190000Y-126180001D01*
G75*
G02*
X275940001Y-126430000I-249999J0D01*
G01*
X275239999Y-126430000D01*
G75*
G02*
X274990000Y-126180001I0J249999D01*
G01*
X274990000Y-125279999D01*
G75*
G02*
X275239999Y-125030000I249999J0D01*
G01*
X275940001Y-125030000D01*
G75*
G02*
X276190000Y-125279999I0J-249999D01*
G01*
G37*
G04 #@! TD*
G04 #@! TO.C,R953*
G36*
G01*
X274190000Y-117024999D02*
X274190000Y-117925001D01*
G75*
G02*
X273940001Y-118175000I-249999J0D01*
G01*
X273239999Y-118175000D01*
G75*
G02*
X272990000Y-117925001I0J249999D01*
G01*
X272990000Y-117024999D01*
G75*
G02*
X273239999Y-116775000I249999J0D01*
G01*
X273940001Y-116775000D01*
G75*
G02*
X274190000Y-117024999I0J-249999D01*
G01*
G37*
G36*
G01*
X276190000Y-117024999D02*
X276190000Y-117925001D01*
G75*
G02*
X275940001Y-118175000I-249999J0D01*
G01*
X275239999Y-118175000D01*
G75*
G02*
X274990000Y-117925001I0J249999D01*
G01*
X274990000Y-117024999D01*
G75*
G02*
X275239999Y-116775000I249999J0D01*
G01*
X275940001Y-116775000D01*
G75*
G02*
X276190000Y-117024999I0J-249999D01*
G01*
G37*
G04 #@! TD*
G04 #@! TO.C,R952*
G36*
G01*
X274285000Y-108769999D02*
X274285000Y-109670001D01*
G75*
G02*
X274035001Y-109920000I-249999J0D01*
G01*
X273334999Y-109920000D01*
G75*
G02*
X273085000Y-109670001I0J249999D01*
G01*
X273085000Y-108769999D01*
G75*
G02*
X273334999Y-108520000I249999J0D01*
G01*
X274035001Y-108520000D01*
G75*
G02*
X274285000Y-108769999I0J-249999D01*
G01*
G37*
G36*
G01*
X276285000Y-108769999D02*
X276285000Y-109670001D01*
G75*
G02*
X276035001Y-109920000I-249999J0D01*
G01*
X275334999Y-109920000D01*
G75*
G02*
X275085000Y-109670001I0J249999D01*
G01*
X275085000Y-108769999D01*
G75*
G02*
X275334999Y-108520000I249999J0D01*
G01*
X276035001Y-108520000D01*
G75*
G02*
X276285000Y-108769999I0J-249999D01*
G01*
G37*
G04 #@! TD*
G04 #@! TO.C,R951*
G36*
G01*
X274190000Y-100514999D02*
X274190000Y-101415001D01*
G75*
G02*
X273940001Y-101665000I-249999J0D01*
G01*
X273239999Y-101665000D01*
G75*
G02*
X272990000Y-101415001I0J249999D01*
G01*
X272990000Y-100514999D01*
G75*
G02*
X273239999Y-100265000I249999J0D01*
G01*
X273940001Y-100265000D01*
G75*
G02*
X274190000Y-100514999I0J-249999D01*
G01*
G37*
G36*
G01*
X276190000Y-100514999D02*
X276190000Y-101415001D01*
G75*
G02*
X275940001Y-101665000I-249999J0D01*
G01*
X275239999Y-101665000D01*
G75*
G02*
X274990000Y-101415001I0J249999D01*
G01*
X274990000Y-100514999D01*
G75*
G02*
X275239999Y-100265000I249999J0D01*
G01*
X275940001Y-100265000D01*
G75*
G02*
X276190000Y-100514999I0J-249999D01*
G01*
G37*
G04 #@! TD*
G04 #@! TO.C,R950*
G36*
G01*
X274285000Y-92259999D02*
X274285000Y-93160001D01*
G75*
G02*
X274035001Y-93410000I-249999J0D01*
G01*
X273334999Y-93410000D01*
G75*
G02*
X273085000Y-93160001I0J249999D01*
G01*
X273085000Y-92259999D01*
G75*
G02*
X273334999Y-92010000I249999J0D01*
G01*
X274035001Y-92010000D01*
G75*
G02*
X274285000Y-92259999I0J-249999D01*
G01*
G37*
G36*
G01*
X276285000Y-92259999D02*
X276285000Y-93160001D01*
G75*
G02*
X276035001Y-93410000I-249999J0D01*
G01*
X275334999Y-93410000D01*
G75*
G02*
X275085000Y-93160001I0J249999D01*
G01*
X275085000Y-92259999D01*
G75*
G02*
X275334999Y-92010000I249999J0D01*
G01*
X276035001Y-92010000D01*
G75*
G02*
X276285000Y-92259999I0J-249999D01*
G01*
G37*
G04 #@! TD*
G04 #@! TO.C,R949*
G36*
G01*
X274285000Y-84004999D02*
X274285000Y-84905001D01*
G75*
G02*
X274035001Y-85155000I-249999J0D01*
G01*
X273334999Y-85155000D01*
G75*
G02*
X273085000Y-84905001I0J249999D01*
G01*
X273085000Y-84004999D01*
G75*
G02*
X273334999Y-83755000I249999J0D01*
G01*
X274035001Y-83755000D01*
G75*
G02*
X274285000Y-84004999I0J-249999D01*
G01*
G37*
G36*
G01*
X276285000Y-84004999D02*
X276285000Y-84905001D01*
G75*
G02*
X276035001Y-85155000I-249999J0D01*
G01*
X275334999Y-85155000D01*
G75*
G02*
X275085000Y-84905001I0J249999D01*
G01*
X275085000Y-84004999D01*
G75*
G02*
X275334999Y-83755000I249999J0D01*
G01*
X276035001Y-83755000D01*
G75*
G02*
X276285000Y-84004999I0J-249999D01*
G01*
G37*
G04 #@! TD*
G04 #@! TO.C,R948*
G36*
G01*
X274190000Y-75749999D02*
X274190000Y-76650001D01*
G75*
G02*
X273940001Y-76900000I-249999J0D01*
G01*
X273239999Y-76900000D01*
G75*
G02*
X272990000Y-76650001I0J249999D01*
G01*
X272990000Y-75749999D01*
G75*
G02*
X273239999Y-75500000I249999J0D01*
G01*
X273940001Y-75500000D01*
G75*
G02*
X274190000Y-75749999I0J-249999D01*
G01*
G37*
G36*
G01*
X276190000Y-75749999D02*
X276190000Y-76650001D01*
G75*
G02*
X275940001Y-76900000I-249999J0D01*
G01*
X275239999Y-76900000D01*
G75*
G02*
X274990000Y-76650001I0J249999D01*
G01*
X274990000Y-75749999D01*
G75*
G02*
X275239999Y-75500000I249999J0D01*
G01*
X275940001Y-75500000D01*
G75*
G02*
X276190000Y-75749999I0J-249999D01*
G01*
G37*
G04 #@! TD*
G04 #@! TO.C,R947*
G36*
G01*
X274285000Y-67494999D02*
X274285000Y-68395001D01*
G75*
G02*
X274035001Y-68645000I-249999J0D01*
G01*
X273334999Y-68645000D01*
G75*
G02*
X273085000Y-68395001I0J249999D01*
G01*
X273085000Y-67494999D01*
G75*
G02*
X273334999Y-67245000I249999J0D01*
G01*
X274035001Y-67245000D01*
G75*
G02*
X274285000Y-67494999I0J-249999D01*
G01*
G37*
G36*
G01*
X276285000Y-67494999D02*
X276285000Y-68395001D01*
G75*
G02*
X276035001Y-68645000I-249999J0D01*
G01*
X275334999Y-68645000D01*
G75*
G02*
X275085000Y-68395001I0J249999D01*
G01*
X275085000Y-67494999D01*
G75*
G02*
X275334999Y-67245000I249999J0D01*
G01*
X276035001Y-67245000D01*
G75*
G02*
X276285000Y-67494999I0J-249999D01*
G01*
G37*
G04 #@! TD*
G04 #@! TO.C,R946*
G36*
G01*
X274190000Y-59239999D02*
X274190000Y-60140001D01*
G75*
G02*
X273940001Y-60390000I-249999J0D01*
G01*
X273239999Y-60390000D01*
G75*
G02*
X272990000Y-60140001I0J249999D01*
G01*
X272990000Y-59239999D01*
G75*
G02*
X273239999Y-58990000I249999J0D01*
G01*
X273940001Y-58990000D01*
G75*
G02*
X274190000Y-59239999I0J-249999D01*
G01*
G37*
G36*
G01*
X276190000Y-59239999D02*
X276190000Y-60140001D01*
G75*
G02*
X275940001Y-60390000I-249999J0D01*
G01*
X275239999Y-60390000D01*
G75*
G02*
X274990000Y-60140001I0J249999D01*
G01*
X274990000Y-59239999D01*
G75*
G02*
X275239999Y-58990000I249999J0D01*
G01*
X275940001Y-58990000D01*
G75*
G02*
X276190000Y-59239999I0J-249999D01*
G01*
G37*
G04 #@! TD*
G04 #@! TO.C,R945*
G36*
G01*
X274190000Y-50984999D02*
X274190000Y-51885001D01*
G75*
G02*
X273940001Y-52135000I-249999J0D01*
G01*
X273239999Y-52135000D01*
G75*
G02*
X272990000Y-51885001I0J249999D01*
G01*
X272990000Y-50984999D01*
G75*
G02*
X273239999Y-50735000I249999J0D01*
G01*
X273940001Y-50735000D01*
G75*
G02*
X274190000Y-50984999I0J-249999D01*
G01*
G37*
G36*
G01*
X276190000Y-50984999D02*
X276190000Y-51885001D01*
G75*
G02*
X275940001Y-52135000I-249999J0D01*
G01*
X275239999Y-52135000D01*
G75*
G02*
X274990000Y-51885001I0J249999D01*
G01*
X274990000Y-50984999D01*
G75*
G02*
X275239999Y-50735000I249999J0D01*
G01*
X275940001Y-50735000D01*
G75*
G02*
X276190000Y-50984999I0J-249999D01*
G01*
G37*
G04 #@! TD*
G04 #@! TO.C,R944*
G36*
G01*
X274190000Y-146234999D02*
X274190000Y-147135001D01*
G75*
G02*
X273940001Y-147385000I-249999J0D01*
G01*
X273239999Y-147385000D01*
G75*
G02*
X272990000Y-147135001I0J249999D01*
G01*
X272990000Y-146234999D01*
G75*
G02*
X273239999Y-145985000I249999J0D01*
G01*
X273940001Y-145985000D01*
G75*
G02*
X274190000Y-146234999I0J-249999D01*
G01*
G37*
G36*
G01*
X276190000Y-146234999D02*
X276190000Y-147135001D01*
G75*
G02*
X275940001Y-147385000I-249999J0D01*
G01*
X275239999Y-147385000D01*
G75*
G02*
X274990000Y-147135001I0J249999D01*
G01*
X274990000Y-146234999D01*
G75*
G02*
X275239999Y-145985000I249999J0D01*
G01*
X275940001Y-145985000D01*
G75*
G02*
X276190000Y-146234999I0J-249999D01*
G01*
G37*
G04 #@! TD*
G04 #@! TO.C,R943*
G36*
G01*
X274190000Y-137979999D02*
X274190000Y-138880001D01*
G75*
G02*
X273940001Y-139130000I-249999J0D01*
G01*
X273239999Y-139130000D01*
G75*
G02*
X272990000Y-138880001I0J249999D01*
G01*
X272990000Y-137979999D01*
G75*
G02*
X273239999Y-137730000I249999J0D01*
G01*
X273940001Y-137730000D01*
G75*
G02*
X274190000Y-137979999I0J-249999D01*
G01*
G37*
G36*
G01*
X276190000Y-137979999D02*
X276190000Y-138880001D01*
G75*
G02*
X275940001Y-139130000I-249999J0D01*
G01*
X275239999Y-139130000D01*
G75*
G02*
X274990000Y-138880001I0J249999D01*
G01*
X274990000Y-137979999D01*
G75*
G02*
X275239999Y-137730000I249999J0D01*
G01*
X275940001Y-137730000D01*
G75*
G02*
X276190000Y-137979999I0J-249999D01*
G01*
G37*
G04 #@! TD*
G04 #@! TO.C,R942*
G36*
G01*
X274190000Y-129724999D02*
X274190000Y-130625001D01*
G75*
G02*
X273940001Y-130875000I-249999J0D01*
G01*
X273239999Y-130875000D01*
G75*
G02*
X272990000Y-130625001I0J249999D01*
G01*
X272990000Y-129724999D01*
G75*
G02*
X273239999Y-129475000I249999J0D01*
G01*
X273940001Y-129475000D01*
G75*
G02*
X274190000Y-129724999I0J-249999D01*
G01*
G37*
G36*
G01*
X276190000Y-129724999D02*
X276190000Y-130625001D01*
G75*
G02*
X275940001Y-130875000I-249999J0D01*
G01*
X275239999Y-130875000D01*
G75*
G02*
X274990000Y-130625001I0J249999D01*
G01*
X274990000Y-129724999D01*
G75*
G02*
X275239999Y-129475000I249999J0D01*
G01*
X275940001Y-129475000D01*
G75*
G02*
X276190000Y-129724999I0J-249999D01*
G01*
G37*
G04 #@! TD*
G04 #@! TO.C,R941*
G36*
G01*
X274190000Y-121469999D02*
X274190000Y-122370001D01*
G75*
G02*
X273940001Y-122620000I-249999J0D01*
G01*
X273239999Y-122620000D01*
G75*
G02*
X272990000Y-122370001I0J249999D01*
G01*
X272990000Y-121469999D01*
G75*
G02*
X273239999Y-121220000I249999J0D01*
G01*
X273940001Y-121220000D01*
G75*
G02*
X274190000Y-121469999I0J-249999D01*
G01*
G37*
G36*
G01*
X276190000Y-121469999D02*
X276190000Y-122370001D01*
G75*
G02*
X275940001Y-122620000I-249999J0D01*
G01*
X275239999Y-122620000D01*
G75*
G02*
X274990000Y-122370001I0J249999D01*
G01*
X274990000Y-121469999D01*
G75*
G02*
X275239999Y-121220000I249999J0D01*
G01*
X275940001Y-121220000D01*
G75*
G02*
X276190000Y-121469999I0J-249999D01*
G01*
G37*
G04 #@! TD*
D23*
G04 #@! TO.C,D956*
X280670000Y-144410000D03*
D24*
X280670000Y-146510000D03*
X280670000Y-142310000D03*
G04 #@! TD*
D23*
G04 #@! TO.C,D955*
X280670000Y-136155000D03*
D24*
X280670000Y-138255000D03*
X280670000Y-134055000D03*
G04 #@! TD*
D23*
G04 #@! TO.C,D954*
X280670000Y-127900000D03*
D24*
X280670000Y-130000000D03*
X280670000Y-125800000D03*
G04 #@! TD*
D23*
G04 #@! TO.C,D953*
X280670000Y-119645000D03*
D24*
X280670000Y-121745000D03*
X280670000Y-117545000D03*
G04 #@! TD*
D23*
G04 #@! TO.C,D952*
X280670000Y-111390000D03*
D24*
X280670000Y-113490000D03*
X280670000Y-109290000D03*
G04 #@! TD*
D23*
G04 #@! TO.C,D951*
X280670000Y-103135000D03*
D24*
X280670000Y-105235000D03*
X280670000Y-101035000D03*
G04 #@! TD*
D23*
G04 #@! TO.C,D950*
X280670000Y-94880000D03*
D24*
X280670000Y-96980000D03*
X280670000Y-92780000D03*
G04 #@! TD*
D23*
G04 #@! TO.C,D949*
X280670000Y-86625000D03*
D24*
X280670000Y-88725000D03*
X280670000Y-84525000D03*
G04 #@! TD*
D23*
G04 #@! TO.C,D948*
X280670000Y-78370000D03*
D24*
X280670000Y-80470000D03*
X280670000Y-76270000D03*
G04 #@! TD*
D23*
G04 #@! TO.C,D947*
X280670000Y-70115000D03*
D24*
X280670000Y-72215000D03*
X280670000Y-68015000D03*
G04 #@! TD*
D23*
G04 #@! TO.C,D946*
X280670000Y-61860000D03*
D24*
X280670000Y-63960000D03*
X280670000Y-59760000D03*
G04 #@! TD*
D23*
G04 #@! TO.C,D945*
X280670000Y-53605000D03*
D24*
X280670000Y-55705000D03*
X280670000Y-51505000D03*
G04 #@! TD*
D25*
G04 #@! TO.C,J4B1*
X17780000Y-37615000D03*
X17780000Y-140575000D03*
X17780000Y-136615000D03*
X17780000Y-132655000D03*
X17780000Y-128695000D03*
X17780000Y-124735000D03*
X17780000Y-120775000D03*
X17780000Y-116815000D03*
X17780000Y-112855000D03*
X17780000Y-108895000D03*
X17780000Y-104935000D03*
X17780000Y-100975000D03*
X17780000Y-97015000D03*
X17780000Y-93055000D03*
X17780000Y-89095000D03*
X17780000Y-85135000D03*
X17780000Y-81175000D03*
X17780000Y-77215000D03*
X17780000Y-73255000D03*
X17780000Y-69295000D03*
X17780000Y-65335000D03*
X17780000Y-61375000D03*
X17780000Y-57415000D03*
X17780000Y-53455000D03*
X17780000Y-49495000D03*
X17780000Y-45535000D03*
X17780000Y-41575000D03*
X17780000Y-33655000D03*
G04 #@! TD*
D26*
G04 #@! TO.C,CR2*
X200000000Y-76835000D03*
D27*
X200000000Y-84455000D03*
G04 #@! TD*
D26*
G04 #@! TO.C,CR1*
X197485000Y-84455000D03*
D27*
X197485000Y-76835000D03*
G04 #@! TD*
D28*
G04 #@! TO.C,Y1*
X251640000Y-53340000D03*
X256540000Y-53340000D03*
G04 #@! TD*
D29*
G04 #@! TO.C,Q2*
X252095000Y-81915000D03*
X253365000Y-80645000D03*
D30*
X254635000Y-81915000D03*
G04 #@! TD*
D29*
G04 #@! TO.C,Q1*
X252095000Y-71120000D03*
X253365000Y-69850000D03*
D30*
X254635000Y-71120000D03*
G04 #@! TD*
D31*
G04 #@! TO.C,L1*
X261620000Y-58420000D03*
D32*
X261620000Y-71120000D03*
G04 #@! TD*
D21*
G04 #@! TO.C,C9*
X223520000Y-79415000D03*
D22*
X223520000Y-81915000D03*
G04 #@! TD*
D33*
G04 #@! TO.C,Z20*
X85090000Y-84455000D03*
X77470000Y-76835000D03*
X82550000Y-84455000D03*
X80010000Y-76835000D03*
X80010000Y-84455000D03*
X82550000Y-76835000D03*
X77470000Y-84455000D03*
D22*
X85090000Y-76835000D03*
G04 #@! TD*
D33*
G04 #@! TO.C,Z4*
X216535000Y-84455000D03*
X208915000Y-76835000D03*
X213995000Y-84455000D03*
X211455000Y-76835000D03*
X211455000Y-84455000D03*
X213995000Y-76835000D03*
X208915000Y-84455000D03*
D22*
X216535000Y-76835000D03*
G04 #@! TD*
D21*
G04 #@! TO.C,C26*
X97155000Y-140890000D03*
X97155000Y-135890000D03*
G04 #@! TD*
G04 #@! TO.C,C25*
X154305000Y-135970000D03*
X154305000Y-140970000D03*
G04 #@! TD*
G04 #@! TO.C,C24*
X189865000Y-135890000D03*
X189865000Y-140890000D03*
G04 #@! TD*
G04 #@! TO.C,C23*
X188595000Y-78105000D03*
X188595000Y-83105000D03*
G04 #@! TD*
G04 #@! TO.C,C22*
X250110000Y-95250000D03*
X245110000Y-95250000D03*
G04 #@! TD*
G04 #@! TO.C,C21*
X230505000Y-97870000D03*
X230505000Y-102870000D03*
G04 #@! TD*
G04 #@! TO.C,C20*
X41315000Y-35560000D03*
D22*
X43815000Y-35560000D03*
G04 #@! TD*
D21*
G04 #@! TO.C,C19*
X45640000Y-29210000D03*
X40640000Y-29210000D03*
G04 #@! TD*
G04 #@! TO.C,C17*
X72390000Y-37385000D03*
X72390000Y-32385000D03*
G04 #@! TD*
G04 #@! TO.C,C16*
X189865000Y-32385000D03*
X189865000Y-37385000D03*
G04 #@! TD*
G04 #@! TO.C,C15*
X223520000Y-33655000D03*
D22*
X223520000Y-36155000D03*
G04 #@! TD*
D21*
G04 #@! TO.C,C14*
X97155000Y-57705000D03*
X97155000Y-52705000D03*
G04 #@! TD*
G04 #@! TO.C,C13*
X220980000Y-52705000D03*
X220980000Y-57705000D03*
G04 #@! TD*
G04 #@! TO.C,C12*
X89535000Y-83105000D03*
X89535000Y-78105000D03*
G04 #@! TD*
G04 #@! TO.C,C11*
X154305000Y-83105000D03*
X154305000Y-78105000D03*
G04 #@! TD*
G04 #@! TO.C,C10*
X188040000Y-70485000D03*
X193040000Y-70485000D03*
G04 #@! TD*
G04 #@! TO.C,C8*
X108585000Y-101640000D03*
D22*
X108585000Y-104140000D03*
G04 #@! TD*
D21*
G04 #@! TO.C,C7*
X156845000Y-108505000D03*
X156845000Y-103505000D03*
G04 #@! TD*
G04 #@! TO.C,C6*
X189865000Y-108585000D03*
X189865000Y-103585000D03*
G04 #@! TD*
G04 #@! TO.C,C5*
X220980000Y-108585000D03*
X220980000Y-103585000D03*
G04 #@! TD*
G04 #@! TO.C,C4*
X259080000Y-104815000D03*
D22*
X259080000Y-107315000D03*
G04 #@! TD*
D21*
G04 #@! TO.C,C3*
X261620000Y-76280000D03*
X261620000Y-81280000D03*
G04 #@! TD*
G04 #@! TO.C,C2*
X250905000Y-62230000D03*
X255905000Y-62230000D03*
G04 #@! TD*
G04 #@! TO.C,C1*
X255905000Y-58420000D03*
X250905000Y-58420000D03*
G04 #@! TD*
D33*
G04 #@! TO.C,R3*
X257175000Y-87630000D03*
D21*
X249555000Y-87630000D03*
G04 #@! TD*
D33*
G04 #@! TO.C,R28*
X69215000Y-31115000D03*
D21*
X69215000Y-38735000D03*
G04 #@! TD*
D33*
G04 #@! TO.C,R27*
X58420000Y-133985000D03*
D21*
X58420000Y-141605000D03*
G04 #@! TD*
D33*
G04 #@! TO.C,R26*
X61595000Y-133985000D03*
D21*
X61595000Y-141605000D03*
G04 #@! TD*
D33*
G04 #@! TO.C,R25*
X64770000Y-133985000D03*
D21*
X64770000Y-141605000D03*
G04 #@! TD*
D33*
G04 #@! TO.C,R24*
X67945000Y-133985000D03*
D21*
X67945000Y-141605000D03*
G04 #@! TD*
D33*
G04 #@! TO.C,R23*
X100330000Y-133985000D03*
D21*
X100330000Y-141605000D03*
G04 #@! TD*
D33*
G04 #@! TO.C,R22*
X103505000Y-133985000D03*
D21*
X103505000Y-141605000D03*
G04 #@! TD*
D33*
G04 #@! TO.C,R21*
X106680000Y-133985000D03*
D21*
X106680000Y-141605000D03*
G04 #@! TD*
D33*
G04 #@! TO.C,R20*
X109855000Y-141605000D03*
D21*
X109855000Y-133985000D03*
G04 #@! TD*
D33*
G04 #@! TO.C,R19*
X113030000Y-141605000D03*
D21*
X113030000Y-133985000D03*
G04 #@! TD*
D33*
G04 #@! TO.C,R18*
X157480000Y-141605000D03*
D21*
X157480000Y-133985000D03*
G04 #@! TD*
D33*
G04 #@! TO.C,R17*
X160655000Y-133985000D03*
D21*
X160655000Y-141605000D03*
G04 #@! TD*
D33*
G04 #@! TO.C,R16*
X193040000Y-133985000D03*
D21*
X193040000Y-141605000D03*
G04 #@! TD*
D33*
G04 #@! TO.C,R15*
X196215000Y-133985000D03*
D21*
X196215000Y-141605000D03*
G04 #@! TD*
D33*
G04 #@! TO.C,R14*
X199390000Y-133985000D03*
D21*
X199390000Y-141605000D03*
G04 #@! TD*
D33*
G04 #@! TO.C,R13*
X202565000Y-141605000D03*
D21*
X202565000Y-133985000D03*
G04 #@! TD*
D33*
G04 #@! TO.C,R12*
X205740000Y-141605000D03*
D21*
X205740000Y-133985000D03*
G04 #@! TD*
D33*
G04 #@! TO.C,R11*
X208915000Y-141605000D03*
D21*
X208915000Y-133985000D03*
G04 #@! TD*
D33*
G04 #@! TO.C,R10*
X191770000Y-76835000D03*
D21*
X191770000Y-84455000D03*
G04 #@! TD*
D33*
G04 #@! TO.C,R9*
X194945000Y-76835000D03*
D21*
X194945000Y-84455000D03*
G04 #@! TD*
D33*
G04 #@! TO.C,R8*
X202565000Y-84455000D03*
D21*
X202565000Y-76835000D03*
G04 #@! TD*
D33*
G04 #@! TO.C,R7*
X205740000Y-76835000D03*
D21*
X205740000Y-84455000D03*
G04 #@! TD*
D33*
G04 #@! TO.C,R6*
X243205000Y-85090000D03*
D21*
X243205000Y-77470000D03*
G04 #@! TD*
D33*
G04 #@! TO.C,R5*
X243205000Y-65405000D03*
D21*
X243205000Y-73025000D03*
G04 #@! TD*
D33*
G04 #@! TO.C,R4*
X243205000Y-60960000D03*
D21*
X243205000Y-53340000D03*
G04 #@! TD*
D33*
G04 #@! TO.C,R2*
X249555000Y-76835000D03*
D21*
X257175000Y-76835000D03*
G04 #@! TD*
D33*
G04 #@! TO.C,R1*
X257175000Y-66040000D03*
D21*
X249555000Y-66040000D03*
G04 #@! TD*
D33*
G04 #@! TO.C,Z22*
X92710000Y-141605000D03*
X77470000Y-133985000D03*
X90170000Y-141605000D03*
X80010000Y-133985000D03*
X87630000Y-141605000D03*
X82550000Y-133985000D03*
X85090000Y-141605000D03*
X85090000Y-133985000D03*
X82550000Y-141605000D03*
X87630000Y-133985000D03*
X80010000Y-141605000D03*
X90170000Y-133985000D03*
X77470000Y-141605000D03*
D22*
X92710000Y-133985000D03*
G04 #@! TD*
D33*
G04 #@! TO.C,Z21*
X100330000Y-111125000D03*
X72390000Y-100965000D03*
X97790000Y-111125000D03*
X74930000Y-100965000D03*
X95250000Y-111125000D03*
X77470000Y-100965000D03*
X92710000Y-111125000D03*
X80010000Y-100965000D03*
X90170000Y-111125000D03*
X82550000Y-100965000D03*
X87630000Y-111125000D03*
X85090000Y-100965000D03*
X85090000Y-111125000D03*
X87630000Y-100965000D03*
X82550000Y-111125000D03*
X90170000Y-100965000D03*
X80010000Y-111125000D03*
X92710000Y-100965000D03*
X77470000Y-111125000D03*
X95250000Y-100965000D03*
X74930000Y-111125000D03*
X97790000Y-100965000D03*
X72390000Y-111125000D03*
D22*
X100330000Y-100965000D03*
G04 #@! TD*
D33*
G04 #@! TO.C,Z19*
X92710000Y-59055000D03*
X77470000Y-51435000D03*
X90170000Y-59055000D03*
X80010000Y-51435000D03*
X87630000Y-59055000D03*
X82550000Y-51435000D03*
X85090000Y-59055000D03*
X85090000Y-51435000D03*
X82550000Y-59055000D03*
X87630000Y-51435000D03*
X80010000Y-59055000D03*
X90170000Y-51435000D03*
X77470000Y-59055000D03*
D22*
X92710000Y-51435000D03*
G04 #@! TD*
D33*
G04 #@! TO.C,Z18*
X92710000Y-38735000D03*
X77470000Y-31115000D03*
X90170000Y-38735000D03*
X80010000Y-31115000D03*
X87630000Y-38735000D03*
X82550000Y-31115000D03*
X85090000Y-38735000D03*
X85090000Y-31115000D03*
X82550000Y-38735000D03*
X87630000Y-31115000D03*
X80010000Y-38735000D03*
X90170000Y-31115000D03*
X77470000Y-38735000D03*
D22*
X92710000Y-31115000D03*
G04 #@! TD*
D33*
G04 #@! TO.C,Z17*
X120650000Y-59055000D03*
X105410000Y-51435000D03*
X118110000Y-59055000D03*
X107950000Y-51435000D03*
X115570000Y-59055000D03*
X110490000Y-51435000D03*
X113030000Y-59055000D03*
X113030000Y-51435000D03*
X110490000Y-59055000D03*
X115570000Y-51435000D03*
X107950000Y-59055000D03*
X118110000Y-51435000D03*
X105410000Y-59055000D03*
D22*
X120650000Y-51435000D03*
G04 #@! TD*
D33*
G04 #@! TO.C,Z16*
X120650000Y-38735000D03*
X105410000Y-31115000D03*
X118110000Y-38735000D03*
X107950000Y-31115000D03*
X115570000Y-38735000D03*
X110490000Y-31115000D03*
X113030000Y-38735000D03*
X113030000Y-31115000D03*
X110490000Y-38735000D03*
X115570000Y-31115000D03*
X107950000Y-38735000D03*
X118110000Y-31115000D03*
X105410000Y-38735000D03*
D22*
X120650000Y-31115000D03*
G04 #@! TD*
D33*
G04 #@! TO.C,Z15*
X149860000Y-141605000D03*
X134620000Y-133985000D03*
X147320000Y-141605000D03*
X137160000Y-133985000D03*
X144780000Y-141605000D03*
X139700000Y-133985000D03*
X142240000Y-141605000D03*
X142240000Y-133985000D03*
X139700000Y-141605000D03*
X144780000Y-133985000D03*
X137160000Y-141605000D03*
X147320000Y-133985000D03*
X134620000Y-141605000D03*
D22*
X149860000Y-133985000D03*
G04 #@! TD*
D33*
G04 #@! TO.C,Z14*
X152400000Y-111125000D03*
X124460000Y-100965000D03*
X149860000Y-111125000D03*
X127000000Y-100965000D03*
X147320000Y-111125000D03*
X129540000Y-100965000D03*
X144780000Y-111125000D03*
X132080000Y-100965000D03*
X142240000Y-111125000D03*
X134620000Y-100965000D03*
X139700000Y-111125000D03*
X137160000Y-100965000D03*
X137160000Y-111125000D03*
X139700000Y-100965000D03*
X134620000Y-111125000D03*
X142240000Y-100965000D03*
X132080000Y-111125000D03*
X144780000Y-100965000D03*
X129540000Y-111125000D03*
X147320000Y-100965000D03*
X127000000Y-111125000D03*
X149860000Y-100965000D03*
X124460000Y-111125000D03*
D22*
X152400000Y-100965000D03*
G04 #@! TD*
D33*
G04 #@! TO.C,Z13*
X149860000Y-84455000D03*
X134620000Y-76835000D03*
X147320000Y-84455000D03*
X137160000Y-76835000D03*
X144780000Y-84455000D03*
X139700000Y-76835000D03*
X142240000Y-84455000D03*
X142240000Y-76835000D03*
X139700000Y-84455000D03*
X144780000Y-76835000D03*
X137160000Y-84455000D03*
X147320000Y-76835000D03*
X134620000Y-84455000D03*
D22*
X149860000Y-76835000D03*
G04 #@! TD*
D33*
G04 #@! TO.C,Z12*
X149860000Y-59055000D03*
X134620000Y-51435000D03*
X147320000Y-59055000D03*
X137160000Y-51435000D03*
X144780000Y-59055000D03*
X139700000Y-51435000D03*
X142240000Y-59055000D03*
X142240000Y-51435000D03*
X139700000Y-59055000D03*
X144780000Y-51435000D03*
X137160000Y-59055000D03*
X147320000Y-51435000D03*
X134620000Y-59055000D03*
D22*
X149860000Y-51435000D03*
G04 #@! TD*
D33*
G04 #@! TO.C,Z11*
X149860000Y-38735000D03*
X134620000Y-31115000D03*
X147320000Y-38735000D03*
X137160000Y-31115000D03*
X144780000Y-38735000D03*
X139700000Y-31115000D03*
X142240000Y-38735000D03*
X142240000Y-31115000D03*
X139700000Y-38735000D03*
X144780000Y-31115000D03*
X137160000Y-38735000D03*
X147320000Y-31115000D03*
X134620000Y-38735000D03*
D22*
X149860000Y-31115000D03*
G04 #@! TD*
D33*
G04 #@! TO.C,Z10*
X185420000Y-141605000D03*
X170180000Y-133985000D03*
X182880000Y-141605000D03*
X172720000Y-133985000D03*
X180340000Y-141605000D03*
X175260000Y-133985000D03*
X177800000Y-141605000D03*
X177800000Y-133985000D03*
X175260000Y-141605000D03*
X180340000Y-133985000D03*
X172720000Y-141605000D03*
X182880000Y-133985000D03*
X170180000Y-141605000D03*
D22*
X185420000Y-133985000D03*
G04 #@! TD*
D33*
G04 #@! TO.C,Z9*
X185420000Y-109855000D03*
X170180000Y-102235000D03*
X182880000Y-109855000D03*
X172720000Y-102235000D03*
X180340000Y-109855000D03*
X175260000Y-102235000D03*
X177800000Y-109855000D03*
X177800000Y-102235000D03*
X175260000Y-109855000D03*
X180340000Y-102235000D03*
X172720000Y-109855000D03*
X182880000Y-102235000D03*
X170180000Y-109855000D03*
D22*
X185420000Y-102235000D03*
G04 #@! TD*
D33*
G04 #@! TO.C,Z7*
X185420000Y-59055000D03*
X170180000Y-51435000D03*
X182880000Y-59055000D03*
X172720000Y-51435000D03*
X180340000Y-59055000D03*
X175260000Y-51435000D03*
X177800000Y-59055000D03*
X177800000Y-51435000D03*
X175260000Y-59055000D03*
X180340000Y-51435000D03*
X172720000Y-59055000D03*
X182880000Y-51435000D03*
X170180000Y-59055000D03*
D22*
X185420000Y-51435000D03*
G04 #@! TD*
D33*
G04 #@! TO.C,Z6*
X185420000Y-38735000D03*
X170180000Y-31115000D03*
X182880000Y-38735000D03*
X172720000Y-31115000D03*
X180340000Y-38735000D03*
X175260000Y-31115000D03*
X177800000Y-38735000D03*
X177800000Y-31115000D03*
X175260000Y-38735000D03*
X180340000Y-31115000D03*
X172720000Y-38735000D03*
X182880000Y-31115000D03*
X170180000Y-38735000D03*
D22*
X185420000Y-31115000D03*
G04 #@! TD*
D33*
G04 #@! TO.C,Z5*
X216535000Y-109855000D03*
X201295000Y-102235000D03*
X213995000Y-109855000D03*
X203835000Y-102235000D03*
X211455000Y-109855000D03*
X206375000Y-102235000D03*
X208915000Y-109855000D03*
X208915000Y-102235000D03*
X206375000Y-109855000D03*
X211455000Y-102235000D03*
X203835000Y-109855000D03*
X213995000Y-102235000D03*
X201295000Y-109855000D03*
D22*
X216535000Y-102235000D03*
G04 #@! TD*
D33*
G04 #@! TO.C,Z3*
X216535000Y-59055000D03*
X201295000Y-51435000D03*
X213995000Y-59055000D03*
X203835000Y-51435000D03*
X211455000Y-59055000D03*
X206375000Y-51435000D03*
X208915000Y-59055000D03*
X208915000Y-51435000D03*
X206375000Y-59055000D03*
X211455000Y-51435000D03*
X203835000Y-59055000D03*
X213995000Y-51435000D03*
X201295000Y-59055000D03*
D22*
X216535000Y-51435000D03*
G04 #@! TD*
D33*
G04 #@! TO.C,Z2*
X216535000Y-38735000D03*
X201295000Y-31115000D03*
X213995000Y-38735000D03*
X203835000Y-31115000D03*
X211455000Y-38735000D03*
X206375000Y-31115000D03*
X208915000Y-38735000D03*
X208915000Y-31115000D03*
X206375000Y-38735000D03*
X211455000Y-31115000D03*
X203835000Y-38735000D03*
X213995000Y-31115000D03*
X201295000Y-38735000D03*
D22*
X216535000Y-31115000D03*
G04 #@! TD*
D33*
G04 #@! TO.C,Z1*
X252095000Y-109855000D03*
X236855000Y-102235000D03*
X249555000Y-109855000D03*
X239395000Y-102235000D03*
X247015000Y-109855000D03*
X241935000Y-102235000D03*
X244475000Y-109855000D03*
X244475000Y-102235000D03*
X241935000Y-109855000D03*
X247015000Y-102235000D03*
X239395000Y-109855000D03*
X249555000Y-102235000D03*
X236855000Y-109855000D03*
D22*
X252095000Y-102235000D03*
G04 #@! TD*
D33*
G04 #@! TO.C,Z8*
X185420000Y-84455000D03*
X170180000Y-76835000D03*
X182880000Y-84455000D03*
X172720000Y-76835000D03*
X180340000Y-84455000D03*
X175260000Y-76835000D03*
X177800000Y-84455000D03*
X177800000Y-76835000D03*
X175260000Y-84455000D03*
X180340000Y-76835000D03*
X172720000Y-84455000D03*
X182880000Y-76835000D03*
X170180000Y-84455000D03*
D22*
X185420000Y-76835000D03*
G04 #@! TD*
M02*
