M48
INCH,TZ
T1C0.0157
T2C0.0276
T3C0.0295
T4C0.0315
T5C0.0374
T6C0.0390
T7C0.0394
T8C0.0512
T9C0.0906
%
G90
G05
T1
X11750Y-15650
X11750Y-16300
X11750Y-21050
X11750Y-24150
X11750Y-25750
X11750Y-26400
X11800Y-35850
X11800Y-38700
X11800Y-50700
X11800Y-29600
X11800Y-32000
X11800Y-34350
X11800Y-36700
X11800Y-40650
X11800Y-42900
X11800Y-44000
X11800Y-45200
X11800Y-48600
X11800Y-49600
X11800Y-51800
X11800Y-53100
X11800Y-41850
X13200Y-25100
X13200Y-32750
X13972Y-19528
X22050Y-44450
X22100Y-48200
X22950Y-39750
X23550Y-47300
X23600Y-43400
X24250Y-39250
X25450Y-38100
X26150Y-41350
X26150Y-46650
X26750Y-37700
X27250Y-28800
X28600Y-8400
X29450Y-30600
X30050Y-46276
X30950Y-54100
X31500Y-26400
X32250Y-8900
X32900Y-59350
X32950Y-11300
X33500Y-49600
X34000Y-58850
X34400Y-9800
X34500Y-22250
X34550Y-58900
X35000Y-45250
X35050Y-8800
X35050Y-34900
X35350Y-21900
X35350Y-42550
X35500Y-40700
X35500Y-48650
X35575Y-41825
X35950Y-56800
X36450Y-45600
X37400Y-10850
X37500Y-36750
X37950Y-61850
X37950Y-60100
X38250Y-11450
X38550Y-36450
X38587Y-11148
X39245Y-11453
X39550Y-36150
X39593Y-11269
X39900Y-7900
X39962Y-11455
X40356Y-11450
X42000Y-50750
X42650Y-51800
X42850Y-9400
X43850Y-52150
X43950Y-14450
X44250Y-43250
X44250Y-46000
X44500Y-16000
X44550Y-11050
X44700Y-9850
X45500Y-29650
X46100Y-8400
X46100Y-13150
X46500Y-13850
X47500Y-10750
X47950Y-8400
X48200Y-46300
X48200Y-58900
X48500Y-7500
X48550Y-29200
X48950Y-28600
X49500Y-17650
X49650Y-16926
X49750Y-8400
X50500Y-19900
X51350Y-17300
X51750Y-8400
X51750Y-19800
X52000Y-7500
X52000Y-30250
X53500Y-46450
X54050Y-24600
X54404Y-8904
X54500Y-46800
X54950Y-37600
X55000Y-47250
X55400Y-59350
X55500Y-21050
X56000Y-47935
X56443Y-41910
X56500Y-58900
X56550Y-21350
X57000Y-26350
X57000Y-35350
X57000Y-42350
X57059Y-58896
X57404Y-9396
X57500Y-40700
X58000Y-11200
X58000Y-47650
X58300Y-56800
X58450Y-33900
X58500Y-42650
X58750Y-9000
X59900Y-16600
X60800Y-26050
X61000Y-7500
X61550Y-26250
X61600Y-9000
X62850Y-38450
X63850Y-9950
X64515Y-40300
X64800Y-16900
X64800Y-31500
X66100Y-12800
X66550Y-48600
X66850Y-9400
X66950Y-21650
X67200Y-57650
X68000Y-13850
X68050Y-50050
X68600Y-48300
X68900Y-59350
X69000Y-17250
X69000Y-38765
X69000Y-45650
X69053Y-12853
X69500Y-44550
X69557Y-34965
X69650Y-14500
X69850Y-9300
X69950Y-50950
X70000Y-58900
X70500Y-58900
X70500Y-49100
X71000Y-16650
X71000Y-45300
X71050Y-58900
X71200Y-38950
X71450Y-24571
X71500Y-46000
X71950Y-16400
X71991Y-21921
X72350Y-8900
X72500Y-19100
X73000Y-44900
X73550Y-11150
X73800Y-36150
X73850Y-56450
X74200Y-16700
X75250Y-10650
X75400Y-16950
X76200Y-6800
X77200Y-34200
X77650Y-7850
X78150Y-6748
X78150Y-8350
X80250Y-27250
X80250Y-44200
X80800Y-10000
X80800Y-37650
X81700Y-35292
X82250Y-19600
X83200Y-41815
X83500Y-9950
X84200Y-39500
X85250Y-18500
X85250Y-36950
X86704Y-9046
X89000Y-8848
X89900Y-12950
X90350Y-15450
X90400Y-10250
X90600Y-23000
X91500Y-12950
X92200Y-12700
X92700Y-13550
X93250Y-41228
X94200Y-42650
X94750Y-7500
X95250Y-42000
X96500Y-13550
X97100Y-38600
X103000Y-60550
X103200Y-39600
X103200Y-56100
X103225Y-59785
X103350Y-57350
X103550Y-36600
X103550Y-54500
X103600Y-61500
X103750Y-35950
X103900Y-51250
X103900Y-58500
X103900Y-61150
X104200Y-35600
X104200Y-59500
X104200Y-48000
X104300Y-60550
X104500Y-56700
X104600Y-38950
X104800Y-60600
X104900Y-59200
X104900Y-59650
X105150Y-39250
X105250Y-11250
X105500Y-58900
X106150Y-59450
X106200Y-57050
X106600Y-57550
X106900Y-57850
X107150Y-49500
X107200Y-33250
X107200Y-20250
X107200Y-22000
X107200Y-23500
X107200Y-28500
X107200Y-30000
X107200Y-31750
X107200Y-35000
X107200Y-38250
X107200Y-39750
X107200Y-41500
X107200Y-44750
X107200Y-46250
X107200Y-52750
X107200Y-56000
X107200Y-58150
X107206Y-25256
X107250Y-26750
X107250Y-36500
X107250Y-43000
X108900Y-22000
X108900Y-25250
X108900Y-28500
X108900Y-31750
X108900Y-35000
X108900Y-38250
X108900Y-41500
X108900Y-44750
X108900Y-48000
X108900Y-51250
X108900Y-54500
X108900Y-57750
X110500Y-22700
X110500Y-25950
X110500Y-29200
X110500Y-32450
X110500Y-35700
X110500Y-38950
X110500Y-42200
X110500Y-45450
X110500Y-48700
X110500Y-51900
X110500Y-55200
X110500Y-58500
T2
X99250Y-28000
X99250Y-32250
X99750Y-27500
X99750Y-31750
X100250Y-28000
X100250Y-32250
T3
X77750Y-30250
X77750Y-33250
X78740Y-30250
X78740Y-33250
T4
X16000Y-11500
X16266Y-14000
X17250Y-14000
X17969Y-11500
X23000Y-52750
X23000Y-55750
X24250Y-52750
X24250Y-55750
X25500Y-52750
X25500Y-55750
X26750Y-52750
X26750Y-55750
X27250Y-12250
X27250Y-15250
X28500Y-12750
X28500Y-14719
X28500Y-39750
X28500Y-43750
X29500Y-39750
X29500Y-43750
X30500Y-12250
X30500Y-15250
X30500Y-20250
X30500Y-23250
X30500Y-30250
X30500Y-33250
X30500Y-39750
X30500Y-43750
X30500Y-52750
X30500Y-55750
X31500Y-12250
X31500Y-15250
X31500Y-20250
X31500Y-23250
X31500Y-30250
X31500Y-33250
X31500Y-39750
X31500Y-43750
X31500Y-52750
X31500Y-55750
X32500Y-12250
X32500Y-15250
X32500Y-20250
X32500Y-23250
X32500Y-30250
X32500Y-33250
X32500Y-39750
X32500Y-43750
X32500Y-52750
X32500Y-55750
X33500Y-12250
X33500Y-15250
X33500Y-20250
X33500Y-23250
X33500Y-30250
X33500Y-33250
X33500Y-39750
X33500Y-43750
X33500Y-52750
X33500Y-55750
X34500Y-12250
X34500Y-15250
X34500Y-20250
X34500Y-23250
X34500Y-39750
X34500Y-43750
X34500Y-52750
X34500Y-55750
X35250Y-30750
X35250Y-32719
X35500Y-12250
X35500Y-15250
X35500Y-20250
X35500Y-23250
X35500Y-39750
X35500Y-43750
X35500Y-52750
X35500Y-55750
X36500Y-12250
X36500Y-15250
X36500Y-20250
X36500Y-23250
X36500Y-39750
X36500Y-43750
X36500Y-52750
X36500Y-55750
X37500Y-39750
X37500Y-43750
X38250Y-20750
X38250Y-22719
X38250Y-53500
X38250Y-55469
X38500Y-39750
X38500Y-43750
X39500Y-39750
X39500Y-43750
X39500Y-52750
X39500Y-55750
X40750Y-52750
X40750Y-55750
X41500Y-12250
X41500Y-15250
X41500Y-20250
X41500Y-23250
X42000Y-52750
X42000Y-55750
X42500Y-12250
X42500Y-15250
X42500Y-20250
X42500Y-23250
X42750Y-40016
X42750Y-41000
X43250Y-52750
X43250Y-55750
X43500Y-12250
X43500Y-15250
X43500Y-20250
X43500Y-23250
X44500Y-12250
X44500Y-15250
X44500Y-20250
X44500Y-23250
X44500Y-52750
X44500Y-55750
X45500Y-12250
X45500Y-15250
X45500Y-20250
X45500Y-23250
X46500Y-12250
X46500Y-15250
X46500Y-20250
X46500Y-23250
X47500Y-12250
X47500Y-15250
X47500Y-20250
X47500Y-23250
X49000Y-39750
X49000Y-43750
X50000Y-39750
X50000Y-43750
X51000Y-39750
X51000Y-43750
X52000Y-39750
X52000Y-43750
X53000Y-12250
X53000Y-15250
X53000Y-20250
X53000Y-23250
X53000Y-30250
X53000Y-33250
X53000Y-39750
X53000Y-43750
X53000Y-52750
X53000Y-55750
X54000Y-12250
X54000Y-15250
X54000Y-20250
X54000Y-23250
X54000Y-30250
X54000Y-33250
X54000Y-39750
X54000Y-43750
X54000Y-52750
X54000Y-55750
X55000Y-12250
X55000Y-15250
X55000Y-20250
X55000Y-23250
X55000Y-30250
X55000Y-33250
X55000Y-39750
X55000Y-43750
X55000Y-52750
X55000Y-55750
X56000Y-12250
X56000Y-15250
X56000Y-20250
X56000Y-23250
X56000Y-30250
X56000Y-33250
X56000Y-39750
X56000Y-43750
X56000Y-52750
X56000Y-55750
X57000Y-12250
X57000Y-15250
X57000Y-20250
X57000Y-23250
X57000Y-30250
X57000Y-33250
X57000Y-39750
X57000Y-43750
X57000Y-52750
X57000Y-55750
X58000Y-12250
X58000Y-15250
X58000Y-20250
X58000Y-23250
X58000Y-30250
X58000Y-33250
X58000Y-39750
X58000Y-43750
X58000Y-52750
X58000Y-55750
X59000Y-12250
X59000Y-15250
X59000Y-20250
X59000Y-23250
X59000Y-30250
X59000Y-33250
X59000Y-39750
X59000Y-43750
X59000Y-52750
X59000Y-55750
X60000Y-39750
X60000Y-43750
X60750Y-30750
X60750Y-32719
X60750Y-53531
X60750Y-55500
X61750Y-40750
X61750Y-42719
X62000Y-52750
X62000Y-55750
X63250Y-52750
X63250Y-55750
X67000Y-12250
X67000Y-15250
X67000Y-20250
X67000Y-23250
X67000Y-30250
X67000Y-33250
X67000Y-40250
X67000Y-43250
X67000Y-52750
X67000Y-55750
X68000Y-12250
X68000Y-15250
X68000Y-20250
X68000Y-23250
X68000Y-30250
X68000Y-33250
X68000Y-40250
X68000Y-43250
X68000Y-52750
X68000Y-55750
X69000Y-12250
X69000Y-15250
X69000Y-20250
X69000Y-23250
X69000Y-30250
X69000Y-33250
X69000Y-40250
X69000Y-43250
X69000Y-52750
X69000Y-55750
X70000Y-12250
X70000Y-15250
X70000Y-20250
X70000Y-23250
X70000Y-30250
X70000Y-33250
X70000Y-40250
X70000Y-43250
X70000Y-52750
X70000Y-55750
X71000Y-12250
X71000Y-15250
X71000Y-20250
X71000Y-23250
X71000Y-30250
X71000Y-33250
X71000Y-40250
X71000Y-43250
X71000Y-52750
X71000Y-55750
X72000Y-12250
X72000Y-15250
X72000Y-20250
X72000Y-23250
X72000Y-30250
X72000Y-33250
X72000Y-40250
X72000Y-43250
X72000Y-52750
X72000Y-55750
X73000Y-12250
X73000Y-15250
X73000Y-20250
X73000Y-23250
X73000Y-30250
X73000Y-33250
X73000Y-40250
X73000Y-43250
X73000Y-52750
X73000Y-55750
X74031Y-27750
X74250Y-30750
X74250Y-32719
X74750Y-12750
X74750Y-14719
X74750Y-40781
X74750Y-42750
X74750Y-53500
X74750Y-55469
X75500Y-30250
X75500Y-33250
X76000Y-27750
X76000Y-52750
X76000Y-55750
X76750Y-30250
X76750Y-33250
X77250Y-52750
X77250Y-55750
X78500Y-52750
X78500Y-55750
X79250Y-12250
X79250Y-15250
X79250Y-20250
X79250Y-23250
X79250Y-40250
X79250Y-43250
X79750Y-30250
X79750Y-33250
X79750Y-52750
X79750Y-55750
X80250Y-12250
X80250Y-15250
X80250Y-20250
X80250Y-23250
X80250Y-40250
X80250Y-43250
X81000Y-30250
X81000Y-33250
X81000Y-52750
X81000Y-55750
X81250Y-12250
X81250Y-15250
X81250Y-20250
X81250Y-23250
X81250Y-40250
X81250Y-43250
X82250Y-12250
X82250Y-15250
X82250Y-20250
X82250Y-23250
X82250Y-30250
X82250Y-33250
X82250Y-40250
X82250Y-43250
X82250Y-52750
X82250Y-55750
X83250Y-12250
X83250Y-15250
X83250Y-20250
X83250Y-23250
X83250Y-30250
X83250Y-33250
X83250Y-40250
X83250Y-43250
X84250Y-12250
X84250Y-15250
X84250Y-20250
X84250Y-23250
X84250Y-30250
X84250Y-33250
X84250Y-40250
X84250Y-43250
X85250Y-12250
X85250Y-15250
X85250Y-20250
X85250Y-23250
X85250Y-30250
X85250Y-33250
X85250Y-40250
X85250Y-43250
X87000Y-20750
X87000Y-22719
X87000Y-40781
X87000Y-42750
X88000Y-13250
X88000Y-14234
X88000Y-31266
X88000Y-32250
X90750Y-38531
X90750Y-40500
X93250Y-40250
X93250Y-43250
X94250Y-40250
X94250Y-43250
X95250Y-40250
X95250Y-43250
X95750Y-21000
X95750Y-24000
X95750Y-25750
X95750Y-28750
X95750Y-30500
X95750Y-33500
X96250Y-40250
X96250Y-43250
X96500Y-37500
X97250Y-40250
X97250Y-43250
X98250Y-26000
X98250Y-30250
X98250Y-34500
X98250Y-40250
X98250Y-43250
X98469Y-37500
X98781Y-23000
X98781Y-24500
X99071Y-21000
X99250Y-40250
X99250Y-43250
X100750Y-23000
X100750Y-24500
X101000Y-21000
X101250Y-26000
X101250Y-30250
X101250Y-34500
X102000Y-41266
X102000Y-42250
X103000Y-30031
X103000Y-32000
T5
X106750Y-13266
X106750Y-14250
X107537Y-13266
X107537Y-14250
T6
X96728Y-7000
X98500Y-7000
X101728Y-7000
X103500Y-7000
X105728Y-7000
X107500Y-7000
T7
X93000Y-17750
X93000Y-18750
X93000Y-19750
X103000Y-23000
X103000Y-28000
T8
X96232Y-7980
X98992Y-7980
X101232Y-7980
X103992Y-7980
X105232Y-7980
X107992Y-7980
T9
X108663Y-11396
X108663Y-16120
T0
M30
