G04 #@! TF.GenerationSoftware,KiCad,Pcbnew,(5.1.12)-1*
G04 #@! TF.CreationDate,2023-03-25T16:08:14+00:00*
G04 #@! TF.ProjectId,Decoder,4465636f-6465-4722-9e6b-696361645f70,1*
G04 #@! TF.SameCoordinates,Original*
G04 #@! TF.FileFunction,Soldermask,Top*
G04 #@! TF.FilePolarity,Negative*
%FSLAX46Y46*%
G04 Gerber Fmt 4.6, Leading zero omitted, Abs format (unit mm)*
G04 Created by KiCad (PCBNEW (5.1.12)-1) date 2023-03-25 16:08:14*
%MOMM*%
%LPD*%
G01*
G04 APERTURE LIST*
%ADD10C,3.200000*%
%ADD11R,0.350000X2.000000*%
%ADD12R,2.000000X1.000000*%
%ADD13O,1.700000X1.700000*%
%ADD14R,1.700000X1.700000*%
%ADD15C,2.100000*%
%ADD16C,1.750000*%
%ADD17C,4.000000*%
%ADD18C,1.600000*%
%ADD19R,1.600000X1.600000*%
%ADD20R,2.000000X0.350000*%
%ADD21R,1.000000X2.000000*%
%ADD22R,9.000000X2.000000*%
%ADD23O,1.500000X1.500000*%
%ADD24R,1.500000X1.500000*%
%ADD25C,1.500000*%
%ADD26O,1.200000X1.200000*%
%ADD27O,1.600000X1.200000*%
%ADD28O,2.000000X2.000000*%
%ADD29C,2.000000*%
%ADD30O,1.600000X1.600000*%
G04 APERTURE END LIST*
D10*
G04 #@! TO.C,H906*
X260985000Y-44323000D03*
G04 #@! TD*
G04 #@! TO.C,H905*
X247015000Y-44323000D03*
G04 #@! TD*
D11*
G04 #@! TO.C,D917*
X111320000Y-19050000D03*
D12*
X109220000Y-19050000D03*
X113420000Y-19050000D03*
G04 #@! TD*
D10*
G04 #@! TO.C,H904*
X30480000Y-156210000D03*
G04 #@! TD*
G04 #@! TO.C,H903*
X269240000Y-156210000D03*
G04 #@! TD*
G04 #@! TO.C,H902*
X281305000Y-18415000D03*
G04 #@! TD*
G04 #@! TO.C,H901*
X31115000Y-18415000D03*
G04 #@! TD*
D13*
G04 #@! TO.C,JP901*
X236220000Y-45085000D03*
X236220000Y-47625000D03*
D14*
X236220000Y-50165000D03*
G04 #@! TD*
D11*
G04 #@! TO.C,D921*
X70680000Y-19050000D03*
D12*
X68580000Y-19050000D03*
X72780000Y-19050000D03*
G04 #@! TD*
D11*
G04 #@! TO.C,D920*
X94810000Y-19050000D03*
D12*
X92710000Y-19050000D03*
X96910000Y-19050000D03*
G04 #@! TD*
D11*
G04 #@! TO.C,D919*
X79570000Y-19050000D03*
D12*
X77470000Y-19050000D03*
X81670000Y-19050000D03*
G04 #@! TD*
D11*
G04 #@! TO.C,D918*
X87190000Y-19050000D03*
D12*
X85090000Y-19050000D03*
X89290000Y-19050000D03*
G04 #@! TD*
D11*
G04 #@! TO.C,D916*
X102430000Y-19050000D03*
D12*
X100330000Y-19050000D03*
X104530000Y-19050000D03*
G04 #@! TD*
D11*
G04 #@! TO.C,D915*
X143705000Y-19050000D03*
D12*
X141605000Y-19050000D03*
X145805000Y-19050000D03*
G04 #@! TD*
D11*
G04 #@! TO.C,D914*
X136085000Y-19050000D03*
D12*
X133985000Y-19050000D03*
X138185000Y-19050000D03*
G04 #@! TD*
D11*
G04 #@! TO.C,D913*
X119575000Y-19050000D03*
D12*
X117475000Y-19050000D03*
X121675000Y-19050000D03*
G04 #@! TD*
D11*
G04 #@! TO.C,D912*
X151325000Y-19050000D03*
D12*
X149225000Y-19050000D03*
X153425000Y-19050000D03*
G04 #@! TD*
D11*
G04 #@! TO.C,D911*
X175455000Y-19050000D03*
D12*
X173355000Y-19050000D03*
X177555000Y-19050000D03*
G04 #@! TD*
D11*
G04 #@! TO.C,D910*
X128465000Y-19050000D03*
D12*
X126365000Y-19050000D03*
X130565000Y-19050000D03*
G04 #@! TD*
D11*
G04 #@! TO.C,D909*
X191330000Y-19050000D03*
D12*
X189230000Y-19050000D03*
X193430000Y-19050000D03*
G04 #@! TD*
D11*
G04 #@! TO.C,D908*
X183075000Y-19050000D03*
D12*
X180975000Y-19050000D03*
X185175000Y-19050000D03*
G04 #@! TD*
D11*
G04 #@! TO.C,D907*
X167835000Y-19050000D03*
D12*
X165735000Y-19050000D03*
X169935000Y-19050000D03*
G04 #@! TD*
D11*
G04 #@! TO.C,D906*
X160215000Y-19050000D03*
D12*
X158115000Y-19050000D03*
X162315000Y-19050000D03*
G04 #@! TD*
D11*
G04 #@! TO.C,D905*
X210380000Y-19050000D03*
D12*
X208280000Y-19050000D03*
X212480000Y-19050000D03*
G04 #@! TD*
D11*
G04 #@! TO.C,D904*
X218000000Y-19050000D03*
D12*
X215900000Y-19050000D03*
X220100000Y-19050000D03*
G04 #@! TD*
D11*
G04 #@! TO.C,D903*
X202760000Y-19050000D03*
D12*
X200660000Y-19050000D03*
X204860000Y-19050000D03*
G04 #@! TD*
D11*
G04 #@! TO.C,D902*
X225620000Y-19050000D03*
D12*
X223520000Y-19050000D03*
X227720000Y-19050000D03*
G04 #@! TD*
D11*
G04 #@! TO.C,D901*
X237050000Y-19050000D03*
D12*
X234950000Y-19050000D03*
X239150000Y-19050000D03*
G04 #@! TD*
D15*
G04 #@! TO.C,SW984*
X274300000Y-20270000D03*
D16*
X273050000Y-17780000D03*
X268550000Y-17780000D03*
D15*
X267290000Y-20270000D03*
G04 #@! TD*
G04 #@! TO.C,SW983*
X264140000Y-20270000D03*
D16*
X262890000Y-17780000D03*
X258390000Y-17780000D03*
D15*
X257130000Y-20270000D03*
G04 #@! TD*
G04 #@! TO.C,SW982*
X251440000Y-20270000D03*
D16*
X250190000Y-17780000D03*
X245690000Y-17780000D03*
D15*
X244430000Y-20270000D03*
G04 #@! TD*
D17*
G04 #@! TO.C,J981*
X276005000Y-40945000D03*
X276005000Y-28945000D03*
D18*
X273145000Y-36195000D03*
X273145000Y-33695000D03*
X271145000Y-33695000D03*
D19*
X271145000Y-36195000D03*
G04 #@! TD*
D20*
G04 #@! TO.C,D964*
X280670000Y-111565000D03*
D21*
X280670000Y-109465000D03*
X280670000Y-113665000D03*
G04 #@! TD*
D20*
G04 #@! TO.C,D963*
X280670000Y-103310000D03*
D21*
X280670000Y-101210000D03*
X280670000Y-105410000D03*
G04 #@! TD*
D20*
G04 #@! TO.C,D962*
X280670000Y-95055000D03*
D21*
X280670000Y-92955000D03*
X280670000Y-97155000D03*
G04 #@! TD*
D20*
G04 #@! TO.C,D961*
X280670000Y-86800000D03*
D21*
X280670000Y-84700000D03*
X280670000Y-88900000D03*
G04 #@! TD*
D20*
G04 #@! TO.C,D960*
X280670000Y-78545000D03*
D21*
X280670000Y-76445000D03*
X280670000Y-80645000D03*
G04 #@! TD*
D20*
G04 #@! TO.C,D959*
X280670000Y-70290000D03*
D21*
X280670000Y-68190000D03*
X280670000Y-72390000D03*
G04 #@! TD*
D20*
G04 #@! TO.C,D958*
X280670000Y-62035000D03*
D21*
X280670000Y-59935000D03*
X280670000Y-64135000D03*
G04 #@! TD*
D20*
G04 #@! TO.C,D957*
X280670000Y-53780000D03*
D21*
X280670000Y-51680000D03*
X280670000Y-55880000D03*
G04 #@! TD*
D20*
G04 #@! TO.C,D944*
X280670000Y-144585000D03*
D21*
X280670000Y-142485000D03*
X280670000Y-146685000D03*
G04 #@! TD*
D20*
G04 #@! TO.C,D943*
X280670000Y-136330000D03*
D21*
X280670000Y-134230000D03*
X280670000Y-138430000D03*
G04 #@! TD*
D20*
G04 #@! TO.C,D942*
X280670000Y-128075000D03*
D21*
X280670000Y-125975000D03*
X280670000Y-130175000D03*
G04 #@! TD*
D20*
G04 #@! TO.C,D941*
X280670000Y-119820000D03*
D21*
X280670000Y-117720000D03*
X280670000Y-121920000D03*
G04 #@! TD*
D22*
G04 #@! TO.C,J4A1*
X17780000Y-33760000D03*
X17780000Y-41680000D03*
X17780000Y-45640000D03*
X17780000Y-49600000D03*
X17780000Y-53560000D03*
X17780000Y-57520000D03*
X17780000Y-61480000D03*
X17780000Y-65440000D03*
X17780000Y-69400000D03*
X17780000Y-73360000D03*
X17780000Y-77320000D03*
X17780000Y-81280000D03*
X17780000Y-85240000D03*
X17780000Y-89200000D03*
X17780000Y-93160000D03*
X17780000Y-97120000D03*
X17780000Y-101080000D03*
X17780000Y-105040000D03*
X17780000Y-109000000D03*
X17780000Y-112960000D03*
X17780000Y-116920000D03*
X17780000Y-120880000D03*
X17780000Y-124840000D03*
X17780000Y-128800000D03*
X17780000Y-132760000D03*
X17780000Y-136720000D03*
X17780000Y-140680000D03*
X17780000Y-37720000D03*
G04 #@! TD*
D23*
G04 #@! TO.C,CR2*
X200000000Y-76835000D03*
D24*
X200000000Y-84455000D03*
G04 #@! TD*
D23*
G04 #@! TO.C,CR1*
X197485000Y-84455000D03*
D24*
X197485000Y-76835000D03*
G04 #@! TD*
D25*
G04 #@! TO.C,Y1*
X251640000Y-53340000D03*
X256540000Y-53340000D03*
G04 #@! TD*
D26*
G04 #@! TO.C,Q2*
X252095000Y-81915000D03*
X253365000Y-80645000D03*
D27*
X254635000Y-81915000D03*
G04 #@! TD*
D26*
G04 #@! TO.C,Q1*
X252095000Y-71120000D03*
X253365000Y-69850000D03*
D27*
X254635000Y-71120000D03*
G04 #@! TD*
D28*
G04 #@! TO.C,L1*
X261620000Y-58420000D03*
D29*
X261620000Y-71120000D03*
G04 #@! TD*
D18*
G04 #@! TO.C,C9*
X223520000Y-79415000D03*
D19*
X223520000Y-81915000D03*
G04 #@! TD*
D30*
G04 #@! TO.C,Z20*
X85090000Y-84455000D03*
X77470000Y-76835000D03*
X82550000Y-84455000D03*
X80010000Y-76835000D03*
X80010000Y-84455000D03*
X82550000Y-76835000D03*
X77470000Y-84455000D03*
D19*
X85090000Y-76835000D03*
G04 #@! TD*
D30*
G04 #@! TO.C,Z4*
X216535000Y-84455000D03*
X208915000Y-76835000D03*
X213995000Y-84455000D03*
X211455000Y-76835000D03*
X211455000Y-84455000D03*
X213995000Y-76835000D03*
X208915000Y-84455000D03*
D19*
X216535000Y-76835000D03*
G04 #@! TD*
D18*
G04 #@! TO.C,C26*
X97155000Y-140890000D03*
X97155000Y-135890000D03*
G04 #@! TD*
G04 #@! TO.C,C25*
X154305000Y-135970000D03*
X154305000Y-140970000D03*
G04 #@! TD*
G04 #@! TO.C,C24*
X189865000Y-135890000D03*
X189865000Y-140890000D03*
G04 #@! TD*
G04 #@! TO.C,C23*
X188595000Y-78105000D03*
X188595000Y-83105000D03*
G04 #@! TD*
G04 #@! TO.C,C22*
X250110000Y-95250000D03*
X245110000Y-95250000D03*
G04 #@! TD*
G04 #@! TO.C,C21*
X230505000Y-97870000D03*
X230505000Y-102870000D03*
G04 #@! TD*
G04 #@! TO.C,C20*
X41315000Y-35560000D03*
D19*
X43815000Y-35560000D03*
G04 #@! TD*
D18*
G04 #@! TO.C,C19*
X45640000Y-29210000D03*
X40640000Y-29210000D03*
G04 #@! TD*
G04 #@! TO.C,C17*
X72390000Y-37385000D03*
X72390000Y-32385000D03*
G04 #@! TD*
G04 #@! TO.C,C16*
X189865000Y-32385000D03*
X189865000Y-37385000D03*
G04 #@! TD*
G04 #@! TO.C,C15*
X223520000Y-33655000D03*
D19*
X223520000Y-36155000D03*
G04 #@! TD*
D18*
G04 #@! TO.C,C14*
X97155000Y-57705000D03*
X97155000Y-52705000D03*
G04 #@! TD*
G04 #@! TO.C,C13*
X220980000Y-52705000D03*
X220980000Y-57705000D03*
G04 #@! TD*
G04 #@! TO.C,C12*
X89535000Y-83105000D03*
X89535000Y-78105000D03*
G04 #@! TD*
G04 #@! TO.C,C11*
X154305000Y-83105000D03*
X154305000Y-78105000D03*
G04 #@! TD*
G04 #@! TO.C,C10*
X188040000Y-70485000D03*
X193040000Y-70485000D03*
G04 #@! TD*
G04 #@! TO.C,C8*
X108585000Y-101640000D03*
D19*
X108585000Y-104140000D03*
G04 #@! TD*
D18*
G04 #@! TO.C,C7*
X156845000Y-108505000D03*
X156845000Y-103505000D03*
G04 #@! TD*
G04 #@! TO.C,C6*
X189865000Y-108585000D03*
X189865000Y-103585000D03*
G04 #@! TD*
G04 #@! TO.C,C5*
X220980000Y-108585000D03*
X220980000Y-103585000D03*
G04 #@! TD*
G04 #@! TO.C,C4*
X259080000Y-104815000D03*
D19*
X259080000Y-107315000D03*
G04 #@! TD*
D18*
G04 #@! TO.C,C3*
X261620000Y-76280000D03*
X261620000Y-81280000D03*
G04 #@! TD*
G04 #@! TO.C,C2*
X250905000Y-62230000D03*
X255905000Y-62230000D03*
G04 #@! TD*
G04 #@! TO.C,C1*
X255905000Y-58420000D03*
X250905000Y-58420000D03*
G04 #@! TD*
D30*
G04 #@! TO.C,R3*
X257175000Y-87630000D03*
D18*
X249555000Y-87630000D03*
G04 #@! TD*
D30*
G04 #@! TO.C,R28*
X69215000Y-31115000D03*
D18*
X69215000Y-38735000D03*
G04 #@! TD*
D30*
G04 #@! TO.C,R27*
X58420000Y-133985000D03*
D18*
X58420000Y-141605000D03*
G04 #@! TD*
D30*
G04 #@! TO.C,R26*
X61595000Y-133985000D03*
D18*
X61595000Y-141605000D03*
G04 #@! TD*
D30*
G04 #@! TO.C,R25*
X64770000Y-133985000D03*
D18*
X64770000Y-141605000D03*
G04 #@! TD*
D30*
G04 #@! TO.C,R24*
X67945000Y-133985000D03*
D18*
X67945000Y-141605000D03*
G04 #@! TD*
D30*
G04 #@! TO.C,R23*
X100330000Y-133985000D03*
D18*
X100330000Y-141605000D03*
G04 #@! TD*
D30*
G04 #@! TO.C,R22*
X103505000Y-133985000D03*
D18*
X103505000Y-141605000D03*
G04 #@! TD*
D30*
G04 #@! TO.C,R21*
X106680000Y-133985000D03*
D18*
X106680000Y-141605000D03*
G04 #@! TD*
D30*
G04 #@! TO.C,R20*
X109855000Y-141605000D03*
D18*
X109855000Y-133985000D03*
G04 #@! TD*
D30*
G04 #@! TO.C,R19*
X113030000Y-141605000D03*
D18*
X113030000Y-133985000D03*
G04 #@! TD*
D30*
G04 #@! TO.C,R18*
X157480000Y-141605000D03*
D18*
X157480000Y-133985000D03*
G04 #@! TD*
D30*
G04 #@! TO.C,R17*
X160655000Y-133985000D03*
D18*
X160655000Y-141605000D03*
G04 #@! TD*
D30*
G04 #@! TO.C,R16*
X193040000Y-133985000D03*
D18*
X193040000Y-141605000D03*
G04 #@! TD*
D30*
G04 #@! TO.C,R15*
X196215000Y-133985000D03*
D18*
X196215000Y-141605000D03*
G04 #@! TD*
D30*
G04 #@! TO.C,R14*
X199390000Y-133985000D03*
D18*
X199390000Y-141605000D03*
G04 #@! TD*
D30*
G04 #@! TO.C,R13*
X202565000Y-141605000D03*
D18*
X202565000Y-133985000D03*
G04 #@! TD*
D30*
G04 #@! TO.C,R12*
X205740000Y-141605000D03*
D18*
X205740000Y-133985000D03*
G04 #@! TD*
D30*
G04 #@! TO.C,R11*
X208915000Y-141605000D03*
D18*
X208915000Y-133985000D03*
G04 #@! TD*
D30*
G04 #@! TO.C,R10*
X191770000Y-76835000D03*
D18*
X191770000Y-84455000D03*
G04 #@! TD*
D30*
G04 #@! TO.C,R9*
X194945000Y-76835000D03*
D18*
X194945000Y-84455000D03*
G04 #@! TD*
D30*
G04 #@! TO.C,R8*
X202565000Y-84455000D03*
D18*
X202565000Y-76835000D03*
G04 #@! TD*
D30*
G04 #@! TO.C,R7*
X205740000Y-76835000D03*
D18*
X205740000Y-84455000D03*
G04 #@! TD*
D30*
G04 #@! TO.C,R6*
X243205000Y-85090000D03*
D18*
X243205000Y-77470000D03*
G04 #@! TD*
D30*
G04 #@! TO.C,R5*
X243205000Y-65405000D03*
D18*
X243205000Y-73025000D03*
G04 #@! TD*
D30*
G04 #@! TO.C,R4*
X243205000Y-60960000D03*
D18*
X243205000Y-53340000D03*
G04 #@! TD*
D30*
G04 #@! TO.C,R2*
X249555000Y-76835000D03*
D18*
X257175000Y-76835000D03*
G04 #@! TD*
D30*
G04 #@! TO.C,R1*
X257175000Y-66040000D03*
D18*
X249555000Y-66040000D03*
G04 #@! TD*
D30*
G04 #@! TO.C,Z22*
X92710000Y-141605000D03*
X77470000Y-133985000D03*
X90170000Y-141605000D03*
X80010000Y-133985000D03*
X87630000Y-141605000D03*
X82550000Y-133985000D03*
X85090000Y-141605000D03*
X85090000Y-133985000D03*
X82550000Y-141605000D03*
X87630000Y-133985000D03*
X80010000Y-141605000D03*
X90170000Y-133985000D03*
X77470000Y-141605000D03*
D19*
X92710000Y-133985000D03*
G04 #@! TD*
D30*
G04 #@! TO.C,Z21*
X100330000Y-111125000D03*
X72390000Y-100965000D03*
X97790000Y-111125000D03*
X74930000Y-100965000D03*
X95250000Y-111125000D03*
X77470000Y-100965000D03*
X92710000Y-111125000D03*
X80010000Y-100965000D03*
X90170000Y-111125000D03*
X82550000Y-100965000D03*
X87630000Y-111125000D03*
X85090000Y-100965000D03*
X85090000Y-111125000D03*
X87630000Y-100965000D03*
X82550000Y-111125000D03*
X90170000Y-100965000D03*
X80010000Y-111125000D03*
X92710000Y-100965000D03*
X77470000Y-111125000D03*
X95250000Y-100965000D03*
X74930000Y-111125000D03*
X97790000Y-100965000D03*
X72390000Y-111125000D03*
D19*
X100330000Y-100965000D03*
G04 #@! TD*
D30*
G04 #@! TO.C,Z19*
X92710000Y-59055000D03*
X77470000Y-51435000D03*
X90170000Y-59055000D03*
X80010000Y-51435000D03*
X87630000Y-59055000D03*
X82550000Y-51435000D03*
X85090000Y-59055000D03*
X85090000Y-51435000D03*
X82550000Y-59055000D03*
X87630000Y-51435000D03*
X80010000Y-59055000D03*
X90170000Y-51435000D03*
X77470000Y-59055000D03*
D19*
X92710000Y-51435000D03*
G04 #@! TD*
D30*
G04 #@! TO.C,Z18*
X92710000Y-38735000D03*
X77470000Y-31115000D03*
X90170000Y-38735000D03*
X80010000Y-31115000D03*
X87630000Y-38735000D03*
X82550000Y-31115000D03*
X85090000Y-38735000D03*
X85090000Y-31115000D03*
X82550000Y-38735000D03*
X87630000Y-31115000D03*
X80010000Y-38735000D03*
X90170000Y-31115000D03*
X77470000Y-38735000D03*
D19*
X92710000Y-31115000D03*
G04 #@! TD*
D30*
G04 #@! TO.C,Z17*
X120650000Y-59055000D03*
X105410000Y-51435000D03*
X118110000Y-59055000D03*
X107950000Y-51435000D03*
X115570000Y-59055000D03*
X110490000Y-51435000D03*
X113030000Y-59055000D03*
X113030000Y-51435000D03*
X110490000Y-59055000D03*
X115570000Y-51435000D03*
X107950000Y-59055000D03*
X118110000Y-51435000D03*
X105410000Y-59055000D03*
D19*
X120650000Y-51435000D03*
G04 #@! TD*
D30*
G04 #@! TO.C,Z16*
X120650000Y-38735000D03*
X105410000Y-31115000D03*
X118110000Y-38735000D03*
X107950000Y-31115000D03*
X115570000Y-38735000D03*
X110490000Y-31115000D03*
X113030000Y-38735000D03*
X113030000Y-31115000D03*
X110490000Y-38735000D03*
X115570000Y-31115000D03*
X107950000Y-38735000D03*
X118110000Y-31115000D03*
X105410000Y-38735000D03*
D19*
X120650000Y-31115000D03*
G04 #@! TD*
D30*
G04 #@! TO.C,Z15*
X149860000Y-141605000D03*
X134620000Y-133985000D03*
X147320000Y-141605000D03*
X137160000Y-133985000D03*
X144780000Y-141605000D03*
X139700000Y-133985000D03*
X142240000Y-141605000D03*
X142240000Y-133985000D03*
X139700000Y-141605000D03*
X144780000Y-133985000D03*
X137160000Y-141605000D03*
X147320000Y-133985000D03*
X134620000Y-141605000D03*
D19*
X149860000Y-133985000D03*
G04 #@! TD*
D30*
G04 #@! TO.C,Z14*
X152400000Y-111125000D03*
X124460000Y-100965000D03*
X149860000Y-111125000D03*
X127000000Y-100965000D03*
X147320000Y-111125000D03*
X129540000Y-100965000D03*
X144780000Y-111125000D03*
X132080000Y-100965000D03*
X142240000Y-111125000D03*
X134620000Y-100965000D03*
X139700000Y-111125000D03*
X137160000Y-100965000D03*
X137160000Y-111125000D03*
X139700000Y-100965000D03*
X134620000Y-111125000D03*
X142240000Y-100965000D03*
X132080000Y-111125000D03*
X144780000Y-100965000D03*
X129540000Y-111125000D03*
X147320000Y-100965000D03*
X127000000Y-111125000D03*
X149860000Y-100965000D03*
X124460000Y-111125000D03*
D19*
X152400000Y-100965000D03*
G04 #@! TD*
D30*
G04 #@! TO.C,Z13*
X149860000Y-84455000D03*
X134620000Y-76835000D03*
X147320000Y-84455000D03*
X137160000Y-76835000D03*
X144780000Y-84455000D03*
X139700000Y-76835000D03*
X142240000Y-84455000D03*
X142240000Y-76835000D03*
X139700000Y-84455000D03*
X144780000Y-76835000D03*
X137160000Y-84455000D03*
X147320000Y-76835000D03*
X134620000Y-84455000D03*
D19*
X149860000Y-76835000D03*
G04 #@! TD*
D30*
G04 #@! TO.C,Z12*
X149860000Y-59055000D03*
X134620000Y-51435000D03*
X147320000Y-59055000D03*
X137160000Y-51435000D03*
X144780000Y-59055000D03*
X139700000Y-51435000D03*
X142240000Y-59055000D03*
X142240000Y-51435000D03*
X139700000Y-59055000D03*
X144780000Y-51435000D03*
X137160000Y-59055000D03*
X147320000Y-51435000D03*
X134620000Y-59055000D03*
D19*
X149860000Y-51435000D03*
G04 #@! TD*
D30*
G04 #@! TO.C,Z11*
X149860000Y-38735000D03*
X134620000Y-31115000D03*
X147320000Y-38735000D03*
X137160000Y-31115000D03*
X144780000Y-38735000D03*
X139700000Y-31115000D03*
X142240000Y-38735000D03*
X142240000Y-31115000D03*
X139700000Y-38735000D03*
X144780000Y-31115000D03*
X137160000Y-38735000D03*
X147320000Y-31115000D03*
X134620000Y-38735000D03*
D19*
X149860000Y-31115000D03*
G04 #@! TD*
D30*
G04 #@! TO.C,Z10*
X185420000Y-141605000D03*
X170180000Y-133985000D03*
X182880000Y-141605000D03*
X172720000Y-133985000D03*
X180340000Y-141605000D03*
X175260000Y-133985000D03*
X177800000Y-141605000D03*
X177800000Y-133985000D03*
X175260000Y-141605000D03*
X180340000Y-133985000D03*
X172720000Y-141605000D03*
X182880000Y-133985000D03*
X170180000Y-141605000D03*
D19*
X185420000Y-133985000D03*
G04 #@! TD*
D30*
G04 #@! TO.C,Z9*
X185420000Y-109855000D03*
X170180000Y-102235000D03*
X182880000Y-109855000D03*
X172720000Y-102235000D03*
X180340000Y-109855000D03*
X175260000Y-102235000D03*
X177800000Y-109855000D03*
X177800000Y-102235000D03*
X175260000Y-109855000D03*
X180340000Y-102235000D03*
X172720000Y-109855000D03*
X182880000Y-102235000D03*
X170180000Y-109855000D03*
D19*
X185420000Y-102235000D03*
G04 #@! TD*
D30*
G04 #@! TO.C,Z7*
X185420000Y-59055000D03*
X170180000Y-51435000D03*
X182880000Y-59055000D03*
X172720000Y-51435000D03*
X180340000Y-59055000D03*
X175260000Y-51435000D03*
X177800000Y-59055000D03*
X177800000Y-51435000D03*
X175260000Y-59055000D03*
X180340000Y-51435000D03*
X172720000Y-59055000D03*
X182880000Y-51435000D03*
X170180000Y-59055000D03*
D19*
X185420000Y-51435000D03*
G04 #@! TD*
D30*
G04 #@! TO.C,Z6*
X185420000Y-38735000D03*
X170180000Y-31115000D03*
X182880000Y-38735000D03*
X172720000Y-31115000D03*
X180340000Y-38735000D03*
X175260000Y-31115000D03*
X177800000Y-38735000D03*
X177800000Y-31115000D03*
X175260000Y-38735000D03*
X180340000Y-31115000D03*
X172720000Y-38735000D03*
X182880000Y-31115000D03*
X170180000Y-38735000D03*
D19*
X185420000Y-31115000D03*
G04 #@! TD*
D30*
G04 #@! TO.C,Z5*
X216535000Y-109855000D03*
X201295000Y-102235000D03*
X213995000Y-109855000D03*
X203835000Y-102235000D03*
X211455000Y-109855000D03*
X206375000Y-102235000D03*
X208915000Y-109855000D03*
X208915000Y-102235000D03*
X206375000Y-109855000D03*
X211455000Y-102235000D03*
X203835000Y-109855000D03*
X213995000Y-102235000D03*
X201295000Y-109855000D03*
D19*
X216535000Y-102235000D03*
G04 #@! TD*
D30*
G04 #@! TO.C,Z3*
X216535000Y-59055000D03*
X201295000Y-51435000D03*
X213995000Y-59055000D03*
X203835000Y-51435000D03*
X211455000Y-59055000D03*
X206375000Y-51435000D03*
X208915000Y-59055000D03*
X208915000Y-51435000D03*
X206375000Y-59055000D03*
X211455000Y-51435000D03*
X203835000Y-59055000D03*
X213995000Y-51435000D03*
X201295000Y-59055000D03*
D19*
X216535000Y-51435000D03*
G04 #@! TD*
D30*
G04 #@! TO.C,Z2*
X216535000Y-38735000D03*
X201295000Y-31115000D03*
X213995000Y-38735000D03*
X203835000Y-31115000D03*
X211455000Y-38735000D03*
X206375000Y-31115000D03*
X208915000Y-38735000D03*
X208915000Y-31115000D03*
X206375000Y-38735000D03*
X211455000Y-31115000D03*
X203835000Y-38735000D03*
X213995000Y-31115000D03*
X201295000Y-38735000D03*
D19*
X216535000Y-31115000D03*
G04 #@! TD*
D30*
G04 #@! TO.C,Z1*
X252095000Y-109855000D03*
X236855000Y-102235000D03*
X249555000Y-109855000D03*
X239395000Y-102235000D03*
X247015000Y-109855000D03*
X241935000Y-102235000D03*
X244475000Y-109855000D03*
X244475000Y-102235000D03*
X241935000Y-109855000D03*
X247015000Y-102235000D03*
X239395000Y-109855000D03*
X249555000Y-102235000D03*
X236855000Y-109855000D03*
D19*
X252095000Y-102235000D03*
G04 #@! TD*
D30*
G04 #@! TO.C,Z8*
X185420000Y-84455000D03*
X170180000Y-76835000D03*
X182880000Y-84455000D03*
X172720000Y-76835000D03*
X180340000Y-84455000D03*
X175260000Y-76835000D03*
X177800000Y-84455000D03*
X177800000Y-76835000D03*
X175260000Y-84455000D03*
X180340000Y-76835000D03*
X172720000Y-84455000D03*
X182880000Y-76835000D03*
X170180000Y-84455000D03*
D19*
X185420000Y-76835000D03*
G04 #@! TD*
M02*
