M48
INCH,TZ
T1C0.0300
T2C0.0394
%
G90
G05
T1
X54750Y-22406
X54750Y-23965
X54750Y-25524
X54750Y-27083
X54750Y-28642
X54750Y-30201
X54750Y-31760
X54750Y-33319
X54750Y-34878
X54750Y-36437
X54750Y-37996
X54750Y-39555
X54750Y-41114
X54750Y-42673
X54750Y-44232
X54750Y-45791
X54750Y-47350
X54750Y-48909
X54750Y-50469
X54750Y-52028
X54750Y-53587
X54750Y-55146
X54750Y-56705
X54750Y-58264
X54750Y-59823
X54750Y-61382
X54750Y-62941
X54750Y-64500
X56750Y-22406
X56750Y-23965
X56750Y-25524
X56750Y-27083
X56750Y-28642
X56750Y-30201
X56750Y-31760
X56750Y-33319
X56750Y-34878
X56750Y-36437
X56750Y-37996
X56750Y-39555
X56750Y-41114
X56750Y-42673
X56750Y-44232
X56750Y-45791
X56750Y-47350
X56750Y-48909
X56750Y-50469
X56750Y-52028
X56750Y-53587
X56750Y-55146
X56750Y-56705
X56750Y-58264
X56750Y-59823
X56750Y-61382
X56750Y-62941
X56750Y-64500
T2
X50500Y-18050
X50500Y-19050
X50500Y-20050
X50500Y-21050
X50500Y-22050
X50500Y-23050
X50500Y-24050
X50500Y-25050
X50500Y-28050
X50500Y-29050
X50500Y-30050
X50500Y-31050
X50500Y-32050
X50500Y-33050
X50500Y-34050
X50500Y-35050
X50500Y-36050
X50500Y-37050
X50500Y-38050
X50500Y-39050
X50500Y-40050
X50500Y-41050
X50500Y-42050
X50500Y-43050
X50500Y-44050
X50500Y-45050
X50500Y-46050
X50500Y-47050
X50500Y-48050
X50500Y-49050
X50500Y-50050
X50500Y-51050
X50500Y-52050
X50500Y-53050
X50500Y-54050
X50500Y-55050
X51500Y-18050
X51500Y-19050
X51500Y-20050
X51500Y-21050
X51500Y-22050
X51500Y-23050
X51500Y-24050
X51500Y-25050
X51500Y-28050
X51500Y-29050
X51500Y-30050
X51500Y-31050
X51500Y-32050
X51500Y-33050
X51500Y-34050
X51500Y-35050
X51500Y-36050
X51500Y-37050
X51500Y-38050
X51500Y-39050
X51500Y-40050
X51500Y-41050
X51500Y-42050
X51500Y-43050
X51500Y-44050
X51500Y-45050
X51500Y-46050
X51500Y-47050
X51500Y-48050
X51500Y-49050
X51500Y-50050
X51500Y-51050
X51500Y-52050
X51500Y-53050
X51500Y-54050
X51500Y-55050
X51500Y-62000
X51500Y-63000
X51500Y-64000
X51500Y-65000
X52250Y-14800
X52250Y-15800
X52500Y-28050
X52500Y-29050
X52500Y-30050
X52500Y-31050
X52500Y-32050
X52500Y-33050
X52500Y-34050
X52500Y-35050
X52500Y-36050
X52500Y-37050
X52500Y-38050
X52500Y-39050
X52500Y-40050
X52500Y-41050
X52500Y-42050
X52500Y-43050
X52500Y-44050
X52500Y-45050
X52500Y-46050
X52500Y-47050
X52500Y-48050
X52500Y-49050
X52500Y-50050
X52500Y-51050
X52500Y-52050
X52500Y-53050
X52500Y-54050
X52500Y-55050
X52500Y-62000
X52500Y-63000
X52500Y-64000
X52500Y-65000
X53250Y-14800
X53250Y-15800
X54250Y-14800
X54250Y-15800
X55250Y-14800
X55250Y-15800
X56250Y-14800
X56250Y-15800
X57250Y-14800
X57250Y-15800
X58250Y-14800
X58250Y-15800
X59000Y-28050
X59000Y-29050
X59000Y-30050
X59000Y-31050
X59000Y-32050
X59000Y-33050
X59000Y-34050
X59000Y-35050
X59000Y-36050
X59000Y-37050
X59000Y-38050
X59000Y-39050
X59000Y-40050
X59000Y-41050
X59000Y-42050
X59000Y-43050
X59000Y-44050
X59000Y-45050
X59000Y-46050
X59000Y-47050
X59000Y-48050
X59000Y-49050
X59000Y-50050
X59000Y-51050
X59000Y-52050
X59000Y-53050
X59000Y-54050
X59000Y-55050
X59000Y-62050
X59000Y-63050
X59000Y-64050
X59000Y-65050
X59250Y-14800
X59250Y-15800
X60000Y-18050
X60000Y-19050
X60000Y-20050
X60000Y-21050
X60000Y-22050
X60000Y-23050
X60000Y-24050
X60000Y-25050
X60000Y-28050
X60000Y-29050
X60000Y-30050
X60000Y-31050
X60000Y-32050
X60000Y-33050
X60000Y-34050
X60000Y-35050
X60000Y-36050
X60000Y-37050
X60000Y-38050
X60000Y-39050
X60000Y-40050
X60000Y-41050
X60000Y-42050
X60000Y-43050
X60000Y-44050
X60000Y-45050
X60000Y-46050
X60000Y-47050
X60000Y-48050
X60000Y-49050
X60000Y-50050
X60000Y-51050
X60000Y-52050
X60000Y-53050
X60000Y-54050
X60000Y-55050
X60000Y-62050
X60000Y-63050
X60000Y-64050
X60000Y-65050
X61000Y-18050
X61000Y-19050
X61000Y-20050
X61000Y-21050
X61000Y-22050
X61000Y-23050
X61000Y-24050
X61000Y-25050
X61000Y-28050
X61000Y-29050
X61000Y-30050
X61000Y-31050
X61000Y-32050
X61000Y-33050
X61000Y-34050
X61000Y-35050
X61000Y-36050
X61000Y-37050
X61000Y-38050
X61000Y-39050
X61000Y-40050
X61000Y-41050
X61000Y-42050
X61000Y-43050
X61000Y-44050
X61000Y-45050
X61000Y-46050
X61000Y-47050
X61000Y-48050
X61000Y-49050
X61000Y-50050
X61000Y-51050
X61000Y-52050
X61000Y-53050
X61000Y-54050
X61000Y-55050
T0
M30
