G04 #@! TF.GenerationSoftware,KiCad,Pcbnew,(5.1.12)-1*
G04 #@! TF.CreationDate,2023-03-25T16:11:04+00:00*
G04 #@! TF.ProjectId,Edge56,45646765-3536-42e6-9b69-6361645f7063,rev?*
G04 #@! TF.SameCoordinates,Original*
G04 #@! TF.FileFunction,Legend,Bot*
G04 #@! TF.FilePolarity,Positive*
%FSLAX46Y46*%
G04 Gerber Fmt 4.6, Leading zero omitted, Abs format (unit mm)*
G04 Created by KiCad (PCBNEW (5.1.12)-1) date 2023-03-25 16:11:04*
%MOMM*%
%LPD*%
G01*
G04 APERTURE LIST*
%ADD10C,0.120000*%
%ADD11C,0.150000*%
G04 APERTURE END LIST*
D10*
G04 #@! TO.C,J8*
X140715000Y-167920000D02*
X142495000Y-167920000D01*
X142495000Y-167920000D02*
X142495000Y-52820000D01*
X140715000Y-52820000D02*
X142495000Y-52820000D01*
X140715000Y-167920000D02*
X140715000Y-52820000D01*
X136905000Y-176320000D02*
X146305000Y-176320000D01*
X146305000Y-176320000D02*
X146305000Y-44420000D01*
X136905000Y-44420000D02*
X146305000Y-44420000D01*
X136905000Y-176320000D02*
X136905000Y-44420000D01*
X136905000Y-50770000D02*
X146305000Y-50770000D01*
X136905000Y-169970000D02*
X146305000Y-169970000D01*
X143585000Y-173140000D02*
G75*
G03*
X143585000Y-173140000I-1980000J0D01*
G01*
X143585000Y-47600000D02*
G75*
G03*
X143585000Y-47600000I-1980000J0D01*
G01*
X136525000Y-163830000D02*
X135255000Y-165100000D01*
X135255000Y-165100000D02*
X135255000Y-163195000D01*
X135255000Y-163195000D02*
X135255000Y-162560000D01*
X135255000Y-162560000D02*
X136525000Y-163830000D01*
D11*
X141938333Y-165822380D02*
X141938333Y-166536666D01*
X141985952Y-166679523D01*
X142081190Y-166774761D01*
X142224047Y-166822380D01*
X142319285Y-166822380D01*
X141319285Y-166250952D02*
X141414523Y-166203333D01*
X141462142Y-166155714D01*
X141509761Y-166060476D01*
X141509761Y-166012857D01*
X141462142Y-165917619D01*
X141414523Y-165870000D01*
X141319285Y-165822380D01*
X141128809Y-165822380D01*
X141033571Y-165870000D01*
X140985952Y-165917619D01*
X140938333Y-166012857D01*
X140938333Y-166060476D01*
X140985952Y-166155714D01*
X141033571Y-166203333D01*
X141128809Y-166250952D01*
X141319285Y-166250952D01*
X141414523Y-166298571D01*
X141462142Y-166346190D01*
X141509761Y-166441428D01*
X141509761Y-166631904D01*
X141462142Y-166727142D01*
X141414523Y-166774761D01*
X141319285Y-166822380D01*
X141128809Y-166822380D01*
X141033571Y-166774761D01*
X140985952Y-166727142D01*
X140938333Y-166631904D01*
X140938333Y-166441428D01*
X140985952Y-166346190D01*
X141033571Y-166298571D01*
X141128809Y-166250952D01*
G04 #@! TD*
M02*
