M48
INCH,TZ
T1C0.0157
T2C0.0276
T3C0.0315
%
G90
G05
T1
X19450Y-66750
X20765Y-15750
X24700Y-46100
X26350Y-23600
X26396Y-27200
X27519Y-24669
X28650Y-27200
X28750Y-8750
X28950Y-26600
X29650Y-12350
X29900Y-46100
X29946Y-39350
X29950Y-19100
X29950Y-25100
X29950Y-32600
X29950Y-52850
X30250Y-15800
X30250Y-22550
X30250Y-29350
X30250Y-36100
X30250Y-42850
X30250Y-49600
X30250Y-56400
X30250Y-60950
X30450Y-9100
X30900Y-6000
X30900Y-8400
X30900Y-15150
X30900Y-21900
X30900Y-28650
X30900Y-35400
X30900Y-42150
X30900Y-48900
X30900Y-55650
X30950Y-60400
X31550Y-6000
X31550Y-19500
X31550Y-33000
X31550Y-46500
X31550Y-26250
X31550Y-12750
X31550Y-39750
X31550Y-53250
X32250Y-58250
X33050Y-6600
X33050Y-13350
X33050Y-20100
X33050Y-33600
X33050Y-40350
X33050Y-47100
X33100Y-26850
X33100Y-53850
X34050Y-61800
X35267Y-58800
X35895Y-15145
X35895Y-21895
X35895Y-28645
X35895Y-35395
X35900Y-8400
X35900Y-48900
X35900Y-55600
X35900Y-59350
X35905Y-42145
X36550Y-9150
X36550Y-22600
X36550Y-15800
X36550Y-36100
X36550Y-49550
X36550Y-59900
X36550Y-56350
X36555Y-29355
X36555Y-42855
X37200Y-7800
X37200Y-11000
X37200Y-14600
X37200Y-21350
X37220Y-28070
X37220Y-34820
X37220Y-41570
X37230Y-48320
X37230Y-55070
X37650Y-3750
X37650Y-4250
X37668Y-3232
X37700Y-2750
X39050Y-9100
X39050Y-15800
X39050Y-22600
X39050Y-29350
X39050Y-36100
X39050Y-42850
X39050Y-49600
X39050Y-56350
X39050Y-60950
X39700Y-60400
X39700Y-15150
X39700Y-21900
X39700Y-28650
X39700Y-35400
X39700Y-42150
X39700Y-55650
X39700Y-48900
X39755Y-8395
X40250Y-67250
X40350Y-19500
X40350Y-26250
X40350Y-33000
X40350Y-39750
X40350Y-46500
X40350Y-53250
X40400Y-6000
X40400Y-12750
X40750Y-59900
X40950Y-2350
X41000Y-58250
X41700Y-59350
X41800Y-6600
X41800Y-13350
X41800Y-20100
X41800Y-26850
X41800Y-33600
X41800Y-40350
X41800Y-47100
X41850Y-53850
X42400Y-2050
X43176Y-14570
X43500Y-72900
X43950Y-58800
X44045Y-73600
X44650Y-15100
X44650Y-21900
X44650Y-28650
X44650Y-35400
X44650Y-42150
X44650Y-48900
X44650Y-55650
X44650Y-59350
X44655Y-8395
X44750Y-60950
X44900Y-72250
X45295Y-36105
X45300Y-9100
X45300Y-15850
X45300Y-29350
X45300Y-42850
X45300Y-49600
X45300Y-59900
X45300Y-22600
X45305Y-56355
X45800Y-60400
X45930Y-7820
X45930Y-11700
X45930Y-34820
X45950Y-28050
X45950Y-41550
X45950Y-48300
X45950Y-55050
X45950Y-14600
X45950Y-21300
X46700Y-59350
X49200Y-1200
X50300Y-11000
X50300Y-1550
X51050Y-22600
X51050Y-29350
X51050Y-36100
X51050Y-42850
X51050Y-49600
X51050Y-56350
X51050Y-60950
X51055Y-15855
X51105Y-9105
X51700Y-8400
X51700Y-15150
X51700Y-21900
X51700Y-28650
X51700Y-35400
X51700Y-42150
X51700Y-48900
X51700Y-55650
X51700Y-60400
X52350Y-900
X52350Y-6000
X52350Y-12750
X52350Y-39750
X52350Y-46500
X52350Y-19500
X52350Y-26250
X52350Y-33000
X52350Y-53250
X53000Y-58250
X53550Y-3750
X53552Y-2750
X53568Y-3232
X53600Y-4250
X53800Y-6600
X53800Y-13350
X53800Y-20100
X53800Y-26850
X53800Y-40350
X53800Y-47100
X53850Y-33600
X53850Y-53850
X54200Y-64800
X54300Y-1550
X54600Y-1200
X55400Y-350
X55900Y-5200
X56000Y-58800
X56250Y-4700
X56600Y-59350
X56645Y-55645
X56650Y-28650
X56650Y-8400
X56650Y-15150
X56650Y-21900
X56650Y-35400
X56650Y-42150
X56650Y-48900
X57100Y-1800
X57100Y-2250
X57100Y-2700
X57295Y-15855
X57300Y-22600
X57300Y-29350
X57300Y-36100
X57300Y-42850
X57300Y-49550
X57300Y-56350
X57305Y-9105
X57350Y-59900
X57900Y-5200
X57920Y-21320
X57920Y-7820
X57920Y-14570
X57930Y-28070
X57950Y-34800
X57950Y-48200
X57950Y-55000
X57950Y-41500
X58150Y-2750
X58250Y-700
X58400Y-1650
X58850Y-1100
X58850Y-1494
X59850Y-29350
X59850Y-15850
X59850Y-22600
X59850Y-36100
X59850Y-42850
X59850Y-49600
X59850Y-56350
X59850Y-60950
X59855Y-9105
X60500Y-8395
X60500Y-15145
X60500Y-21900
X60500Y-28650
X60500Y-35400
X60500Y-42200
X60500Y-48900
X60500Y-55650
X60500Y-60400
X61030Y-54420
X61100Y-19500
X61100Y-26250
X61100Y-33000
X61100Y-39750
X61100Y-46500
X61100Y-53250
X61150Y-6000
X61150Y-12750
X61750Y-58250
X62550Y-13350
X62550Y-20100
X62550Y-33600
X62550Y-40350
X62550Y-47100
X62600Y-6600
X62600Y-26850
X62600Y-53850
X62800Y-59150
X63150Y-60500
X63400Y-65150
X63500Y-60950
X64050Y-66100
X64750Y-58800
X65250Y-64850
X65350Y-700
X65400Y-8450
X65400Y-15150
X65400Y-21900
X65400Y-28650
X65400Y-35400
X65400Y-42150
X65400Y-48900
X65400Y-55650
X65400Y-59150
X65650Y-65000
X65850Y-66450
X66045Y-9105
X66050Y-22605
X66050Y-29400
X66050Y-36105
X66050Y-42855
X66050Y-49600
X66050Y-56350
X66050Y-15800
X66150Y-62650
X66200Y-1100
X66650Y-4700
X66700Y-34800
X66700Y-7800
X66700Y-14600
X66700Y-28000
X66700Y-41550
X66700Y-55050
X66700Y-48300
X66700Y-21300
X67050Y-19500
X67050Y-26250
X67050Y-33000
X67050Y-39750
X67050Y-46550
X67067Y-6000
X67084Y-53250
X67500Y-38800
X67500Y-8250
X67500Y-14750
X67500Y-19350
X67500Y-22600
X67500Y-25800
X67500Y-29050
X67500Y-32300
X67500Y-35600
X67500Y-42100
X67500Y-57350
X67500Y-64800
X67500Y-68100
X67502Y-4998
X67502Y-11548
X67800Y-49600
X67848Y-52850
X67850Y-44100
X68050Y-58350
X68050Y-12000
X68200Y-2200
X68250Y-45750
X68350Y-60650
X68500Y-2900
T2
X22250Y-70000
X23250Y-71000
X24250Y-70000
X26750Y-70000
X27750Y-69000
X28750Y-70000
X31250Y-70000
X32250Y-71000
X33250Y-70000
X53500Y-70000
X54500Y-71000
X55500Y-70000
X58000Y-70000
X59000Y-69000
X60000Y-70000
X62500Y-70000
X63500Y-71000
X64500Y-70000
T3
X20750Y-55750
X20750Y-57719
X21750Y-7750
X21750Y-8750
X21750Y-9750
X21750Y-10750
X21750Y-11750
X21750Y-12750
X21750Y-13750
X21750Y-19000
X21750Y-20000
X21750Y-21000
X21750Y-22000
X21750Y-23000
X21750Y-24000
X21750Y-25000
X21750Y-26000
X21750Y-34750
X21750Y-35750
X21750Y-36750
X21750Y-37750
X21750Y-38750
X21750Y-39750
X21750Y-40750
X21750Y-46750
X21750Y-47750
X21750Y-48750
X21750Y-49750
X21750Y-50750
X21750Y-51750
X21750Y-52750
X21750Y-53750
X21750Y-59250
X21750Y-60250
X21750Y-61250
X21750Y-62250
X21750Y-63250
X21750Y-64250
X21750Y-65250
X22500Y-6000
X22750Y-67250
X23250Y-56000
X23250Y-57250
X23500Y-15750
X23500Y-17000
X23500Y-29000
X23500Y-30250
X23500Y-31500
X23500Y-32750
X23500Y-42500
X23500Y-43750
X24750Y-7750
X24750Y-8750
X24750Y-9750
X24750Y-10750
X24750Y-11750
X24750Y-12750
X24750Y-13750
X24750Y-19000
X24750Y-20000
X24750Y-21000
X24750Y-22000
X24750Y-23000
X24750Y-24000
X24750Y-25000
X24750Y-26000
X24750Y-34750
X24750Y-35750
X24750Y-36750
X24750Y-37750
X24750Y-38750
X24750Y-39750
X24750Y-40750
X24750Y-46750
X24750Y-47750
X24750Y-48750
X24750Y-49750
X24750Y-50750
X24750Y-51750
X24750Y-52750
X24750Y-53750
X24750Y-59250
X24750Y-60250
X24750Y-61250
X24750Y-62250
X24750Y-63250
X24750Y-64250
X24750Y-65250
X26500Y-6000
X26750Y-62766
X26750Y-63750
X26750Y-67250
X27250Y-56000
X27250Y-57250
X27500Y-6000
X27500Y-10000
X27500Y-12000
X27500Y-13969
X27500Y-15750
X27500Y-17000
X27500Y-29000
X27500Y-30250
X27500Y-31500
X27500Y-32750
X27500Y-42500
X27500Y-43750
X28500Y-63250
X28500Y-67250
X28750Y-6000
X28750Y-10000
X29750Y-63250
X29750Y-67250
X30000Y-6000
X30000Y-10000
X31000Y-63250
X31000Y-67250
X32250Y-64250
X32250Y-66219
X32657Y-8395
X32657Y-9105
X32657Y-15145
X32657Y-15855
X32657Y-21895
X32657Y-22605
X32657Y-28645
X32657Y-29355
X32657Y-35395
X32657Y-36105
X32657Y-42145
X32657Y-42855
X32657Y-48895
X32657Y-49605
X32657Y-55645
X32657Y-56355
X33074Y-7820
X33074Y-9680
X33074Y-14570
X33074Y-16430
X33074Y-21320
X33074Y-23180
X33074Y-28070
X33074Y-29930
X33074Y-34820
X33074Y-36680
X33074Y-41570
X33074Y-43430
X33074Y-48320
X33074Y-50180
X33074Y-55070
X33074Y-56930
X33750Y-7600
X33750Y-9900
X33750Y-14350
X33750Y-16650
X33750Y-21100
X33750Y-23400
X33750Y-27850
X33750Y-30150
X33750Y-34600
X33750Y-36900
X33750Y-41350
X33750Y-43650
X33750Y-48100
X33750Y-50400
X33750Y-54850
X33750Y-57150
X34000Y-64016
X34000Y-65000
X34426Y-7820
X34426Y-9680
X34426Y-14570
X34426Y-16430
X34426Y-21320
X34426Y-23180
X34426Y-28070
X34426Y-29930
X34426Y-34820
X34426Y-36680
X34426Y-41570
X34426Y-43430
X34426Y-48320
X34426Y-50180
X34426Y-55070
X34426Y-56930
X34843Y-8395
X34843Y-9105
X34843Y-15145
X34843Y-15855
X34843Y-21895
X34843Y-22605
X34843Y-28645
X34843Y-29355
X34843Y-35395
X34843Y-36105
X34843Y-42145
X34843Y-42855
X34843Y-48895
X34843Y-49605
X34843Y-55645
X34843Y-56355
X35750Y-62750
X35750Y-66750
X37000Y-63281
X37000Y-65250
X40250Y-62250
X40250Y-65250
X40927Y-72250
X41250Y-62250
X41250Y-65250
X41407Y-8395
X41407Y-9105
X41407Y-15145
X41407Y-15855
X41407Y-21895
X41407Y-22605
X41407Y-28645
X41407Y-29355
X41407Y-35395
X41407Y-36105
X41407Y-42145
X41407Y-42855
X41407Y-48895
X41407Y-49605
X41407Y-55645
X41407Y-56355
X41824Y-7820
X41824Y-9680
X41824Y-14570
X41824Y-16430
X41824Y-21320
X41824Y-23180
X41824Y-28070
X41824Y-29930
X41824Y-34820
X41824Y-36680
X41824Y-41570
X41824Y-43430
X41824Y-48320
X41824Y-50180
X41824Y-55070
X41824Y-56930
X42250Y-62250
X42250Y-65250
X42486Y-72723
X42500Y-7600
X42500Y-9900
X42500Y-14350
X42500Y-16650
X42500Y-21100
X42500Y-23400
X42500Y-27850
X42500Y-30150
X42500Y-34600
X42500Y-36900
X42500Y-41350
X42500Y-43650
X42500Y-48100
X42500Y-50400
X42500Y-54850
X42500Y-57150
X43176Y-7820
X43176Y-9680
X43176Y-14570
X43176Y-16430
X43176Y-21320
X43176Y-23180
X43176Y-28070
X43176Y-29930
X43176Y-34820
X43176Y-36680
X43176Y-41570
X43176Y-43430
X43176Y-48320
X43176Y-50180
X43176Y-55070
X43176Y-56930
X43250Y-62250
X43250Y-65250
X43593Y-8395
X43593Y-9105
X43593Y-15145
X43593Y-15855
X43593Y-21895
X43593Y-22605
X43593Y-28645
X43593Y-29355
X43593Y-35395
X43593Y-36105
X43593Y-42145
X43593Y-42855
X43593Y-48895
X43593Y-49605
X43593Y-55645
X43593Y-56355
X44250Y-62250
X44250Y-65250
X44750Y-68516
X44750Y-69500
X45250Y-62250
X45250Y-65250
X46250Y-62250
X46250Y-65250
X47300Y-70950
X48081Y-63231
X48722Y-71650
X48750Y-8031
X48750Y-10000
X48750Y-14781
X48750Y-16750
X48750Y-21531
X48750Y-23500
X48750Y-28281
X48750Y-30250
X48750Y-35266
X48750Y-36250
X48750Y-41781
X48750Y-43750
X48750Y-48531
X48750Y-50500
X48750Y-55531
X48750Y-57500
X48750Y-68281
X48750Y-70250
X53000Y-62000
X53000Y-66000
X53407Y-8395
X53407Y-9105
X53407Y-15145
X53407Y-15855
X53407Y-21895
X53407Y-22605
X53407Y-28645
X53407Y-29355
X53407Y-35395
X53407Y-36105
X53407Y-42145
X53407Y-42855
X53407Y-48895
X53407Y-49605
X53407Y-55645
X53407Y-56355
X53824Y-7820
X53824Y-9680
X53824Y-14570
X53824Y-16430
X53824Y-21320
X53824Y-23180
X53824Y-28070
X53824Y-29930
X53824Y-34820
X53824Y-36680
X53824Y-41570
X53824Y-43430
X53824Y-48320
X53824Y-50180
X53824Y-55070
X53824Y-56930
X54500Y-7600
X54500Y-9900
X54500Y-14350
X54500Y-16650
X54500Y-21100
X54500Y-23400
X54500Y-27850
X54500Y-30150
X54500Y-34600
X54500Y-36900
X54500Y-41350
X54500Y-43650
X54500Y-48100
X54500Y-50400
X54500Y-54850
X54500Y-57150
X55176Y-7820
X55176Y-9680
X55176Y-14570
X55176Y-16430
X55176Y-21320
X55176Y-23180
X55176Y-28070
X55176Y-29930
X55176Y-34820
X55176Y-36680
X55176Y-41570
X55176Y-43430
X55176Y-48320
X55176Y-50180
X55176Y-55070
X55176Y-56930
X55593Y-8395
X55593Y-9105
X55593Y-15145
X55593Y-15855
X55593Y-21895
X55593Y-22605
X55593Y-28645
X55593Y-29355
X55593Y-35395
X55593Y-36105
X55593Y-42145
X55593Y-42855
X55593Y-48895
X55593Y-49605
X55593Y-55645
X55593Y-56355
X56500Y-63250
X56500Y-67250
X57750Y-63250
X57750Y-67250
X59000Y-63250
X59000Y-67250
X60250Y-63250
X60250Y-67250
X61500Y-64500
X61500Y-66469
X62050Y-60000
X62157Y-8395
X62157Y-9105
X62157Y-15145
X62157Y-15855
X62157Y-21895
X62157Y-22605
X62157Y-28645
X62157Y-29355
X62157Y-35395
X62157Y-36105
X62157Y-42145
X62157Y-42855
X62157Y-48895
X62157Y-49605
X62157Y-55645
X62157Y-56355
X62574Y-7820
X62574Y-9680
X62574Y-14570
X62574Y-16430
X62574Y-21320
X62574Y-23180
X62574Y-28070
X62574Y-29930
X62574Y-34820
X62574Y-36680
X62574Y-41570
X62574Y-43430
X62574Y-48320
X62574Y-50180
X62574Y-55070
X62574Y-56930
X63250Y-7600
X63250Y-9900
X63250Y-14350
X63250Y-16650
X63250Y-21100
X63250Y-23400
X63250Y-27850
X63250Y-30150
X63250Y-34600
X63250Y-36900
X63250Y-41350
X63250Y-43650
X63250Y-48100
X63250Y-50400
X63250Y-54850
X63250Y-57150
X63926Y-7820
X63926Y-9680
X63926Y-14570
X63926Y-16430
X63926Y-21320
X63926Y-23180
X63926Y-28070
X63926Y-29930
X63926Y-34820
X63926Y-36680
X63926Y-41570
X63926Y-43430
X63926Y-48320
X63926Y-50180
X63926Y-55070
X63926Y-56930
X64343Y-8395
X64343Y-9105
X64343Y-15145
X64343Y-15855
X64343Y-21895
X64343Y-22605
X64343Y-28645
X64343Y-29355
X64343Y-35395
X64343Y-36105
X64343Y-42145
X64343Y-42855
X64343Y-48895
X64343Y-49605
X64343Y-55645
X64343Y-56355
X66050Y-60000
T0
M30
