G04 #@! TF.GenerationSoftware,KiCad,Pcbnew,(5.1.12)-1*
G04 #@! TF.CreationDate,2023-07-18T15:35:10+01:00*
G04 #@! TF.ProjectId,Memory,4d656d6f-7279-42e6-9b69-6361645f7063,rev?*
G04 #@! TF.SameCoordinates,Original*
G04 #@! TF.FileFunction,Soldermask,Top*
G04 #@! TF.FilePolarity,Negative*
%FSLAX46Y46*%
G04 Gerber Fmt 4.6, Leading zero omitted, Abs format (unit mm)*
G04 Created by KiCad (PCBNEW (5.1.12)-1) date 2023-07-18 15:35:10*
%MOMM*%
%LPD*%
G01*
G04 APERTURE LIST*
%ADD10C,3.200000*%
%ADD11R,2.000000X0.350000*%
%ADD12R,1.000000X2.000000*%
%ADD13O,1.600000X1.600000*%
%ADD14R,1.600000X1.600000*%
%ADD15C,1.600000*%
%ADD16O,1.500000X1.500000*%
%ADD17O,1.200000X1.200000*%
%ADD18O,1.600000X1.200000*%
%ADD19R,2.000000X9.000000*%
G04 APERTURE END LIST*
D10*
X172085000Y-1905000D03*
X47625000Y-17145000D03*
G36*
G01*
X86175000Y-135705001D02*
X86175000Y-134804999D01*
G75*
G02*
X86424999Y-134555000I249999J0D01*
G01*
X87075001Y-134555000D01*
G75*
G02*
X87325000Y-134804999I0J-249999D01*
G01*
X87325000Y-135705001D01*
G75*
G02*
X87075001Y-135955000I-249999J0D01*
G01*
X86424999Y-135955000D01*
G75*
G02*
X86175000Y-135705001I0J249999D01*
G01*
G37*
G36*
G01*
X84125000Y-135705001D02*
X84125000Y-134804999D01*
G75*
G02*
X84374999Y-134555000I249999J0D01*
G01*
X85025001Y-134555000D01*
G75*
G02*
X85275000Y-134804999I0J-249999D01*
G01*
X85275000Y-135705001D01*
G75*
G02*
X85025001Y-135955000I-249999J0D01*
G01*
X84374999Y-135955000D01*
G75*
G02*
X84125000Y-135705001I0J249999D01*
G01*
G37*
G36*
G01*
X108400000Y-135705001D02*
X108400000Y-134804999D01*
G75*
G02*
X108649999Y-134555000I249999J0D01*
G01*
X109300001Y-134555000D01*
G75*
G02*
X109550000Y-134804999I0J-249999D01*
G01*
X109550000Y-135705001D01*
G75*
G02*
X109300001Y-135955000I-249999J0D01*
G01*
X108649999Y-135955000D01*
G75*
G02*
X108400000Y-135705001I0J249999D01*
G01*
G37*
G36*
G01*
X106350000Y-135705001D02*
X106350000Y-134804999D01*
G75*
G02*
X106599999Y-134555000I249999J0D01*
G01*
X107250001Y-134555000D01*
G75*
G02*
X107500000Y-134804999I0J-249999D01*
G01*
X107500000Y-135705001D01*
G75*
G02*
X107250001Y-135955000I-249999J0D01*
G01*
X106599999Y-135955000D01*
G75*
G02*
X106350000Y-135705001I0J249999D01*
G01*
G37*
G36*
G01*
X138880000Y-135705001D02*
X138880000Y-134804999D01*
G75*
G02*
X139129999Y-134555000I249999J0D01*
G01*
X139780001Y-134555000D01*
G75*
G02*
X140030000Y-134804999I0J-249999D01*
G01*
X140030000Y-135705001D01*
G75*
G02*
X139780001Y-135955000I-249999J0D01*
G01*
X139129999Y-135955000D01*
G75*
G02*
X138880000Y-135705001I0J249999D01*
G01*
G37*
G36*
G01*
X136830000Y-135705001D02*
X136830000Y-134804999D01*
G75*
G02*
X137079999Y-134555000I249999J0D01*
G01*
X137730001Y-134555000D01*
G75*
G02*
X137980000Y-134804999I0J-249999D01*
G01*
X137980000Y-135705001D01*
G75*
G02*
X137730001Y-135955000I-249999J0D01*
G01*
X137079999Y-135955000D01*
G75*
G02*
X136830000Y-135705001I0J249999D01*
G01*
G37*
G36*
G01*
X161105000Y-135705001D02*
X161105000Y-134804999D01*
G75*
G02*
X161354999Y-134555000I249999J0D01*
G01*
X162005001Y-134555000D01*
G75*
G02*
X162255000Y-134804999I0J-249999D01*
G01*
X162255000Y-135705001D01*
G75*
G02*
X162005001Y-135955000I-249999J0D01*
G01*
X161354999Y-135955000D01*
G75*
G02*
X161105000Y-135705001I0J249999D01*
G01*
G37*
G36*
G01*
X159055000Y-135705001D02*
X159055000Y-134804999D01*
G75*
G02*
X159304999Y-134555000I249999J0D01*
G01*
X159955001Y-134555000D01*
G75*
G02*
X160205000Y-134804999I0J-249999D01*
G01*
X160205000Y-135705001D01*
G75*
G02*
X159955001Y-135955000I-249999J0D01*
G01*
X159304999Y-135955000D01*
G75*
G02*
X159055000Y-135705001I0J249999D01*
G01*
G37*
G36*
G01*
X86175000Y-118560001D02*
X86175000Y-117659999D01*
G75*
G02*
X86424999Y-117410000I249999J0D01*
G01*
X87075001Y-117410000D01*
G75*
G02*
X87325000Y-117659999I0J-249999D01*
G01*
X87325000Y-118560001D01*
G75*
G02*
X87075001Y-118810000I-249999J0D01*
G01*
X86424999Y-118810000D01*
G75*
G02*
X86175000Y-118560001I0J249999D01*
G01*
G37*
G36*
G01*
X84125000Y-118560001D02*
X84125000Y-117659999D01*
G75*
G02*
X84374999Y-117410000I249999J0D01*
G01*
X85025001Y-117410000D01*
G75*
G02*
X85275000Y-117659999I0J-249999D01*
G01*
X85275000Y-118560001D01*
G75*
G02*
X85025001Y-118810000I-249999J0D01*
G01*
X84374999Y-118810000D01*
G75*
G02*
X84125000Y-118560001I0J249999D01*
G01*
G37*
G36*
G01*
X108400000Y-118560001D02*
X108400000Y-117659999D01*
G75*
G02*
X108649999Y-117410000I249999J0D01*
G01*
X109300001Y-117410000D01*
G75*
G02*
X109550000Y-117659999I0J-249999D01*
G01*
X109550000Y-118560001D01*
G75*
G02*
X109300001Y-118810000I-249999J0D01*
G01*
X108649999Y-118810000D01*
G75*
G02*
X108400000Y-118560001I0J249999D01*
G01*
G37*
G36*
G01*
X106350000Y-118560001D02*
X106350000Y-117659999D01*
G75*
G02*
X106599999Y-117410000I249999J0D01*
G01*
X107250001Y-117410000D01*
G75*
G02*
X107500000Y-117659999I0J-249999D01*
G01*
X107500000Y-118560001D01*
G75*
G02*
X107250001Y-118810000I-249999J0D01*
G01*
X106599999Y-118810000D01*
G75*
G02*
X106350000Y-118560001I0J249999D01*
G01*
G37*
G36*
G01*
X138880000Y-118560001D02*
X138880000Y-117659999D01*
G75*
G02*
X139129999Y-117410000I249999J0D01*
G01*
X139780001Y-117410000D01*
G75*
G02*
X140030000Y-117659999I0J-249999D01*
G01*
X140030000Y-118560001D01*
G75*
G02*
X139780001Y-118810000I-249999J0D01*
G01*
X139129999Y-118810000D01*
G75*
G02*
X138880000Y-118560001I0J249999D01*
G01*
G37*
G36*
G01*
X136830000Y-118560001D02*
X136830000Y-117659999D01*
G75*
G02*
X137079999Y-117410000I249999J0D01*
G01*
X137730001Y-117410000D01*
G75*
G02*
X137980000Y-117659999I0J-249999D01*
G01*
X137980000Y-118560001D01*
G75*
G02*
X137730001Y-118810000I-249999J0D01*
G01*
X137079999Y-118810000D01*
G75*
G02*
X136830000Y-118560001I0J249999D01*
G01*
G37*
G36*
G01*
X161105000Y-118560001D02*
X161105000Y-117659999D01*
G75*
G02*
X161354999Y-117410000I249999J0D01*
G01*
X162005001Y-117410000D01*
G75*
G02*
X162255000Y-117659999I0J-249999D01*
G01*
X162255000Y-118560001D01*
G75*
G02*
X162005001Y-118810000I-249999J0D01*
G01*
X161354999Y-118810000D01*
G75*
G02*
X161105000Y-118560001I0J249999D01*
G01*
G37*
G36*
G01*
X159055000Y-118560001D02*
X159055000Y-117659999D01*
G75*
G02*
X159304999Y-117410000I249999J0D01*
G01*
X159955001Y-117410000D01*
G75*
G02*
X160205000Y-117659999I0J-249999D01*
G01*
X160205000Y-118560001D01*
G75*
G02*
X159955001Y-118810000I-249999J0D01*
G01*
X159304999Y-118810000D01*
G75*
G02*
X159055000Y-118560001I0J249999D01*
G01*
G37*
G36*
G01*
X86175000Y-101415001D02*
X86175000Y-100514999D01*
G75*
G02*
X86424999Y-100265000I249999J0D01*
G01*
X87075001Y-100265000D01*
G75*
G02*
X87325000Y-100514999I0J-249999D01*
G01*
X87325000Y-101415001D01*
G75*
G02*
X87075001Y-101665000I-249999J0D01*
G01*
X86424999Y-101665000D01*
G75*
G02*
X86175000Y-101415001I0J249999D01*
G01*
G37*
G36*
G01*
X84125000Y-101415001D02*
X84125000Y-100514999D01*
G75*
G02*
X84374999Y-100265000I249999J0D01*
G01*
X85025001Y-100265000D01*
G75*
G02*
X85275000Y-100514999I0J-249999D01*
G01*
X85275000Y-101415001D01*
G75*
G02*
X85025001Y-101665000I-249999J0D01*
G01*
X84374999Y-101665000D01*
G75*
G02*
X84125000Y-101415001I0J249999D01*
G01*
G37*
G36*
G01*
X108400000Y-101415001D02*
X108400000Y-100514999D01*
G75*
G02*
X108649999Y-100265000I249999J0D01*
G01*
X109300001Y-100265000D01*
G75*
G02*
X109550000Y-100514999I0J-249999D01*
G01*
X109550000Y-101415001D01*
G75*
G02*
X109300001Y-101665000I-249999J0D01*
G01*
X108649999Y-101665000D01*
G75*
G02*
X108400000Y-101415001I0J249999D01*
G01*
G37*
G36*
G01*
X106350000Y-101415001D02*
X106350000Y-100514999D01*
G75*
G02*
X106599999Y-100265000I249999J0D01*
G01*
X107250001Y-100265000D01*
G75*
G02*
X107500000Y-100514999I0J-249999D01*
G01*
X107500000Y-101415001D01*
G75*
G02*
X107250001Y-101665000I-249999J0D01*
G01*
X106599999Y-101665000D01*
G75*
G02*
X106350000Y-101415001I0J249999D01*
G01*
G37*
G36*
G01*
X138880000Y-101415001D02*
X138880000Y-100514999D01*
G75*
G02*
X139129999Y-100265000I249999J0D01*
G01*
X139780001Y-100265000D01*
G75*
G02*
X140030000Y-100514999I0J-249999D01*
G01*
X140030000Y-101415001D01*
G75*
G02*
X139780001Y-101665000I-249999J0D01*
G01*
X139129999Y-101665000D01*
G75*
G02*
X138880000Y-101415001I0J249999D01*
G01*
G37*
G36*
G01*
X136830000Y-101415001D02*
X136830000Y-100514999D01*
G75*
G02*
X137079999Y-100265000I249999J0D01*
G01*
X137730001Y-100265000D01*
G75*
G02*
X137980000Y-100514999I0J-249999D01*
G01*
X137980000Y-101415001D01*
G75*
G02*
X137730001Y-101665000I-249999J0D01*
G01*
X137079999Y-101665000D01*
G75*
G02*
X136830000Y-101415001I0J249999D01*
G01*
G37*
G36*
G01*
X161105000Y-101415001D02*
X161105000Y-100514999D01*
G75*
G02*
X161354999Y-100265000I249999J0D01*
G01*
X162005001Y-100265000D01*
G75*
G02*
X162255000Y-100514999I0J-249999D01*
G01*
X162255000Y-101415001D01*
G75*
G02*
X162005001Y-101665000I-249999J0D01*
G01*
X161354999Y-101665000D01*
G75*
G02*
X161105000Y-101415001I0J249999D01*
G01*
G37*
G36*
G01*
X159055000Y-101415001D02*
X159055000Y-100514999D01*
G75*
G02*
X159304999Y-100265000I249999J0D01*
G01*
X159955001Y-100265000D01*
G75*
G02*
X160205000Y-100514999I0J-249999D01*
G01*
X160205000Y-101415001D01*
G75*
G02*
X159955001Y-101665000I-249999J0D01*
G01*
X159304999Y-101665000D01*
G75*
G02*
X159055000Y-101415001I0J249999D01*
G01*
G37*
G36*
G01*
X86175000Y-84270001D02*
X86175000Y-83369999D01*
G75*
G02*
X86424999Y-83120000I249999J0D01*
G01*
X87075001Y-83120000D01*
G75*
G02*
X87325000Y-83369999I0J-249999D01*
G01*
X87325000Y-84270001D01*
G75*
G02*
X87075001Y-84520000I-249999J0D01*
G01*
X86424999Y-84520000D01*
G75*
G02*
X86175000Y-84270001I0J249999D01*
G01*
G37*
G36*
G01*
X84125000Y-84270001D02*
X84125000Y-83369999D01*
G75*
G02*
X84374999Y-83120000I249999J0D01*
G01*
X85025001Y-83120000D01*
G75*
G02*
X85275000Y-83369999I0J-249999D01*
G01*
X85275000Y-84270001D01*
G75*
G02*
X85025001Y-84520000I-249999J0D01*
G01*
X84374999Y-84520000D01*
G75*
G02*
X84125000Y-84270001I0J249999D01*
G01*
G37*
G36*
G01*
X108400000Y-84270001D02*
X108400000Y-83369999D01*
G75*
G02*
X108649999Y-83120000I249999J0D01*
G01*
X109300001Y-83120000D01*
G75*
G02*
X109550000Y-83369999I0J-249999D01*
G01*
X109550000Y-84270001D01*
G75*
G02*
X109300001Y-84520000I-249999J0D01*
G01*
X108649999Y-84520000D01*
G75*
G02*
X108400000Y-84270001I0J249999D01*
G01*
G37*
G36*
G01*
X106350000Y-84270001D02*
X106350000Y-83369999D01*
G75*
G02*
X106599999Y-83120000I249999J0D01*
G01*
X107250001Y-83120000D01*
G75*
G02*
X107500000Y-83369999I0J-249999D01*
G01*
X107500000Y-84270001D01*
G75*
G02*
X107250001Y-84520000I-249999J0D01*
G01*
X106599999Y-84520000D01*
G75*
G02*
X106350000Y-84270001I0J249999D01*
G01*
G37*
G36*
G01*
X138880000Y-84270001D02*
X138880000Y-83369999D01*
G75*
G02*
X139129999Y-83120000I249999J0D01*
G01*
X139780001Y-83120000D01*
G75*
G02*
X140030000Y-83369999I0J-249999D01*
G01*
X140030000Y-84270001D01*
G75*
G02*
X139780001Y-84520000I-249999J0D01*
G01*
X139129999Y-84520000D01*
G75*
G02*
X138880000Y-84270001I0J249999D01*
G01*
G37*
G36*
G01*
X136830000Y-84270001D02*
X136830000Y-83369999D01*
G75*
G02*
X137079999Y-83120000I249999J0D01*
G01*
X137730001Y-83120000D01*
G75*
G02*
X137980000Y-83369999I0J-249999D01*
G01*
X137980000Y-84270001D01*
G75*
G02*
X137730001Y-84520000I-249999J0D01*
G01*
X137079999Y-84520000D01*
G75*
G02*
X136830000Y-84270001I0J249999D01*
G01*
G37*
G36*
G01*
X161105000Y-84270001D02*
X161105000Y-83369999D01*
G75*
G02*
X161354999Y-83120000I249999J0D01*
G01*
X162005001Y-83120000D01*
G75*
G02*
X162255000Y-83369999I0J-249999D01*
G01*
X162255000Y-84270001D01*
G75*
G02*
X162005001Y-84520000I-249999J0D01*
G01*
X161354999Y-84520000D01*
G75*
G02*
X161105000Y-84270001I0J249999D01*
G01*
G37*
G36*
G01*
X159055000Y-84270001D02*
X159055000Y-83369999D01*
G75*
G02*
X159304999Y-83120000I249999J0D01*
G01*
X159955001Y-83120000D01*
G75*
G02*
X160205000Y-83369999I0J-249999D01*
G01*
X160205000Y-84270001D01*
G75*
G02*
X159955001Y-84520000I-249999J0D01*
G01*
X159304999Y-84520000D01*
G75*
G02*
X159055000Y-84270001I0J249999D01*
G01*
G37*
G36*
G01*
X86175000Y-67125001D02*
X86175000Y-66224999D01*
G75*
G02*
X86424999Y-65975000I249999J0D01*
G01*
X87075001Y-65975000D01*
G75*
G02*
X87325000Y-66224999I0J-249999D01*
G01*
X87325000Y-67125001D01*
G75*
G02*
X87075001Y-67375000I-249999J0D01*
G01*
X86424999Y-67375000D01*
G75*
G02*
X86175000Y-67125001I0J249999D01*
G01*
G37*
G36*
G01*
X84125000Y-67125001D02*
X84125000Y-66224999D01*
G75*
G02*
X84374999Y-65975000I249999J0D01*
G01*
X85025001Y-65975000D01*
G75*
G02*
X85275000Y-66224999I0J-249999D01*
G01*
X85275000Y-67125001D01*
G75*
G02*
X85025001Y-67375000I-249999J0D01*
G01*
X84374999Y-67375000D01*
G75*
G02*
X84125000Y-67125001I0J249999D01*
G01*
G37*
G36*
G01*
X108400000Y-67125001D02*
X108400000Y-66224999D01*
G75*
G02*
X108649999Y-65975000I249999J0D01*
G01*
X109300001Y-65975000D01*
G75*
G02*
X109550000Y-66224999I0J-249999D01*
G01*
X109550000Y-67125001D01*
G75*
G02*
X109300001Y-67375000I-249999J0D01*
G01*
X108649999Y-67375000D01*
G75*
G02*
X108400000Y-67125001I0J249999D01*
G01*
G37*
G36*
G01*
X106350000Y-67125001D02*
X106350000Y-66224999D01*
G75*
G02*
X106599999Y-65975000I249999J0D01*
G01*
X107250001Y-65975000D01*
G75*
G02*
X107500000Y-66224999I0J-249999D01*
G01*
X107500000Y-67125001D01*
G75*
G02*
X107250001Y-67375000I-249999J0D01*
G01*
X106599999Y-67375000D01*
G75*
G02*
X106350000Y-67125001I0J249999D01*
G01*
G37*
G36*
G01*
X138880000Y-67125001D02*
X138880000Y-66224999D01*
G75*
G02*
X139129999Y-65975000I249999J0D01*
G01*
X139780001Y-65975000D01*
G75*
G02*
X140030000Y-66224999I0J-249999D01*
G01*
X140030000Y-67125001D01*
G75*
G02*
X139780001Y-67375000I-249999J0D01*
G01*
X139129999Y-67375000D01*
G75*
G02*
X138880000Y-67125001I0J249999D01*
G01*
G37*
G36*
G01*
X136830000Y-67125001D02*
X136830000Y-66224999D01*
G75*
G02*
X137079999Y-65975000I249999J0D01*
G01*
X137730001Y-65975000D01*
G75*
G02*
X137980000Y-66224999I0J-249999D01*
G01*
X137980000Y-67125001D01*
G75*
G02*
X137730001Y-67375000I-249999J0D01*
G01*
X137079999Y-67375000D01*
G75*
G02*
X136830000Y-67125001I0J249999D01*
G01*
G37*
G36*
G01*
X161105000Y-67125001D02*
X161105000Y-66224999D01*
G75*
G02*
X161354999Y-65975000I249999J0D01*
G01*
X162005001Y-65975000D01*
G75*
G02*
X162255000Y-66224999I0J-249999D01*
G01*
X162255000Y-67125001D01*
G75*
G02*
X162005001Y-67375000I-249999J0D01*
G01*
X161354999Y-67375000D01*
G75*
G02*
X161105000Y-67125001I0J249999D01*
G01*
G37*
G36*
G01*
X159055000Y-67125001D02*
X159055000Y-66224999D01*
G75*
G02*
X159304999Y-65975000I249999J0D01*
G01*
X159955001Y-65975000D01*
G75*
G02*
X160205000Y-66224999I0J-249999D01*
G01*
X160205000Y-67125001D01*
G75*
G02*
X159955001Y-67375000I-249999J0D01*
G01*
X159304999Y-67375000D01*
G75*
G02*
X159055000Y-67125001I0J249999D01*
G01*
G37*
G36*
G01*
X86175000Y-49980001D02*
X86175000Y-49079999D01*
G75*
G02*
X86424999Y-48830000I249999J0D01*
G01*
X87075001Y-48830000D01*
G75*
G02*
X87325000Y-49079999I0J-249999D01*
G01*
X87325000Y-49980001D01*
G75*
G02*
X87075001Y-50230000I-249999J0D01*
G01*
X86424999Y-50230000D01*
G75*
G02*
X86175000Y-49980001I0J249999D01*
G01*
G37*
G36*
G01*
X84125000Y-49980001D02*
X84125000Y-49079999D01*
G75*
G02*
X84374999Y-48830000I249999J0D01*
G01*
X85025001Y-48830000D01*
G75*
G02*
X85275000Y-49079999I0J-249999D01*
G01*
X85275000Y-49980001D01*
G75*
G02*
X85025001Y-50230000I-249999J0D01*
G01*
X84374999Y-50230000D01*
G75*
G02*
X84125000Y-49980001I0J249999D01*
G01*
G37*
G36*
G01*
X108400000Y-49980001D02*
X108400000Y-49079999D01*
G75*
G02*
X108649999Y-48830000I249999J0D01*
G01*
X109300001Y-48830000D01*
G75*
G02*
X109550000Y-49079999I0J-249999D01*
G01*
X109550000Y-49980001D01*
G75*
G02*
X109300001Y-50230000I-249999J0D01*
G01*
X108649999Y-50230000D01*
G75*
G02*
X108400000Y-49980001I0J249999D01*
G01*
G37*
G36*
G01*
X106350000Y-49980001D02*
X106350000Y-49079999D01*
G75*
G02*
X106599999Y-48830000I249999J0D01*
G01*
X107250001Y-48830000D01*
G75*
G02*
X107500000Y-49079999I0J-249999D01*
G01*
X107500000Y-49980001D01*
G75*
G02*
X107250001Y-50230000I-249999J0D01*
G01*
X106599999Y-50230000D01*
G75*
G02*
X106350000Y-49980001I0J249999D01*
G01*
G37*
G36*
G01*
X138880000Y-49980001D02*
X138880000Y-49079999D01*
G75*
G02*
X139129999Y-48830000I249999J0D01*
G01*
X139780001Y-48830000D01*
G75*
G02*
X140030000Y-49079999I0J-249999D01*
G01*
X140030000Y-49980001D01*
G75*
G02*
X139780001Y-50230000I-249999J0D01*
G01*
X139129999Y-50230000D01*
G75*
G02*
X138880000Y-49980001I0J249999D01*
G01*
G37*
G36*
G01*
X136830000Y-49980001D02*
X136830000Y-49079999D01*
G75*
G02*
X137079999Y-48830000I249999J0D01*
G01*
X137730001Y-48830000D01*
G75*
G02*
X137980000Y-49079999I0J-249999D01*
G01*
X137980000Y-49980001D01*
G75*
G02*
X137730001Y-50230000I-249999J0D01*
G01*
X137079999Y-50230000D01*
G75*
G02*
X136830000Y-49980001I0J249999D01*
G01*
G37*
G36*
G01*
X161105000Y-49980001D02*
X161105000Y-49079999D01*
G75*
G02*
X161354999Y-48830000I249999J0D01*
G01*
X162005001Y-48830000D01*
G75*
G02*
X162255000Y-49079999I0J-249999D01*
G01*
X162255000Y-49980001D01*
G75*
G02*
X162005001Y-50230000I-249999J0D01*
G01*
X161354999Y-50230000D01*
G75*
G02*
X161105000Y-49980001I0J249999D01*
G01*
G37*
G36*
G01*
X159055000Y-49980001D02*
X159055000Y-49079999D01*
G75*
G02*
X159304999Y-48830000I249999J0D01*
G01*
X159955001Y-48830000D01*
G75*
G02*
X160205000Y-49079999I0J-249999D01*
G01*
X160205000Y-49980001D01*
G75*
G02*
X159955001Y-50230000I-249999J0D01*
G01*
X159304999Y-50230000D01*
G75*
G02*
X159055000Y-49980001I0J249999D01*
G01*
G37*
G36*
G01*
X86175000Y-32835001D02*
X86175000Y-31934999D01*
G75*
G02*
X86424999Y-31685000I249999J0D01*
G01*
X87075001Y-31685000D01*
G75*
G02*
X87325000Y-31934999I0J-249999D01*
G01*
X87325000Y-32835001D01*
G75*
G02*
X87075001Y-33085000I-249999J0D01*
G01*
X86424999Y-33085000D01*
G75*
G02*
X86175000Y-32835001I0J249999D01*
G01*
G37*
G36*
G01*
X84125000Y-32835001D02*
X84125000Y-31934999D01*
G75*
G02*
X84374999Y-31685000I249999J0D01*
G01*
X85025001Y-31685000D01*
G75*
G02*
X85275000Y-31934999I0J-249999D01*
G01*
X85275000Y-32835001D01*
G75*
G02*
X85025001Y-33085000I-249999J0D01*
G01*
X84374999Y-33085000D01*
G75*
G02*
X84125000Y-32835001I0J249999D01*
G01*
G37*
G36*
G01*
X108400000Y-32835001D02*
X108400000Y-31934999D01*
G75*
G02*
X108649999Y-31685000I249999J0D01*
G01*
X109300001Y-31685000D01*
G75*
G02*
X109550000Y-31934999I0J-249999D01*
G01*
X109550000Y-32835001D01*
G75*
G02*
X109300001Y-33085000I-249999J0D01*
G01*
X108649999Y-33085000D01*
G75*
G02*
X108400000Y-32835001I0J249999D01*
G01*
G37*
G36*
G01*
X106350000Y-32835001D02*
X106350000Y-31934999D01*
G75*
G02*
X106599999Y-31685000I249999J0D01*
G01*
X107250001Y-31685000D01*
G75*
G02*
X107500000Y-31934999I0J-249999D01*
G01*
X107500000Y-32835001D01*
G75*
G02*
X107250001Y-33085000I-249999J0D01*
G01*
X106599999Y-33085000D01*
G75*
G02*
X106350000Y-32835001I0J249999D01*
G01*
G37*
G36*
G01*
X138880000Y-32835001D02*
X138880000Y-31934999D01*
G75*
G02*
X139129999Y-31685000I249999J0D01*
G01*
X139780001Y-31685000D01*
G75*
G02*
X140030000Y-31934999I0J-249999D01*
G01*
X140030000Y-32835001D01*
G75*
G02*
X139780001Y-33085000I-249999J0D01*
G01*
X139129999Y-33085000D01*
G75*
G02*
X138880000Y-32835001I0J249999D01*
G01*
G37*
G36*
G01*
X136830000Y-32835001D02*
X136830000Y-31934999D01*
G75*
G02*
X137079999Y-31685000I249999J0D01*
G01*
X137730001Y-31685000D01*
G75*
G02*
X137980000Y-31934999I0J-249999D01*
G01*
X137980000Y-32835001D01*
G75*
G02*
X137730001Y-33085000I-249999J0D01*
G01*
X137079999Y-33085000D01*
G75*
G02*
X136830000Y-32835001I0J249999D01*
G01*
G37*
G36*
G01*
X161105000Y-32835001D02*
X161105000Y-31934999D01*
G75*
G02*
X161354999Y-31685000I249999J0D01*
G01*
X162005001Y-31685000D01*
G75*
G02*
X162255000Y-31934999I0J-249999D01*
G01*
X162255000Y-32835001D01*
G75*
G02*
X162005001Y-33085000I-249999J0D01*
G01*
X161354999Y-33085000D01*
G75*
G02*
X161105000Y-32835001I0J249999D01*
G01*
G37*
G36*
G01*
X159055000Y-32835001D02*
X159055000Y-31934999D01*
G75*
G02*
X159304999Y-31685000I249999J0D01*
G01*
X159955001Y-31685000D01*
G75*
G02*
X160205000Y-31934999I0J-249999D01*
G01*
X160205000Y-32835001D01*
G75*
G02*
X159955001Y-33085000I-249999J0D01*
G01*
X159304999Y-33085000D01*
G75*
G02*
X159055000Y-32835001I0J249999D01*
G01*
G37*
G36*
G01*
X86175000Y-15690001D02*
X86175000Y-14789999D01*
G75*
G02*
X86424999Y-14540000I249999J0D01*
G01*
X87075001Y-14540000D01*
G75*
G02*
X87325000Y-14789999I0J-249999D01*
G01*
X87325000Y-15690001D01*
G75*
G02*
X87075001Y-15940000I-249999J0D01*
G01*
X86424999Y-15940000D01*
G75*
G02*
X86175000Y-15690001I0J249999D01*
G01*
G37*
G36*
G01*
X84125000Y-15690001D02*
X84125000Y-14789999D01*
G75*
G02*
X84374999Y-14540000I249999J0D01*
G01*
X85025001Y-14540000D01*
G75*
G02*
X85275000Y-14789999I0J-249999D01*
G01*
X85275000Y-15690001D01*
G75*
G02*
X85025001Y-15940000I-249999J0D01*
G01*
X84374999Y-15940000D01*
G75*
G02*
X84125000Y-15690001I0J249999D01*
G01*
G37*
G36*
G01*
X108400000Y-15690001D02*
X108400000Y-14789999D01*
G75*
G02*
X108649999Y-14540000I249999J0D01*
G01*
X109300001Y-14540000D01*
G75*
G02*
X109550000Y-14789999I0J-249999D01*
G01*
X109550000Y-15690001D01*
G75*
G02*
X109300001Y-15940000I-249999J0D01*
G01*
X108649999Y-15940000D01*
G75*
G02*
X108400000Y-15690001I0J249999D01*
G01*
G37*
G36*
G01*
X106350000Y-15690001D02*
X106350000Y-14789999D01*
G75*
G02*
X106599999Y-14540000I249999J0D01*
G01*
X107250001Y-14540000D01*
G75*
G02*
X107500000Y-14789999I0J-249999D01*
G01*
X107500000Y-15690001D01*
G75*
G02*
X107250001Y-15940000I-249999J0D01*
G01*
X106599999Y-15940000D01*
G75*
G02*
X106350000Y-15690001I0J249999D01*
G01*
G37*
G36*
G01*
X138880000Y-15690001D02*
X138880000Y-14789999D01*
G75*
G02*
X139129999Y-14540000I249999J0D01*
G01*
X139780001Y-14540000D01*
G75*
G02*
X140030000Y-14789999I0J-249999D01*
G01*
X140030000Y-15690001D01*
G75*
G02*
X139780001Y-15940000I-249999J0D01*
G01*
X139129999Y-15940000D01*
G75*
G02*
X138880000Y-15690001I0J249999D01*
G01*
G37*
G36*
G01*
X136830000Y-15690001D02*
X136830000Y-14789999D01*
G75*
G02*
X137079999Y-14540000I249999J0D01*
G01*
X137730001Y-14540000D01*
G75*
G02*
X137980000Y-14789999I0J-249999D01*
G01*
X137980000Y-15690001D01*
G75*
G02*
X137730001Y-15940000I-249999J0D01*
G01*
X137079999Y-15940000D01*
G75*
G02*
X136830000Y-15690001I0J249999D01*
G01*
G37*
G36*
G01*
X161105000Y-15690001D02*
X161105000Y-14789999D01*
G75*
G02*
X161354999Y-14540000I249999J0D01*
G01*
X162005001Y-14540000D01*
G75*
G02*
X162255000Y-14789999I0J-249999D01*
G01*
X162255000Y-15690001D01*
G75*
G02*
X162005001Y-15940000I-249999J0D01*
G01*
X161354999Y-15940000D01*
G75*
G02*
X161105000Y-15690001I0J249999D01*
G01*
G37*
G36*
G01*
X159055000Y-15690001D02*
X159055000Y-14789999D01*
G75*
G02*
X159304999Y-14540000I249999J0D01*
G01*
X159955001Y-14540000D01*
G75*
G02*
X160205000Y-14789999I0J-249999D01*
G01*
X160205000Y-15690001D01*
G75*
G02*
X159955001Y-15940000I-249999J0D01*
G01*
X159304999Y-15940000D01*
G75*
G02*
X159055000Y-15690001I0J249999D01*
G01*
G37*
D11*
X171450000Y-103310000D03*
D12*
X171450000Y-101210000D03*
X171450000Y-105410000D03*
D11*
X171450000Y-95055000D03*
D12*
X171450000Y-92955000D03*
X171450000Y-97155000D03*
D11*
X171450000Y-86800000D03*
D12*
X171450000Y-84700000D03*
X171450000Y-88900000D03*
D11*
X171450000Y-78545000D03*
D12*
X171450000Y-76445000D03*
X171450000Y-80645000D03*
D11*
X171450000Y-70290000D03*
D12*
X171450000Y-68190000D03*
X171450000Y-72390000D03*
D11*
X171450000Y-62035000D03*
D12*
X171450000Y-59935000D03*
X171450000Y-64135000D03*
D11*
X171450000Y-53780000D03*
D12*
X171450000Y-51680000D03*
X171450000Y-55880000D03*
D11*
X171450000Y-45525000D03*
D12*
X171450000Y-43425000D03*
X171450000Y-47625000D03*
D11*
X171450000Y-114105000D03*
D12*
X171450000Y-112005000D03*
X171450000Y-116205000D03*
D11*
X171450000Y-150300000D03*
D12*
X171450000Y-148200000D03*
X171450000Y-152400000D03*
D11*
X171450000Y-122360000D03*
D12*
X171450000Y-120260000D03*
X171450000Y-124460000D03*
D11*
X171450000Y-130615000D03*
D12*
X171450000Y-128515000D03*
X171450000Y-132715000D03*
D11*
X171450000Y-142045000D03*
D12*
X171450000Y-139945000D03*
X171450000Y-144145000D03*
D11*
X171450000Y-169350000D03*
D12*
X171450000Y-167250000D03*
X171450000Y-171450000D03*
D11*
X171450000Y-161060000D03*
D12*
X171450000Y-158960000D03*
X171450000Y-163160000D03*
D11*
X171450000Y-34095000D03*
D12*
X171450000Y-31995000D03*
X171450000Y-36195000D03*
D11*
X171450000Y-25840000D03*
D12*
X171450000Y-23740000D03*
X171450000Y-27940000D03*
D11*
X171450000Y-17585000D03*
D12*
X171450000Y-15485000D03*
X171450000Y-19685000D03*
D11*
X171450000Y-9330000D03*
D12*
X171450000Y-7230000D03*
X171450000Y-11430000D03*
D13*
X55245000Y-165735000D03*
X62865000Y-150495000D03*
X55245000Y-163195000D03*
X62865000Y-153035000D03*
X55245000Y-160655000D03*
X62865000Y-155575000D03*
X55245000Y-158115000D03*
X62865000Y-158115000D03*
X55245000Y-155575000D03*
X62865000Y-160655000D03*
X55245000Y-153035000D03*
X62865000Y-163195000D03*
X55245000Y-150495000D03*
D14*
X62865000Y-165735000D03*
D13*
X59055000Y-145415000D03*
D15*
X69215000Y-145415000D03*
D13*
X69215000Y-142240000D03*
D15*
X59055000Y-142240000D03*
D13*
X59690000Y-111125000D03*
D15*
X69850000Y-111125000D03*
D13*
X59690000Y-107950000D03*
D15*
X69850000Y-107950000D03*
D13*
X59690000Y-83185000D03*
D15*
X69850000Y-83185000D03*
D13*
X59690000Y-80010000D03*
D15*
X69850000Y-80010000D03*
D13*
X59690000Y-76835000D03*
D15*
X69850000Y-76835000D03*
D13*
X59690000Y-73660000D03*
D15*
X69850000Y-73660000D03*
D13*
X59690000Y-43180000D03*
D15*
X69850000Y-43180000D03*
D13*
X59690000Y-40005000D03*
D15*
X69850000Y-40005000D03*
D13*
X76200000Y-25400000D03*
D15*
X76200000Y-15240000D03*
D13*
X73025000Y-25400000D03*
D15*
X73025000Y-15240000D03*
D13*
X69850000Y-25400000D03*
D15*
X69850000Y-15240000D03*
D13*
X57150000Y-15240000D03*
D15*
X67310000Y-15240000D03*
D13*
X90805000Y-169545000D03*
D15*
X90805000Y-159385000D03*
D13*
X78740000Y-160655000D03*
D15*
X78740000Y-170815000D03*
D13*
X75565000Y-160655000D03*
D15*
X75565000Y-170815000D03*
D13*
X72390000Y-160655000D03*
D15*
X72390000Y-170815000D03*
D13*
X67945000Y-170815000D03*
D15*
X57785000Y-170815000D03*
D13*
X134620000Y-167640000D03*
D15*
X134620000Y-157480000D03*
D13*
X143510000Y-160655000D03*
D15*
X143510000Y-170815000D03*
D13*
X146685000Y-160655000D03*
D15*
X146685000Y-170815000D03*
D13*
X149860000Y-160655000D03*
D15*
X149860000Y-170815000D03*
D13*
X153035000Y-170815000D03*
D15*
X153035000Y-160655000D03*
D13*
X167767000Y-152400000D03*
D15*
X157607000Y-152400000D03*
X113665000Y-174030000D03*
D14*
X113665000Y-176530000D03*
D15*
X86360000Y-162600000D03*
D14*
X86360000Y-165100000D03*
D15*
X67945000Y-159425000D03*
D14*
X67945000Y-161925000D03*
D13*
X102235000Y-158115000D03*
X117475000Y-165735000D03*
X104775000Y-158115000D03*
X114935000Y-165735000D03*
X107315000Y-158115000D03*
X112395000Y-165735000D03*
X109855000Y-158115000D03*
X109855000Y-165735000D03*
X112395000Y-158115000D03*
X107315000Y-165735000D03*
X114935000Y-158115000D03*
X104775000Y-165735000D03*
X117475000Y-158115000D03*
D14*
X102235000Y-165735000D03*
D16*
X160655000Y-139320000D03*
X162371332Y-139877671D03*
X163432085Y-141337671D03*
X163432085Y-143142329D03*
X162371332Y-144602329D03*
X160655000Y-145160000D03*
X158938668Y-144602329D03*
X157877915Y-143142329D03*
X157877915Y-141337671D03*
X158938668Y-139877671D03*
X138430000Y-139320000D03*
X140146332Y-139877671D03*
X141207085Y-141337671D03*
X141207085Y-143142329D03*
X140146332Y-144602329D03*
X138430000Y-145160000D03*
X136713668Y-144602329D03*
X135652915Y-143142329D03*
X135652915Y-141337671D03*
X136713668Y-139877671D03*
X107950000Y-139320000D03*
X109666332Y-139877671D03*
X110727085Y-141337671D03*
X110727085Y-143142329D03*
X109666332Y-144602329D03*
X107950000Y-145160000D03*
X106233668Y-144602329D03*
X105172915Y-143142329D03*
X105172915Y-141337671D03*
X106233668Y-139877671D03*
X85725000Y-139320000D03*
X87441332Y-139877671D03*
X88502085Y-141337671D03*
X88502085Y-143142329D03*
X87441332Y-144602329D03*
X85725000Y-145160000D03*
X84008668Y-144602329D03*
X82947915Y-143142329D03*
X82947915Y-141337671D03*
X84008668Y-139877671D03*
X160655000Y-122175000D03*
X162371332Y-122732671D03*
X163432085Y-124192671D03*
X163432085Y-125997329D03*
X162371332Y-127457329D03*
X160655000Y-128015000D03*
X158938668Y-127457329D03*
X157877915Y-125997329D03*
X157877915Y-124192671D03*
X158938668Y-122732671D03*
X138430000Y-122175000D03*
X140146332Y-122732671D03*
X141207085Y-124192671D03*
X141207085Y-125997329D03*
X140146332Y-127457329D03*
X138430000Y-128015000D03*
X136713668Y-127457329D03*
X135652915Y-125997329D03*
X135652915Y-124192671D03*
X136713668Y-122732671D03*
X107950000Y-122175000D03*
X109666332Y-122732671D03*
X110727085Y-124192671D03*
X110727085Y-125997329D03*
X109666332Y-127457329D03*
X107950000Y-128015000D03*
X106233668Y-127457329D03*
X105172915Y-125997329D03*
X105172915Y-124192671D03*
X106233668Y-122732671D03*
X85725000Y-122175000D03*
X87441332Y-122732671D03*
X88502085Y-124192671D03*
X88502085Y-125997329D03*
X87441332Y-127457329D03*
X85725000Y-128015000D03*
X84008668Y-127457329D03*
X82947915Y-125997329D03*
X82947915Y-124192671D03*
X84008668Y-122732671D03*
D13*
X55245000Y-136525000D03*
X62865000Y-118745000D03*
X55245000Y-133985000D03*
X62865000Y-121285000D03*
X55245000Y-131445000D03*
X62865000Y-123825000D03*
X55245000Y-128905000D03*
X62865000Y-126365000D03*
X55245000Y-126365000D03*
X62865000Y-128905000D03*
X55245000Y-123825000D03*
X62865000Y-131445000D03*
X55245000Y-121285000D03*
X62865000Y-133985000D03*
X55245000Y-118745000D03*
D14*
X62865000Y-136525000D03*
D16*
X160655000Y-105030000D03*
X162371332Y-105587671D03*
X163432085Y-107047671D03*
X163432085Y-108852329D03*
X162371332Y-110312329D03*
X160655000Y-110870000D03*
X158938668Y-110312329D03*
X157877915Y-108852329D03*
X157877915Y-107047671D03*
X158938668Y-105587671D03*
X138430000Y-105030000D03*
X140146332Y-105587671D03*
X141207085Y-107047671D03*
X141207085Y-108852329D03*
X140146332Y-110312329D03*
X138430000Y-110870000D03*
X136713668Y-110312329D03*
X135652915Y-108852329D03*
X135652915Y-107047671D03*
X136713668Y-105587671D03*
X107950000Y-105030000D03*
X109666332Y-105587671D03*
X110727085Y-107047671D03*
X110727085Y-108852329D03*
X109666332Y-110312329D03*
X107950000Y-110870000D03*
X106233668Y-110312329D03*
X105172915Y-108852329D03*
X105172915Y-107047671D03*
X106233668Y-105587671D03*
X85725000Y-105030000D03*
X87441332Y-105587671D03*
X88502085Y-107047671D03*
X88502085Y-108852329D03*
X87441332Y-110312329D03*
X85725000Y-110870000D03*
X84008668Y-110312329D03*
X82947915Y-108852329D03*
X82947915Y-107047671D03*
X84008668Y-105587671D03*
X160655000Y-87885000D03*
X162371332Y-88442671D03*
X163432085Y-89902671D03*
X163432085Y-91707329D03*
X162371332Y-93167329D03*
X160655000Y-93725000D03*
X158938668Y-93167329D03*
X157877915Y-91707329D03*
X157877915Y-89902671D03*
X158938668Y-88442671D03*
X138430000Y-87885000D03*
X140146332Y-88442671D03*
X141207085Y-89902671D03*
X141207085Y-91707329D03*
X140146332Y-93167329D03*
X138430000Y-93725000D03*
X136713668Y-93167329D03*
X135652915Y-91707329D03*
X135652915Y-89902671D03*
X136713668Y-88442671D03*
X107950000Y-87885000D03*
X109666332Y-88442671D03*
X110727085Y-89902671D03*
X110727085Y-91707329D03*
X109666332Y-93167329D03*
X107950000Y-93725000D03*
X106233668Y-93167329D03*
X105172915Y-91707329D03*
X105172915Y-89902671D03*
X106233668Y-88442671D03*
X85725000Y-87885000D03*
X87441332Y-88442671D03*
X88502085Y-89902671D03*
X88502085Y-91707329D03*
X87441332Y-93167329D03*
X85725000Y-93725000D03*
X84008668Y-93167329D03*
X82947915Y-91707329D03*
X82947915Y-89902671D03*
X84008668Y-88442671D03*
D13*
X55245000Y-103505000D03*
X62865000Y-88265000D03*
X55245000Y-100965000D03*
X62865000Y-90805000D03*
X55245000Y-98425000D03*
X62865000Y-93345000D03*
X55245000Y-95885000D03*
X62865000Y-95885000D03*
X55245000Y-93345000D03*
X62865000Y-98425000D03*
X55245000Y-90805000D03*
X62865000Y-100965000D03*
X55245000Y-88265000D03*
D14*
X62865000Y-103505000D03*
D16*
X160655000Y-70740000D03*
X162371332Y-71297671D03*
X163432085Y-72757671D03*
X163432085Y-74562329D03*
X162371332Y-76022329D03*
X160655000Y-76580000D03*
X158938668Y-76022329D03*
X157877915Y-74562329D03*
X157877915Y-72757671D03*
X158938668Y-71297671D03*
X138430000Y-70740000D03*
X140146332Y-71297671D03*
X141207085Y-72757671D03*
X141207085Y-74562329D03*
X140146332Y-76022329D03*
X138430000Y-76580000D03*
X136713668Y-76022329D03*
X135652915Y-74562329D03*
X135652915Y-72757671D03*
X136713668Y-71297671D03*
X107950000Y-70740000D03*
X109666332Y-71297671D03*
X110727085Y-72757671D03*
X110727085Y-74562329D03*
X109666332Y-76022329D03*
X107950000Y-76580000D03*
X106233668Y-76022329D03*
X105172915Y-74562329D03*
X105172915Y-72757671D03*
X106233668Y-71297671D03*
X85725000Y-70740000D03*
X87441332Y-71297671D03*
X88502085Y-72757671D03*
X88502085Y-74562329D03*
X87441332Y-76022329D03*
X85725000Y-76580000D03*
X84008668Y-76022329D03*
X82947915Y-74562329D03*
X82947915Y-72757671D03*
X84008668Y-71297671D03*
X160655000Y-53595000D03*
X162371332Y-54152671D03*
X163432085Y-55612671D03*
X163432085Y-57417329D03*
X162371332Y-58877329D03*
X160655000Y-59435000D03*
X158938668Y-58877329D03*
X157877915Y-57417329D03*
X157877915Y-55612671D03*
X158938668Y-54152671D03*
X138430000Y-53595000D03*
X140146332Y-54152671D03*
X141207085Y-55612671D03*
X141207085Y-57417329D03*
X140146332Y-58877329D03*
X138430000Y-59435000D03*
X136713668Y-58877329D03*
X135652915Y-57417329D03*
X135652915Y-55612671D03*
X136713668Y-54152671D03*
X107950000Y-53595000D03*
X109666332Y-54152671D03*
X110727085Y-55612671D03*
X110727085Y-57417329D03*
X109666332Y-58877329D03*
X107950000Y-59435000D03*
X106233668Y-58877329D03*
X105172915Y-57417329D03*
X105172915Y-55612671D03*
X106233668Y-54152671D03*
X85725000Y-53595000D03*
X87441332Y-54152671D03*
X88502085Y-55612671D03*
X88502085Y-57417329D03*
X87441332Y-58877329D03*
X85725000Y-59435000D03*
X84008668Y-58877329D03*
X82947915Y-57417329D03*
X82947915Y-55612671D03*
X84008668Y-54152671D03*
D13*
X55245000Y-66040000D03*
X62865000Y-48260000D03*
X55245000Y-63500000D03*
X62865000Y-50800000D03*
X55245000Y-60960000D03*
X62865000Y-53340000D03*
X55245000Y-58420000D03*
X62865000Y-55880000D03*
X55245000Y-55880000D03*
X62865000Y-58420000D03*
X55245000Y-53340000D03*
X62865000Y-60960000D03*
X55245000Y-50800000D03*
X62865000Y-63500000D03*
X55245000Y-48260000D03*
D14*
X62865000Y-66040000D03*
D16*
X160655000Y-36450000D03*
X162371332Y-37007671D03*
X163432085Y-38467671D03*
X163432085Y-40272329D03*
X162371332Y-41732329D03*
X160655000Y-42290000D03*
X158938668Y-41732329D03*
X157877915Y-40272329D03*
X157877915Y-38467671D03*
X158938668Y-37007671D03*
X138430000Y-36450000D03*
X140146332Y-37007671D03*
X141207085Y-38467671D03*
X141207085Y-40272329D03*
X140146332Y-41732329D03*
X138430000Y-42290000D03*
X136713668Y-41732329D03*
X135652915Y-40272329D03*
X135652915Y-38467671D03*
X136713668Y-37007671D03*
X107950000Y-36450000D03*
X109666332Y-37007671D03*
X110727085Y-38467671D03*
X110727085Y-40272329D03*
X109666332Y-41732329D03*
X107950000Y-42290000D03*
X106233668Y-41732329D03*
X105172915Y-40272329D03*
X105172915Y-38467671D03*
X106233668Y-37007671D03*
X85725000Y-36450000D03*
X87441332Y-37007671D03*
X88502085Y-38467671D03*
X88502085Y-40272329D03*
X87441332Y-41732329D03*
X85725000Y-42290000D03*
X84008668Y-41732329D03*
X82947915Y-40272329D03*
X82947915Y-38467671D03*
X84008668Y-37007671D03*
X160655000Y-19305000D03*
X162371332Y-19862671D03*
X163432085Y-21322671D03*
X163432085Y-23127329D03*
X162371332Y-24587329D03*
X160655000Y-25145000D03*
X158938668Y-24587329D03*
X157877915Y-23127329D03*
X157877915Y-21322671D03*
X158938668Y-19862671D03*
X138430000Y-19305000D03*
X140146332Y-19862671D03*
X141207085Y-21322671D03*
X141207085Y-23127329D03*
X140146332Y-24587329D03*
X138430000Y-25145000D03*
X136713668Y-24587329D03*
X135652915Y-23127329D03*
X135652915Y-21322671D03*
X136713668Y-19862671D03*
X107950000Y-19305000D03*
X109666332Y-19862671D03*
X110727085Y-21322671D03*
X110727085Y-23127329D03*
X109666332Y-24587329D03*
X107950000Y-25145000D03*
X106233668Y-24587329D03*
X105172915Y-23127329D03*
X105172915Y-21322671D03*
X106233668Y-19862671D03*
X85725000Y-19305000D03*
X87441332Y-19862671D03*
X88502085Y-21322671D03*
X88502085Y-23127329D03*
X87441332Y-24587329D03*
X85725000Y-25145000D03*
X84008668Y-24587329D03*
X82947915Y-23127329D03*
X82947915Y-21322671D03*
X84008668Y-19862671D03*
D13*
X55245000Y-34925000D03*
X62865000Y-19685000D03*
X55245000Y-32385000D03*
X62865000Y-22225000D03*
X55245000Y-29845000D03*
X62865000Y-24765000D03*
X55245000Y-27305000D03*
X62865000Y-27305000D03*
X55245000Y-24765000D03*
X62865000Y-29845000D03*
X55245000Y-22225000D03*
X62865000Y-32385000D03*
X55245000Y-19685000D03*
D14*
X62865000Y-34925000D03*
D17*
X61595000Y-177800000D03*
X59055000Y-180340000D03*
D18*
X56515000Y-177800000D03*
D17*
X67945000Y-177800000D03*
X70485000Y-175260000D03*
D18*
X73025000Y-177800000D03*
D17*
X84455000Y-177800000D03*
X81915000Y-180340000D03*
D18*
X79375000Y-177800000D03*
D17*
X140970000Y-177800000D03*
X138430000Y-180340000D03*
D18*
X135890000Y-177800000D03*
D17*
X147320000Y-177800000D03*
X149860000Y-175260000D03*
D18*
X152400000Y-177800000D03*
D17*
X163830000Y-177800000D03*
X161290000Y-180340000D03*
D18*
X158750000Y-177800000D03*
D19*
X96035000Y-194310000D03*
X127715000Y-194310000D03*
X123755000Y-194310000D03*
X119795000Y-194310000D03*
X115835000Y-194310000D03*
X111875000Y-194310000D03*
X107915000Y-194310000D03*
X103955000Y-194310000D03*
X99995000Y-194310000D03*
X92075000Y-194310000D03*
D15*
X123825000Y-20400000D03*
X123825000Y-25400000D03*
X123825000Y-37545000D03*
X123825000Y-42545000D03*
X123825000Y-54690000D03*
X123825000Y-59690000D03*
X123825000Y-71835000D03*
X123825000Y-76835000D03*
X123825000Y-89575000D03*
D14*
X123825000Y-92075000D03*
D15*
X123825000Y-106125000D03*
X123825000Y-111125000D03*
X123825000Y-123270000D03*
X123825000Y-128270000D03*
X123825000Y-141050000D03*
X123825000Y-146050000D03*
X123825000Y-173435000D03*
X123825000Y-178435000D03*
X93980000Y-160735000D03*
X93980000Y-165735000D03*
X69850000Y-30480000D03*
X69850000Y-35480000D03*
X52705000Y-146605000D03*
X52705000Y-141605000D03*
X81915000Y-168195000D03*
X81915000Y-163195000D03*
X156210000Y-168830000D03*
X156210000Y-163830000D03*
M02*
