G04 #@! TF.GenerationSoftware,KiCad,Pcbnew,(5.1.12)-1*
G04 #@! TF.CreationDate,2023-07-18T15:35:10+01:00*
G04 #@! TF.ProjectId,Memory,4d656d6f-7279-42e6-9b69-6361645f7063,rev?*
G04 #@! TF.SameCoordinates,Original*
G04 #@! TF.FileFunction,Paste,Bot*
G04 #@! TF.FilePolarity,Positive*
%FSLAX46Y46*%
G04 Gerber Fmt 4.6, Leading zero omitted, Abs format (unit mm)*
G04 Created by KiCad (PCBNEW (5.1.12)-1) date 2023-07-18 15:35:10*
%MOMM*%
%LPD*%
G01*
G04 APERTURE LIST*
G04 APERTURE END LIST*
G36*
G01*
X170999999Y-92840000D02*
X171900001Y-92840000D01*
G75*
G02*
X172150000Y-93089999I0J-249999D01*
G01*
X172150000Y-93790001D01*
G75*
G02*
X171900001Y-94040000I-249999J0D01*
G01*
X170999999Y-94040000D01*
G75*
G02*
X170750000Y-93790001I0J249999D01*
G01*
X170750000Y-93089999D01*
G75*
G02*
X170999999Y-92840000I249999J0D01*
G01*
G37*
G36*
G01*
X170999999Y-90840000D02*
X171900001Y-90840000D01*
G75*
G02*
X172150000Y-91089999I0J-249999D01*
G01*
X172150000Y-91790001D01*
G75*
G02*
X171900001Y-92040000I-249999J0D01*
G01*
X170999999Y-92040000D01*
G75*
G02*
X170750000Y-91790001I0J249999D01*
G01*
X170750000Y-91089999D01*
G75*
G02*
X170999999Y-90840000I249999J0D01*
G01*
G37*
G36*
G01*
X99891001Y-10792000D02*
X98990999Y-10792000D01*
G75*
G02*
X98741000Y-10542001I0J249999D01*
G01*
X98741000Y-9841999D01*
G75*
G02*
X98990999Y-9592000I249999J0D01*
G01*
X99891001Y-9592000D01*
G75*
G02*
X100141000Y-9841999I0J-249999D01*
G01*
X100141000Y-10542001D01*
G75*
G02*
X99891001Y-10792000I-249999J0D01*
G01*
G37*
G36*
G01*
X99891001Y-12792000D02*
X98990999Y-12792000D01*
G75*
G02*
X98741000Y-12542001I0J249999D01*
G01*
X98741000Y-11841999D01*
G75*
G02*
X98990999Y-11592000I249999J0D01*
G01*
X99891001Y-11592000D01*
G75*
G02*
X100141000Y-11841999I0J-249999D01*
G01*
X100141000Y-12542001D01*
G75*
G02*
X99891001Y-12792000I-249999J0D01*
G01*
G37*
G36*
G01*
X167998000Y-161578000D02*
X167798000Y-161578000D01*
G75*
G02*
X167698000Y-161478000I0J100000D01*
G01*
X167698000Y-160203000D01*
G75*
G02*
X167798000Y-160103000I100000J0D01*
G01*
X167998000Y-160103000D01*
G75*
G02*
X168098000Y-160203000I0J-100000D01*
G01*
X168098000Y-161478000D01*
G75*
G02*
X167998000Y-161578000I-100000J0D01*
G01*
G37*
G36*
G01*
X167348000Y-161578000D02*
X167148000Y-161578000D01*
G75*
G02*
X167048000Y-161478000I0J100000D01*
G01*
X167048000Y-160203000D01*
G75*
G02*
X167148000Y-160103000I100000J0D01*
G01*
X167348000Y-160103000D01*
G75*
G02*
X167448000Y-160203000I0J-100000D01*
G01*
X167448000Y-161478000D01*
G75*
G02*
X167348000Y-161578000I-100000J0D01*
G01*
G37*
G36*
G01*
X166698000Y-161578000D02*
X166498000Y-161578000D01*
G75*
G02*
X166398000Y-161478000I0J100000D01*
G01*
X166398000Y-160203000D01*
G75*
G02*
X166498000Y-160103000I100000J0D01*
G01*
X166698000Y-160103000D01*
G75*
G02*
X166798000Y-160203000I0J-100000D01*
G01*
X166798000Y-161478000D01*
G75*
G02*
X166698000Y-161578000I-100000J0D01*
G01*
G37*
G36*
G01*
X166048000Y-161578000D02*
X165848000Y-161578000D01*
G75*
G02*
X165748000Y-161478000I0J100000D01*
G01*
X165748000Y-160203000D01*
G75*
G02*
X165848000Y-160103000I100000J0D01*
G01*
X166048000Y-160103000D01*
G75*
G02*
X166148000Y-160203000I0J-100000D01*
G01*
X166148000Y-161478000D01*
G75*
G02*
X166048000Y-161578000I-100000J0D01*
G01*
G37*
G36*
G01*
X165398000Y-161578000D02*
X165198000Y-161578000D01*
G75*
G02*
X165098000Y-161478000I0J100000D01*
G01*
X165098000Y-160203000D01*
G75*
G02*
X165198000Y-160103000I100000J0D01*
G01*
X165398000Y-160103000D01*
G75*
G02*
X165498000Y-160203000I0J-100000D01*
G01*
X165498000Y-161478000D01*
G75*
G02*
X165398000Y-161578000I-100000J0D01*
G01*
G37*
G36*
G01*
X164748000Y-161578000D02*
X164548000Y-161578000D01*
G75*
G02*
X164448000Y-161478000I0J100000D01*
G01*
X164448000Y-160203000D01*
G75*
G02*
X164548000Y-160103000I100000J0D01*
G01*
X164748000Y-160103000D01*
G75*
G02*
X164848000Y-160203000I0J-100000D01*
G01*
X164848000Y-161478000D01*
G75*
G02*
X164748000Y-161578000I-100000J0D01*
G01*
G37*
G36*
G01*
X164098000Y-161578000D02*
X163898000Y-161578000D01*
G75*
G02*
X163798000Y-161478000I0J100000D01*
G01*
X163798000Y-160203000D01*
G75*
G02*
X163898000Y-160103000I100000J0D01*
G01*
X164098000Y-160103000D01*
G75*
G02*
X164198000Y-160203000I0J-100000D01*
G01*
X164198000Y-161478000D01*
G75*
G02*
X164098000Y-161578000I-100000J0D01*
G01*
G37*
G36*
G01*
X163448000Y-161578000D02*
X163248000Y-161578000D01*
G75*
G02*
X163148000Y-161478000I0J100000D01*
G01*
X163148000Y-160203000D01*
G75*
G02*
X163248000Y-160103000I100000J0D01*
G01*
X163448000Y-160103000D01*
G75*
G02*
X163548000Y-160203000I0J-100000D01*
G01*
X163548000Y-161478000D01*
G75*
G02*
X163448000Y-161578000I-100000J0D01*
G01*
G37*
G36*
G01*
X162798000Y-161578000D02*
X162598000Y-161578000D01*
G75*
G02*
X162498000Y-161478000I0J100000D01*
G01*
X162498000Y-160203000D01*
G75*
G02*
X162598000Y-160103000I100000J0D01*
G01*
X162798000Y-160103000D01*
G75*
G02*
X162898000Y-160203000I0J-100000D01*
G01*
X162898000Y-161478000D01*
G75*
G02*
X162798000Y-161578000I-100000J0D01*
G01*
G37*
G36*
G01*
X162148000Y-161578000D02*
X161948000Y-161578000D01*
G75*
G02*
X161848000Y-161478000I0J100000D01*
G01*
X161848000Y-160203000D01*
G75*
G02*
X161948000Y-160103000I100000J0D01*
G01*
X162148000Y-160103000D01*
G75*
G02*
X162248000Y-160203000I0J-100000D01*
G01*
X162248000Y-161478000D01*
G75*
G02*
X162148000Y-161578000I-100000J0D01*
G01*
G37*
G36*
G01*
X162148000Y-167303000D02*
X161948000Y-167303000D01*
G75*
G02*
X161848000Y-167203000I0J100000D01*
G01*
X161848000Y-165928000D01*
G75*
G02*
X161948000Y-165828000I100000J0D01*
G01*
X162148000Y-165828000D01*
G75*
G02*
X162248000Y-165928000I0J-100000D01*
G01*
X162248000Y-167203000D01*
G75*
G02*
X162148000Y-167303000I-100000J0D01*
G01*
G37*
G36*
G01*
X162798000Y-167303000D02*
X162598000Y-167303000D01*
G75*
G02*
X162498000Y-167203000I0J100000D01*
G01*
X162498000Y-165928000D01*
G75*
G02*
X162598000Y-165828000I100000J0D01*
G01*
X162798000Y-165828000D01*
G75*
G02*
X162898000Y-165928000I0J-100000D01*
G01*
X162898000Y-167203000D01*
G75*
G02*
X162798000Y-167303000I-100000J0D01*
G01*
G37*
G36*
G01*
X163448000Y-167303000D02*
X163248000Y-167303000D01*
G75*
G02*
X163148000Y-167203000I0J100000D01*
G01*
X163148000Y-165928000D01*
G75*
G02*
X163248000Y-165828000I100000J0D01*
G01*
X163448000Y-165828000D01*
G75*
G02*
X163548000Y-165928000I0J-100000D01*
G01*
X163548000Y-167203000D01*
G75*
G02*
X163448000Y-167303000I-100000J0D01*
G01*
G37*
G36*
G01*
X164098000Y-167303000D02*
X163898000Y-167303000D01*
G75*
G02*
X163798000Y-167203000I0J100000D01*
G01*
X163798000Y-165928000D01*
G75*
G02*
X163898000Y-165828000I100000J0D01*
G01*
X164098000Y-165828000D01*
G75*
G02*
X164198000Y-165928000I0J-100000D01*
G01*
X164198000Y-167203000D01*
G75*
G02*
X164098000Y-167303000I-100000J0D01*
G01*
G37*
G36*
G01*
X164748000Y-167303000D02*
X164548000Y-167303000D01*
G75*
G02*
X164448000Y-167203000I0J100000D01*
G01*
X164448000Y-165928000D01*
G75*
G02*
X164548000Y-165828000I100000J0D01*
G01*
X164748000Y-165828000D01*
G75*
G02*
X164848000Y-165928000I0J-100000D01*
G01*
X164848000Y-167203000D01*
G75*
G02*
X164748000Y-167303000I-100000J0D01*
G01*
G37*
G36*
G01*
X165398000Y-167303000D02*
X165198000Y-167303000D01*
G75*
G02*
X165098000Y-167203000I0J100000D01*
G01*
X165098000Y-165928000D01*
G75*
G02*
X165198000Y-165828000I100000J0D01*
G01*
X165398000Y-165828000D01*
G75*
G02*
X165498000Y-165928000I0J-100000D01*
G01*
X165498000Y-167203000D01*
G75*
G02*
X165398000Y-167303000I-100000J0D01*
G01*
G37*
G36*
G01*
X166048000Y-167303000D02*
X165848000Y-167303000D01*
G75*
G02*
X165748000Y-167203000I0J100000D01*
G01*
X165748000Y-165928000D01*
G75*
G02*
X165848000Y-165828000I100000J0D01*
G01*
X166048000Y-165828000D01*
G75*
G02*
X166148000Y-165928000I0J-100000D01*
G01*
X166148000Y-167203000D01*
G75*
G02*
X166048000Y-167303000I-100000J0D01*
G01*
G37*
G36*
G01*
X166698000Y-167303000D02*
X166498000Y-167303000D01*
G75*
G02*
X166398000Y-167203000I0J100000D01*
G01*
X166398000Y-165928000D01*
G75*
G02*
X166498000Y-165828000I100000J0D01*
G01*
X166698000Y-165828000D01*
G75*
G02*
X166798000Y-165928000I0J-100000D01*
G01*
X166798000Y-167203000D01*
G75*
G02*
X166698000Y-167303000I-100000J0D01*
G01*
G37*
G36*
G01*
X167348000Y-167303000D02*
X167148000Y-167303000D01*
G75*
G02*
X167048000Y-167203000I0J100000D01*
G01*
X167048000Y-165928000D01*
G75*
G02*
X167148000Y-165828000I100000J0D01*
G01*
X167348000Y-165828000D01*
G75*
G02*
X167448000Y-165928000I0J-100000D01*
G01*
X167448000Y-167203000D01*
G75*
G02*
X167348000Y-167303000I-100000J0D01*
G01*
G37*
G36*
G01*
X167998000Y-167303000D02*
X167798000Y-167303000D01*
G75*
G02*
X167698000Y-167203000I0J100000D01*
G01*
X167698000Y-165928000D01*
G75*
G02*
X167798000Y-165828000I100000J0D01*
G01*
X167998000Y-165828000D01*
G75*
G02*
X168098000Y-165928000I0J-100000D01*
G01*
X168098000Y-167203000D01*
G75*
G02*
X167998000Y-167303000I-100000J0D01*
G01*
G37*
G36*
G01*
X71975000Y-66652000D02*
X71975000Y-66452000D01*
G75*
G02*
X72075000Y-66352000I100000J0D01*
G01*
X73350000Y-66352000D01*
G75*
G02*
X73450000Y-66452000I0J-100000D01*
G01*
X73450000Y-66652000D01*
G75*
G02*
X73350000Y-66752000I-100000J0D01*
G01*
X72075000Y-66752000D01*
G75*
G02*
X71975000Y-66652000I0J100000D01*
G01*
G37*
G36*
G01*
X71975000Y-66002000D02*
X71975000Y-65802000D01*
G75*
G02*
X72075000Y-65702000I100000J0D01*
G01*
X73350000Y-65702000D01*
G75*
G02*
X73450000Y-65802000I0J-100000D01*
G01*
X73450000Y-66002000D01*
G75*
G02*
X73350000Y-66102000I-100000J0D01*
G01*
X72075000Y-66102000D01*
G75*
G02*
X71975000Y-66002000I0J100000D01*
G01*
G37*
G36*
G01*
X71975000Y-65352000D02*
X71975000Y-65152000D01*
G75*
G02*
X72075000Y-65052000I100000J0D01*
G01*
X73350000Y-65052000D01*
G75*
G02*
X73450000Y-65152000I0J-100000D01*
G01*
X73450000Y-65352000D01*
G75*
G02*
X73350000Y-65452000I-100000J0D01*
G01*
X72075000Y-65452000D01*
G75*
G02*
X71975000Y-65352000I0J100000D01*
G01*
G37*
G36*
G01*
X71975000Y-64702000D02*
X71975000Y-64502000D01*
G75*
G02*
X72075000Y-64402000I100000J0D01*
G01*
X73350000Y-64402000D01*
G75*
G02*
X73450000Y-64502000I0J-100000D01*
G01*
X73450000Y-64702000D01*
G75*
G02*
X73350000Y-64802000I-100000J0D01*
G01*
X72075000Y-64802000D01*
G75*
G02*
X71975000Y-64702000I0J100000D01*
G01*
G37*
G36*
G01*
X71975000Y-64052000D02*
X71975000Y-63852000D01*
G75*
G02*
X72075000Y-63752000I100000J0D01*
G01*
X73350000Y-63752000D01*
G75*
G02*
X73450000Y-63852000I0J-100000D01*
G01*
X73450000Y-64052000D01*
G75*
G02*
X73350000Y-64152000I-100000J0D01*
G01*
X72075000Y-64152000D01*
G75*
G02*
X71975000Y-64052000I0J100000D01*
G01*
G37*
G36*
G01*
X71975000Y-63402000D02*
X71975000Y-63202000D01*
G75*
G02*
X72075000Y-63102000I100000J0D01*
G01*
X73350000Y-63102000D01*
G75*
G02*
X73450000Y-63202000I0J-100000D01*
G01*
X73450000Y-63402000D01*
G75*
G02*
X73350000Y-63502000I-100000J0D01*
G01*
X72075000Y-63502000D01*
G75*
G02*
X71975000Y-63402000I0J100000D01*
G01*
G37*
G36*
G01*
X71975000Y-62752000D02*
X71975000Y-62552000D01*
G75*
G02*
X72075000Y-62452000I100000J0D01*
G01*
X73350000Y-62452000D01*
G75*
G02*
X73450000Y-62552000I0J-100000D01*
G01*
X73450000Y-62752000D01*
G75*
G02*
X73350000Y-62852000I-100000J0D01*
G01*
X72075000Y-62852000D01*
G75*
G02*
X71975000Y-62752000I0J100000D01*
G01*
G37*
G36*
G01*
X71975000Y-62102000D02*
X71975000Y-61902000D01*
G75*
G02*
X72075000Y-61802000I100000J0D01*
G01*
X73350000Y-61802000D01*
G75*
G02*
X73450000Y-61902000I0J-100000D01*
G01*
X73450000Y-62102000D01*
G75*
G02*
X73350000Y-62202000I-100000J0D01*
G01*
X72075000Y-62202000D01*
G75*
G02*
X71975000Y-62102000I0J100000D01*
G01*
G37*
G36*
G01*
X71975000Y-61452000D02*
X71975000Y-61252000D01*
G75*
G02*
X72075000Y-61152000I100000J0D01*
G01*
X73350000Y-61152000D01*
G75*
G02*
X73450000Y-61252000I0J-100000D01*
G01*
X73450000Y-61452000D01*
G75*
G02*
X73350000Y-61552000I-100000J0D01*
G01*
X72075000Y-61552000D01*
G75*
G02*
X71975000Y-61452000I0J100000D01*
G01*
G37*
G36*
G01*
X71975000Y-60802000D02*
X71975000Y-60602000D01*
G75*
G02*
X72075000Y-60502000I100000J0D01*
G01*
X73350000Y-60502000D01*
G75*
G02*
X73450000Y-60602000I0J-100000D01*
G01*
X73450000Y-60802000D01*
G75*
G02*
X73350000Y-60902000I-100000J0D01*
G01*
X72075000Y-60902000D01*
G75*
G02*
X71975000Y-60802000I0J100000D01*
G01*
G37*
G36*
G01*
X66250000Y-60802000D02*
X66250000Y-60602000D01*
G75*
G02*
X66350000Y-60502000I100000J0D01*
G01*
X67625000Y-60502000D01*
G75*
G02*
X67725000Y-60602000I0J-100000D01*
G01*
X67725000Y-60802000D01*
G75*
G02*
X67625000Y-60902000I-100000J0D01*
G01*
X66350000Y-60902000D01*
G75*
G02*
X66250000Y-60802000I0J100000D01*
G01*
G37*
G36*
G01*
X66250000Y-61452000D02*
X66250000Y-61252000D01*
G75*
G02*
X66350000Y-61152000I100000J0D01*
G01*
X67625000Y-61152000D01*
G75*
G02*
X67725000Y-61252000I0J-100000D01*
G01*
X67725000Y-61452000D01*
G75*
G02*
X67625000Y-61552000I-100000J0D01*
G01*
X66350000Y-61552000D01*
G75*
G02*
X66250000Y-61452000I0J100000D01*
G01*
G37*
G36*
G01*
X66250000Y-62102000D02*
X66250000Y-61902000D01*
G75*
G02*
X66350000Y-61802000I100000J0D01*
G01*
X67625000Y-61802000D01*
G75*
G02*
X67725000Y-61902000I0J-100000D01*
G01*
X67725000Y-62102000D01*
G75*
G02*
X67625000Y-62202000I-100000J0D01*
G01*
X66350000Y-62202000D01*
G75*
G02*
X66250000Y-62102000I0J100000D01*
G01*
G37*
G36*
G01*
X66250000Y-62752000D02*
X66250000Y-62552000D01*
G75*
G02*
X66350000Y-62452000I100000J0D01*
G01*
X67625000Y-62452000D01*
G75*
G02*
X67725000Y-62552000I0J-100000D01*
G01*
X67725000Y-62752000D01*
G75*
G02*
X67625000Y-62852000I-100000J0D01*
G01*
X66350000Y-62852000D01*
G75*
G02*
X66250000Y-62752000I0J100000D01*
G01*
G37*
G36*
G01*
X66250000Y-63402000D02*
X66250000Y-63202000D01*
G75*
G02*
X66350000Y-63102000I100000J0D01*
G01*
X67625000Y-63102000D01*
G75*
G02*
X67725000Y-63202000I0J-100000D01*
G01*
X67725000Y-63402000D01*
G75*
G02*
X67625000Y-63502000I-100000J0D01*
G01*
X66350000Y-63502000D01*
G75*
G02*
X66250000Y-63402000I0J100000D01*
G01*
G37*
G36*
G01*
X66250000Y-64052000D02*
X66250000Y-63852000D01*
G75*
G02*
X66350000Y-63752000I100000J0D01*
G01*
X67625000Y-63752000D01*
G75*
G02*
X67725000Y-63852000I0J-100000D01*
G01*
X67725000Y-64052000D01*
G75*
G02*
X67625000Y-64152000I-100000J0D01*
G01*
X66350000Y-64152000D01*
G75*
G02*
X66250000Y-64052000I0J100000D01*
G01*
G37*
G36*
G01*
X66250000Y-64702000D02*
X66250000Y-64502000D01*
G75*
G02*
X66350000Y-64402000I100000J0D01*
G01*
X67625000Y-64402000D01*
G75*
G02*
X67725000Y-64502000I0J-100000D01*
G01*
X67725000Y-64702000D01*
G75*
G02*
X67625000Y-64802000I-100000J0D01*
G01*
X66350000Y-64802000D01*
G75*
G02*
X66250000Y-64702000I0J100000D01*
G01*
G37*
G36*
G01*
X66250000Y-65352000D02*
X66250000Y-65152000D01*
G75*
G02*
X66350000Y-65052000I100000J0D01*
G01*
X67625000Y-65052000D01*
G75*
G02*
X67725000Y-65152000I0J-100000D01*
G01*
X67725000Y-65352000D01*
G75*
G02*
X67625000Y-65452000I-100000J0D01*
G01*
X66350000Y-65452000D01*
G75*
G02*
X66250000Y-65352000I0J100000D01*
G01*
G37*
G36*
G01*
X66250000Y-66002000D02*
X66250000Y-65802000D01*
G75*
G02*
X66350000Y-65702000I100000J0D01*
G01*
X67625000Y-65702000D01*
G75*
G02*
X67725000Y-65802000I0J-100000D01*
G01*
X67725000Y-66002000D01*
G75*
G02*
X67625000Y-66102000I-100000J0D01*
G01*
X66350000Y-66102000D01*
G75*
G02*
X66250000Y-66002000I0J100000D01*
G01*
G37*
G36*
G01*
X66250000Y-66652000D02*
X66250000Y-66452000D01*
G75*
G02*
X66350000Y-66352000I100000J0D01*
G01*
X67625000Y-66352000D01*
G75*
G02*
X67725000Y-66452000I0J-100000D01*
G01*
X67725000Y-66652000D01*
G75*
G02*
X67625000Y-66752000I-100000J0D01*
G01*
X66350000Y-66752000D01*
G75*
G02*
X66250000Y-66652000I0J100000D01*
G01*
G37*
G36*
G01*
X145635000Y-7724000D02*
X145635000Y-7524000D01*
G75*
G02*
X145735000Y-7424000I100000J0D01*
G01*
X147010000Y-7424000D01*
G75*
G02*
X147110000Y-7524000I0J-100000D01*
G01*
X147110000Y-7724000D01*
G75*
G02*
X147010000Y-7824000I-100000J0D01*
G01*
X145735000Y-7824000D01*
G75*
G02*
X145635000Y-7724000I0J100000D01*
G01*
G37*
G36*
G01*
X145635000Y-7074000D02*
X145635000Y-6874000D01*
G75*
G02*
X145735000Y-6774000I100000J0D01*
G01*
X147010000Y-6774000D01*
G75*
G02*
X147110000Y-6874000I0J-100000D01*
G01*
X147110000Y-7074000D01*
G75*
G02*
X147010000Y-7174000I-100000J0D01*
G01*
X145735000Y-7174000D01*
G75*
G02*
X145635000Y-7074000I0J100000D01*
G01*
G37*
G36*
G01*
X145635000Y-6424000D02*
X145635000Y-6224000D01*
G75*
G02*
X145735000Y-6124000I100000J0D01*
G01*
X147010000Y-6124000D01*
G75*
G02*
X147110000Y-6224000I0J-100000D01*
G01*
X147110000Y-6424000D01*
G75*
G02*
X147010000Y-6524000I-100000J0D01*
G01*
X145735000Y-6524000D01*
G75*
G02*
X145635000Y-6424000I0J100000D01*
G01*
G37*
G36*
G01*
X145635000Y-5774000D02*
X145635000Y-5574000D01*
G75*
G02*
X145735000Y-5474000I100000J0D01*
G01*
X147010000Y-5474000D01*
G75*
G02*
X147110000Y-5574000I0J-100000D01*
G01*
X147110000Y-5774000D01*
G75*
G02*
X147010000Y-5874000I-100000J0D01*
G01*
X145735000Y-5874000D01*
G75*
G02*
X145635000Y-5774000I0J100000D01*
G01*
G37*
G36*
G01*
X145635000Y-5124000D02*
X145635000Y-4924000D01*
G75*
G02*
X145735000Y-4824000I100000J0D01*
G01*
X147010000Y-4824000D01*
G75*
G02*
X147110000Y-4924000I0J-100000D01*
G01*
X147110000Y-5124000D01*
G75*
G02*
X147010000Y-5224000I-100000J0D01*
G01*
X145735000Y-5224000D01*
G75*
G02*
X145635000Y-5124000I0J100000D01*
G01*
G37*
G36*
G01*
X145635000Y-4474000D02*
X145635000Y-4274000D01*
G75*
G02*
X145735000Y-4174000I100000J0D01*
G01*
X147010000Y-4174000D01*
G75*
G02*
X147110000Y-4274000I0J-100000D01*
G01*
X147110000Y-4474000D01*
G75*
G02*
X147010000Y-4574000I-100000J0D01*
G01*
X145735000Y-4574000D01*
G75*
G02*
X145635000Y-4474000I0J100000D01*
G01*
G37*
G36*
G01*
X145635000Y-3824000D02*
X145635000Y-3624000D01*
G75*
G02*
X145735000Y-3524000I100000J0D01*
G01*
X147010000Y-3524000D01*
G75*
G02*
X147110000Y-3624000I0J-100000D01*
G01*
X147110000Y-3824000D01*
G75*
G02*
X147010000Y-3924000I-100000J0D01*
G01*
X145735000Y-3924000D01*
G75*
G02*
X145635000Y-3824000I0J100000D01*
G01*
G37*
G36*
G01*
X145635000Y-3174000D02*
X145635000Y-2974000D01*
G75*
G02*
X145735000Y-2874000I100000J0D01*
G01*
X147010000Y-2874000D01*
G75*
G02*
X147110000Y-2974000I0J-100000D01*
G01*
X147110000Y-3174000D01*
G75*
G02*
X147010000Y-3274000I-100000J0D01*
G01*
X145735000Y-3274000D01*
G75*
G02*
X145635000Y-3174000I0J100000D01*
G01*
G37*
G36*
G01*
X145635000Y-2524000D02*
X145635000Y-2324000D01*
G75*
G02*
X145735000Y-2224000I100000J0D01*
G01*
X147010000Y-2224000D01*
G75*
G02*
X147110000Y-2324000I0J-100000D01*
G01*
X147110000Y-2524000D01*
G75*
G02*
X147010000Y-2624000I-100000J0D01*
G01*
X145735000Y-2624000D01*
G75*
G02*
X145635000Y-2524000I0J100000D01*
G01*
G37*
G36*
G01*
X145635000Y-1874000D02*
X145635000Y-1674000D01*
G75*
G02*
X145735000Y-1574000I100000J0D01*
G01*
X147010000Y-1574000D01*
G75*
G02*
X147110000Y-1674000I0J-100000D01*
G01*
X147110000Y-1874000D01*
G75*
G02*
X147010000Y-1974000I-100000J0D01*
G01*
X145735000Y-1974000D01*
G75*
G02*
X145635000Y-1874000I0J100000D01*
G01*
G37*
G36*
G01*
X139910000Y-1874000D02*
X139910000Y-1674000D01*
G75*
G02*
X140010000Y-1574000I100000J0D01*
G01*
X141285000Y-1574000D01*
G75*
G02*
X141385000Y-1674000I0J-100000D01*
G01*
X141385000Y-1874000D01*
G75*
G02*
X141285000Y-1974000I-100000J0D01*
G01*
X140010000Y-1974000D01*
G75*
G02*
X139910000Y-1874000I0J100000D01*
G01*
G37*
G36*
G01*
X139910000Y-2524000D02*
X139910000Y-2324000D01*
G75*
G02*
X140010000Y-2224000I100000J0D01*
G01*
X141285000Y-2224000D01*
G75*
G02*
X141385000Y-2324000I0J-100000D01*
G01*
X141385000Y-2524000D01*
G75*
G02*
X141285000Y-2624000I-100000J0D01*
G01*
X140010000Y-2624000D01*
G75*
G02*
X139910000Y-2524000I0J100000D01*
G01*
G37*
G36*
G01*
X139910000Y-3174000D02*
X139910000Y-2974000D01*
G75*
G02*
X140010000Y-2874000I100000J0D01*
G01*
X141285000Y-2874000D01*
G75*
G02*
X141385000Y-2974000I0J-100000D01*
G01*
X141385000Y-3174000D01*
G75*
G02*
X141285000Y-3274000I-100000J0D01*
G01*
X140010000Y-3274000D01*
G75*
G02*
X139910000Y-3174000I0J100000D01*
G01*
G37*
G36*
G01*
X139910000Y-3824000D02*
X139910000Y-3624000D01*
G75*
G02*
X140010000Y-3524000I100000J0D01*
G01*
X141285000Y-3524000D01*
G75*
G02*
X141385000Y-3624000I0J-100000D01*
G01*
X141385000Y-3824000D01*
G75*
G02*
X141285000Y-3924000I-100000J0D01*
G01*
X140010000Y-3924000D01*
G75*
G02*
X139910000Y-3824000I0J100000D01*
G01*
G37*
G36*
G01*
X139910000Y-4474000D02*
X139910000Y-4274000D01*
G75*
G02*
X140010000Y-4174000I100000J0D01*
G01*
X141285000Y-4174000D01*
G75*
G02*
X141385000Y-4274000I0J-100000D01*
G01*
X141385000Y-4474000D01*
G75*
G02*
X141285000Y-4574000I-100000J0D01*
G01*
X140010000Y-4574000D01*
G75*
G02*
X139910000Y-4474000I0J100000D01*
G01*
G37*
G36*
G01*
X139910000Y-5124000D02*
X139910000Y-4924000D01*
G75*
G02*
X140010000Y-4824000I100000J0D01*
G01*
X141285000Y-4824000D01*
G75*
G02*
X141385000Y-4924000I0J-100000D01*
G01*
X141385000Y-5124000D01*
G75*
G02*
X141285000Y-5224000I-100000J0D01*
G01*
X140010000Y-5224000D01*
G75*
G02*
X139910000Y-5124000I0J100000D01*
G01*
G37*
G36*
G01*
X139910000Y-5774000D02*
X139910000Y-5574000D01*
G75*
G02*
X140010000Y-5474000I100000J0D01*
G01*
X141285000Y-5474000D01*
G75*
G02*
X141385000Y-5574000I0J-100000D01*
G01*
X141385000Y-5774000D01*
G75*
G02*
X141285000Y-5874000I-100000J0D01*
G01*
X140010000Y-5874000D01*
G75*
G02*
X139910000Y-5774000I0J100000D01*
G01*
G37*
G36*
G01*
X139910000Y-6424000D02*
X139910000Y-6224000D01*
G75*
G02*
X140010000Y-6124000I100000J0D01*
G01*
X141285000Y-6124000D01*
G75*
G02*
X141385000Y-6224000I0J-100000D01*
G01*
X141385000Y-6424000D01*
G75*
G02*
X141285000Y-6524000I-100000J0D01*
G01*
X140010000Y-6524000D01*
G75*
G02*
X139910000Y-6424000I0J100000D01*
G01*
G37*
G36*
G01*
X139910000Y-7074000D02*
X139910000Y-6874000D01*
G75*
G02*
X140010000Y-6774000I100000J0D01*
G01*
X141285000Y-6774000D01*
G75*
G02*
X141385000Y-6874000I0J-100000D01*
G01*
X141385000Y-7074000D01*
G75*
G02*
X141285000Y-7174000I-100000J0D01*
G01*
X140010000Y-7174000D01*
G75*
G02*
X139910000Y-7074000I0J100000D01*
G01*
G37*
G36*
G01*
X139910000Y-7724000D02*
X139910000Y-7524000D01*
G75*
G02*
X140010000Y-7424000I100000J0D01*
G01*
X141285000Y-7424000D01*
G75*
G02*
X141385000Y-7524000I0J-100000D01*
G01*
X141385000Y-7724000D01*
G75*
G02*
X141285000Y-7824000I-100000J0D01*
G01*
X140010000Y-7824000D01*
G75*
G02*
X139910000Y-7724000I0J100000D01*
G01*
G37*
G36*
G01*
X155644001Y-10792000D02*
X154743999Y-10792000D01*
G75*
G02*
X154494000Y-10542001I0J249999D01*
G01*
X154494000Y-9841999D01*
G75*
G02*
X154743999Y-9592000I249999J0D01*
G01*
X155644001Y-9592000D01*
G75*
G02*
X155894000Y-9841999I0J-249999D01*
G01*
X155894000Y-10542001D01*
G75*
G02*
X155644001Y-10792000I-249999J0D01*
G01*
G37*
G36*
G01*
X155644001Y-12792000D02*
X154743999Y-12792000D01*
G75*
G02*
X154494000Y-12542001I0J249999D01*
G01*
X154494000Y-11841999D01*
G75*
G02*
X154743999Y-11592000I249999J0D01*
G01*
X155644001Y-11592000D01*
G75*
G02*
X155894000Y-11841999I0J-249999D01*
G01*
X155894000Y-12542001D01*
G75*
G02*
X155644001Y-12792000I-249999J0D01*
G01*
G37*
G36*
G01*
X133419001Y-10792000D02*
X132518999Y-10792000D01*
G75*
G02*
X132269000Y-10542001I0J249999D01*
G01*
X132269000Y-9841999D01*
G75*
G02*
X132518999Y-9592000I249999J0D01*
G01*
X133419001Y-9592000D01*
G75*
G02*
X133669000Y-9841999I0J-249999D01*
G01*
X133669000Y-10542001D01*
G75*
G02*
X133419001Y-10792000I-249999J0D01*
G01*
G37*
G36*
G01*
X133419001Y-12792000D02*
X132518999Y-12792000D01*
G75*
G02*
X132269000Y-12542001I0J249999D01*
G01*
X132269000Y-11841999D01*
G75*
G02*
X132518999Y-11592000I249999J0D01*
G01*
X133419001Y-11592000D01*
G75*
G02*
X133669000Y-11841999I0J-249999D01*
G01*
X133669000Y-12542001D01*
G75*
G02*
X133419001Y-12792000I-249999J0D01*
G01*
G37*
G36*
G01*
X102939001Y-10792000D02*
X102038999Y-10792000D01*
G75*
G02*
X101789000Y-10542001I0J249999D01*
G01*
X101789000Y-9841999D01*
G75*
G02*
X102038999Y-9592000I249999J0D01*
G01*
X102939001Y-9592000D01*
G75*
G02*
X103189000Y-9841999I0J-249999D01*
G01*
X103189000Y-10542001D01*
G75*
G02*
X102939001Y-10792000I-249999J0D01*
G01*
G37*
G36*
G01*
X102939001Y-12792000D02*
X102038999Y-12792000D01*
G75*
G02*
X101789000Y-12542001I0J249999D01*
G01*
X101789000Y-11841999D01*
G75*
G02*
X102038999Y-11592000I249999J0D01*
G01*
X102939001Y-11592000D01*
G75*
G02*
X103189000Y-11841999I0J-249999D01*
G01*
X103189000Y-12542001D01*
G75*
G02*
X102939001Y-12792000I-249999J0D01*
G01*
G37*
G36*
G01*
X170999999Y-109366000D02*
X171900001Y-109366000D01*
G75*
G02*
X172150000Y-109615999I0J-249999D01*
G01*
X172150000Y-110316001D01*
G75*
G02*
X171900001Y-110566000I-249999J0D01*
G01*
X170999999Y-110566000D01*
G75*
G02*
X170750000Y-110316001I0J249999D01*
G01*
X170750000Y-109615999D01*
G75*
G02*
X170999999Y-109366000I249999J0D01*
G01*
G37*
G36*
G01*
X170999999Y-107366000D02*
X171900001Y-107366000D01*
G75*
G02*
X172150000Y-107615999I0J-249999D01*
G01*
X172150000Y-108316001D01*
G75*
G02*
X171900001Y-108566000I-249999J0D01*
G01*
X170999999Y-108566000D01*
G75*
G02*
X170750000Y-108316001I0J249999D01*
G01*
X170750000Y-107615999D01*
G75*
G02*
X170999999Y-107366000I249999J0D01*
G01*
G37*
G36*
G01*
X171253999Y-100968000D02*
X172154001Y-100968000D01*
G75*
G02*
X172404000Y-101217999I0J-249999D01*
G01*
X172404000Y-101918001D01*
G75*
G02*
X172154001Y-102168000I-249999J0D01*
G01*
X171253999Y-102168000D01*
G75*
G02*
X171004000Y-101918001I0J249999D01*
G01*
X171004000Y-101217999D01*
G75*
G02*
X171253999Y-100968000I249999J0D01*
G01*
G37*
G36*
G01*
X171253999Y-98968000D02*
X172154001Y-98968000D01*
G75*
G02*
X172404000Y-99217999I0J-249999D01*
G01*
X172404000Y-99918001D01*
G75*
G02*
X172154001Y-100168000I-249999J0D01*
G01*
X171253999Y-100168000D01*
G75*
G02*
X171004000Y-99918001I0J249999D01*
G01*
X171004000Y-99217999D01*
G75*
G02*
X171253999Y-98968000I249999J0D01*
G01*
G37*
G36*
G01*
X171900001Y-79245000D02*
X170999999Y-79245000D01*
G75*
G02*
X170750000Y-78995001I0J249999D01*
G01*
X170750000Y-78294999D01*
G75*
G02*
X170999999Y-78045000I249999J0D01*
G01*
X171900001Y-78045000D01*
G75*
G02*
X172150000Y-78294999I0J-249999D01*
G01*
X172150000Y-78995001D01*
G75*
G02*
X171900001Y-79245000I-249999J0D01*
G01*
G37*
G36*
G01*
X171900001Y-81245000D02*
X170999999Y-81245000D01*
G75*
G02*
X170750000Y-80995001I0J249999D01*
G01*
X170750000Y-80294999D01*
G75*
G02*
X170999999Y-80045000I249999J0D01*
G01*
X171900001Y-80045000D01*
G75*
G02*
X172150000Y-80294999I0J-249999D01*
G01*
X172150000Y-80995001D01*
G75*
G02*
X171900001Y-81245000I-249999J0D01*
G01*
G37*
G36*
G01*
X171900001Y-70990000D02*
X170999999Y-70990000D01*
G75*
G02*
X170750000Y-70740001I0J249999D01*
G01*
X170750000Y-70039999D01*
G75*
G02*
X170999999Y-69790000I249999J0D01*
G01*
X171900001Y-69790000D01*
G75*
G02*
X172150000Y-70039999I0J-249999D01*
G01*
X172150000Y-70740001D01*
G75*
G02*
X171900001Y-70990000I-249999J0D01*
G01*
G37*
G36*
G01*
X171900001Y-72990000D02*
X170999999Y-72990000D01*
G75*
G02*
X170750000Y-72740001I0J249999D01*
G01*
X170750000Y-72039999D01*
G75*
G02*
X170999999Y-71790000I249999J0D01*
G01*
X171900001Y-71790000D01*
G75*
G02*
X172150000Y-72039999I0J-249999D01*
G01*
X172150000Y-72740001D01*
G75*
G02*
X171900001Y-72990000I-249999J0D01*
G01*
G37*
G36*
G01*
X172154001Y-62719000D02*
X171253999Y-62719000D01*
G75*
G02*
X171004000Y-62469001I0J249999D01*
G01*
X171004000Y-61768999D01*
G75*
G02*
X171253999Y-61519000I249999J0D01*
G01*
X172154001Y-61519000D01*
G75*
G02*
X172404000Y-61768999I0J-249999D01*
G01*
X172404000Y-62469001D01*
G75*
G02*
X172154001Y-62719000I-249999J0D01*
G01*
G37*
G36*
G01*
X172154001Y-64719000D02*
X171253999Y-64719000D01*
G75*
G02*
X171004000Y-64469001I0J249999D01*
G01*
X171004000Y-63768999D01*
G75*
G02*
X171253999Y-63519000I249999J0D01*
G01*
X172154001Y-63519000D01*
G75*
G02*
X172404000Y-63768999I0J-249999D01*
G01*
X172404000Y-64469001D01*
G75*
G02*
X172154001Y-64719000I-249999J0D01*
G01*
G37*
G36*
G01*
X171900001Y-54480000D02*
X170999999Y-54480000D01*
G75*
G02*
X170750000Y-54230001I0J249999D01*
G01*
X170750000Y-53529999D01*
G75*
G02*
X170999999Y-53280000I249999J0D01*
G01*
X171900001Y-53280000D01*
G75*
G02*
X172150000Y-53529999I0J-249999D01*
G01*
X172150000Y-54230001D01*
G75*
G02*
X171900001Y-54480000I-249999J0D01*
G01*
G37*
G36*
G01*
X171900001Y-56480000D02*
X170999999Y-56480000D01*
G75*
G02*
X170750000Y-56230001I0J249999D01*
G01*
X170750000Y-55529999D01*
G75*
G02*
X170999999Y-55280000I249999J0D01*
G01*
X171900001Y-55280000D01*
G75*
G02*
X172150000Y-55529999I0J-249999D01*
G01*
X172150000Y-56230001D01*
G75*
G02*
X171900001Y-56480000I-249999J0D01*
G01*
G37*
G36*
G01*
X172154001Y-46209000D02*
X171253999Y-46209000D01*
G75*
G02*
X171004000Y-45959001I0J249999D01*
G01*
X171004000Y-45258999D01*
G75*
G02*
X171253999Y-45009000I249999J0D01*
G01*
X172154001Y-45009000D01*
G75*
G02*
X172404000Y-45258999I0J-249999D01*
G01*
X172404000Y-45959001D01*
G75*
G02*
X172154001Y-46209000I-249999J0D01*
G01*
G37*
G36*
G01*
X172154001Y-48209000D02*
X171253999Y-48209000D01*
G75*
G02*
X171004000Y-47959001I0J249999D01*
G01*
X171004000Y-47258999D01*
G75*
G02*
X171253999Y-47009000I249999J0D01*
G01*
X172154001Y-47009000D01*
G75*
G02*
X172404000Y-47258999I0J-249999D01*
G01*
X172404000Y-47959001D01*
G75*
G02*
X172154001Y-48209000I-249999J0D01*
G01*
G37*
G36*
G01*
X171888999Y-120145000D02*
X172789001Y-120145000D01*
G75*
G02*
X173039000Y-120394999I0J-249999D01*
G01*
X173039000Y-121095001D01*
G75*
G02*
X172789001Y-121345000I-249999J0D01*
G01*
X171888999Y-121345000D01*
G75*
G02*
X171639000Y-121095001I0J249999D01*
G01*
X171639000Y-120394999D01*
G75*
G02*
X171888999Y-120145000I249999J0D01*
G01*
G37*
G36*
G01*
X171888999Y-118145000D02*
X172789001Y-118145000D01*
G75*
G02*
X173039000Y-118394999I0J-249999D01*
G01*
X173039000Y-119095001D01*
G75*
G02*
X172789001Y-119345000I-249999J0D01*
G01*
X171888999Y-119345000D01*
G75*
G02*
X171639000Y-119095001I0J249999D01*
G01*
X171639000Y-118394999D01*
G75*
G02*
X171888999Y-118145000I249999J0D01*
G01*
G37*
G36*
G01*
X170999999Y-156467000D02*
X171900001Y-156467000D01*
G75*
G02*
X172150000Y-156716999I0J-249999D01*
G01*
X172150000Y-157417001D01*
G75*
G02*
X171900001Y-157667000I-249999J0D01*
G01*
X170999999Y-157667000D01*
G75*
G02*
X170750000Y-157417001I0J249999D01*
G01*
X170750000Y-156716999D01*
G75*
G02*
X170999999Y-156467000I249999J0D01*
G01*
G37*
G36*
G01*
X170999999Y-154467000D02*
X171900001Y-154467000D01*
G75*
G02*
X172150000Y-154716999I0J-249999D01*
G01*
X172150000Y-155417001D01*
G75*
G02*
X171900001Y-155667000I-249999J0D01*
G01*
X170999999Y-155667000D01*
G75*
G02*
X170750000Y-155417001I0J249999D01*
G01*
X170750000Y-154716999D01*
G75*
G02*
X170999999Y-154467000I249999J0D01*
G01*
G37*
G36*
G01*
X171761999Y-128527000D02*
X172662001Y-128527000D01*
G75*
G02*
X172912000Y-128776999I0J-249999D01*
G01*
X172912000Y-129477001D01*
G75*
G02*
X172662001Y-129727000I-249999J0D01*
G01*
X171761999Y-129727000D01*
G75*
G02*
X171512000Y-129477001I0J249999D01*
G01*
X171512000Y-128776999D01*
G75*
G02*
X171761999Y-128527000I249999J0D01*
G01*
G37*
G36*
G01*
X171761999Y-126527000D02*
X172662001Y-126527000D01*
G75*
G02*
X172912000Y-126776999I0J-249999D01*
G01*
X172912000Y-127477001D01*
G75*
G02*
X172662001Y-127727000I-249999J0D01*
G01*
X171761999Y-127727000D01*
G75*
G02*
X171512000Y-127477001I0J249999D01*
G01*
X171512000Y-126776999D01*
G75*
G02*
X171761999Y-126527000I249999J0D01*
G01*
G37*
G36*
G01*
X172142999Y-136782000D02*
X173043001Y-136782000D01*
G75*
G02*
X173293000Y-137031999I0J-249999D01*
G01*
X173293000Y-137732001D01*
G75*
G02*
X173043001Y-137982000I-249999J0D01*
G01*
X172142999Y-137982000D01*
G75*
G02*
X171893000Y-137732001I0J249999D01*
G01*
X171893000Y-137031999D01*
G75*
G02*
X172142999Y-136782000I249999J0D01*
G01*
G37*
G36*
G01*
X172142999Y-134782000D02*
X173043001Y-134782000D01*
G75*
G02*
X173293000Y-135031999I0J-249999D01*
G01*
X173293000Y-135732001D01*
G75*
G02*
X173043001Y-135982000I-249999J0D01*
G01*
X172142999Y-135982000D01*
G75*
G02*
X171893000Y-135732001I0J249999D01*
G01*
X171893000Y-135031999D01*
G75*
G02*
X172142999Y-134782000I249999J0D01*
G01*
G37*
G36*
G01*
X170999999Y-148212000D02*
X171900001Y-148212000D01*
G75*
G02*
X172150000Y-148461999I0J-249999D01*
G01*
X172150000Y-149162001D01*
G75*
G02*
X171900001Y-149412000I-249999J0D01*
G01*
X170999999Y-149412000D01*
G75*
G02*
X170750000Y-149162001I0J249999D01*
G01*
X170750000Y-148461999D01*
G75*
G02*
X170999999Y-148212000I249999J0D01*
G01*
G37*
G36*
G01*
X170999999Y-146212000D02*
X171900001Y-146212000D01*
G75*
G02*
X172150000Y-146461999I0J-249999D01*
G01*
X172150000Y-147162001D01*
G75*
G02*
X171900001Y-147412000I-249999J0D01*
G01*
X170999999Y-147412000D01*
G75*
G02*
X170750000Y-147162001I0J249999D01*
G01*
X170750000Y-146461999D01*
G75*
G02*
X170999999Y-146212000I249999J0D01*
G01*
G37*
G36*
G01*
X171900001Y-170050000D02*
X170999999Y-170050000D01*
G75*
G02*
X170750000Y-169800001I0J249999D01*
G01*
X170750000Y-169099999D01*
G75*
G02*
X170999999Y-168850000I249999J0D01*
G01*
X171900001Y-168850000D01*
G75*
G02*
X172150000Y-169099999I0J-249999D01*
G01*
X172150000Y-169800001D01*
G75*
G02*
X171900001Y-170050000I-249999J0D01*
G01*
G37*
G36*
G01*
X171900001Y-172050000D02*
X170999999Y-172050000D01*
G75*
G02*
X170750000Y-171800001I0J249999D01*
G01*
X170750000Y-171099999D01*
G75*
G02*
X170999999Y-170850000I249999J0D01*
G01*
X171900001Y-170850000D01*
G75*
G02*
X172150000Y-171099999I0J-249999D01*
G01*
X172150000Y-171800001D01*
G75*
G02*
X171900001Y-172050000I-249999J0D01*
G01*
G37*
G36*
G01*
X171900001Y-161795000D02*
X170999999Y-161795000D01*
G75*
G02*
X170750000Y-161545001I0J249999D01*
G01*
X170750000Y-160844999D01*
G75*
G02*
X170999999Y-160595000I249999J0D01*
G01*
X171900001Y-160595000D01*
G75*
G02*
X172150000Y-160844999I0J-249999D01*
G01*
X172150000Y-161545001D01*
G75*
G02*
X171900001Y-161795000I-249999J0D01*
G01*
G37*
G36*
G01*
X171900001Y-163795000D02*
X170999999Y-163795000D01*
G75*
G02*
X170750000Y-163545001I0J249999D01*
G01*
X170750000Y-162844999D01*
G75*
G02*
X170999999Y-162595000I249999J0D01*
G01*
X171900001Y-162595000D01*
G75*
G02*
X172150000Y-162844999I0J-249999D01*
G01*
X172150000Y-163545001D01*
G75*
G02*
X171900001Y-163795000I-249999J0D01*
G01*
G37*
G36*
G01*
X171900001Y-34795000D02*
X170999999Y-34795000D01*
G75*
G02*
X170750000Y-34545001I0J249999D01*
G01*
X170750000Y-33844999D01*
G75*
G02*
X170999999Y-33595000I249999J0D01*
G01*
X171900001Y-33595000D01*
G75*
G02*
X172150000Y-33844999I0J-249999D01*
G01*
X172150000Y-34545001D01*
G75*
G02*
X171900001Y-34795000I-249999J0D01*
G01*
G37*
G36*
G01*
X171900001Y-36795000D02*
X170999999Y-36795000D01*
G75*
G02*
X170750000Y-36545001I0J249999D01*
G01*
X170750000Y-35844999D01*
G75*
G02*
X170999999Y-35595000I249999J0D01*
G01*
X171900001Y-35595000D01*
G75*
G02*
X172150000Y-35844999I0J-249999D01*
G01*
X172150000Y-36545001D01*
G75*
G02*
X171900001Y-36795000I-249999J0D01*
G01*
G37*
G36*
G01*
X171900001Y-26540000D02*
X170999999Y-26540000D01*
G75*
G02*
X170750000Y-26290001I0J249999D01*
G01*
X170750000Y-25589999D01*
G75*
G02*
X170999999Y-25340000I249999J0D01*
G01*
X171900001Y-25340000D01*
G75*
G02*
X172150000Y-25589999I0J-249999D01*
G01*
X172150000Y-26290001D01*
G75*
G02*
X171900001Y-26540000I-249999J0D01*
G01*
G37*
G36*
G01*
X171900001Y-28540000D02*
X170999999Y-28540000D01*
G75*
G02*
X170750000Y-28290001I0J249999D01*
G01*
X170750000Y-27589999D01*
G75*
G02*
X170999999Y-27340000I249999J0D01*
G01*
X171900001Y-27340000D01*
G75*
G02*
X172150000Y-27589999I0J-249999D01*
G01*
X172150000Y-28290001D01*
G75*
G02*
X171900001Y-28540000I-249999J0D01*
G01*
G37*
G36*
G01*
X171900001Y-18285000D02*
X170999999Y-18285000D01*
G75*
G02*
X170750000Y-18035001I0J249999D01*
G01*
X170750000Y-17334999D01*
G75*
G02*
X170999999Y-17085000I249999J0D01*
G01*
X171900001Y-17085000D01*
G75*
G02*
X172150000Y-17334999I0J-249999D01*
G01*
X172150000Y-18035001D01*
G75*
G02*
X171900001Y-18285000I-249999J0D01*
G01*
G37*
G36*
G01*
X171900001Y-20285000D02*
X170999999Y-20285000D01*
G75*
G02*
X170750000Y-20035001I0J249999D01*
G01*
X170750000Y-19334999D01*
G75*
G02*
X170999999Y-19085000I249999J0D01*
G01*
X171900001Y-19085000D01*
G75*
G02*
X172150000Y-19334999I0J-249999D01*
G01*
X172150000Y-20035001D01*
G75*
G02*
X171900001Y-20285000I-249999J0D01*
G01*
G37*
G36*
G01*
X171900001Y-10030000D02*
X170999999Y-10030000D01*
G75*
G02*
X170750000Y-9780001I0J249999D01*
G01*
X170750000Y-9079999D01*
G75*
G02*
X170999999Y-8830000I249999J0D01*
G01*
X171900001Y-8830000D01*
G75*
G02*
X172150000Y-9079999I0J-249999D01*
G01*
X172150000Y-9780001D01*
G75*
G02*
X171900001Y-10030000I-249999J0D01*
G01*
G37*
G36*
G01*
X171900001Y-12030000D02*
X170999999Y-12030000D01*
G75*
G02*
X170750000Y-11780001I0J249999D01*
G01*
X170750000Y-11079999D01*
G75*
G02*
X170999999Y-10830000I249999J0D01*
G01*
X171900001Y-10830000D01*
G75*
G02*
X172150000Y-11079999I0J-249999D01*
G01*
X172150000Y-11780001D01*
G75*
G02*
X171900001Y-12030000I-249999J0D01*
G01*
G37*
M02*
