G04 #@! TF.GenerationSoftware,KiCad,Pcbnew,(5.1.12)-1*
G04 #@! TF.CreationDate,2023-07-18T15:35:10+01:00*
G04 #@! TF.ProjectId,Memory,4d656d6f-7279-42e6-9b69-6361645f7063,rev?*
G04 #@! TF.SameCoordinates,Original*
G04 #@! TF.FileFunction,Paste,Top*
G04 #@! TF.FilePolarity,Positive*
%FSLAX46Y46*%
G04 Gerber Fmt 4.6, Leading zero omitted, Abs format (unit mm)*
G04 Created by KiCad (PCBNEW (5.1.12)-1) date 2023-07-18 15:35:10*
%MOMM*%
%LPD*%
G01*
G04 APERTURE LIST*
%ADD10R,2.000000X0.350000*%
%ADD11R,1.000000X2.000000*%
G04 APERTURE END LIST*
G36*
G01*
X86175000Y-135705001D02*
X86175000Y-134804999D01*
G75*
G02*
X86424999Y-134555000I249999J0D01*
G01*
X87075001Y-134555000D01*
G75*
G02*
X87325000Y-134804999I0J-249999D01*
G01*
X87325000Y-135705001D01*
G75*
G02*
X87075001Y-135955000I-249999J0D01*
G01*
X86424999Y-135955000D01*
G75*
G02*
X86175000Y-135705001I0J249999D01*
G01*
G37*
G36*
G01*
X84125000Y-135705001D02*
X84125000Y-134804999D01*
G75*
G02*
X84374999Y-134555000I249999J0D01*
G01*
X85025001Y-134555000D01*
G75*
G02*
X85275000Y-134804999I0J-249999D01*
G01*
X85275000Y-135705001D01*
G75*
G02*
X85025001Y-135955000I-249999J0D01*
G01*
X84374999Y-135955000D01*
G75*
G02*
X84125000Y-135705001I0J249999D01*
G01*
G37*
G36*
G01*
X108400000Y-135705001D02*
X108400000Y-134804999D01*
G75*
G02*
X108649999Y-134555000I249999J0D01*
G01*
X109300001Y-134555000D01*
G75*
G02*
X109550000Y-134804999I0J-249999D01*
G01*
X109550000Y-135705001D01*
G75*
G02*
X109300001Y-135955000I-249999J0D01*
G01*
X108649999Y-135955000D01*
G75*
G02*
X108400000Y-135705001I0J249999D01*
G01*
G37*
G36*
G01*
X106350000Y-135705001D02*
X106350000Y-134804999D01*
G75*
G02*
X106599999Y-134555000I249999J0D01*
G01*
X107250001Y-134555000D01*
G75*
G02*
X107500000Y-134804999I0J-249999D01*
G01*
X107500000Y-135705001D01*
G75*
G02*
X107250001Y-135955000I-249999J0D01*
G01*
X106599999Y-135955000D01*
G75*
G02*
X106350000Y-135705001I0J249999D01*
G01*
G37*
G36*
G01*
X138880000Y-135705001D02*
X138880000Y-134804999D01*
G75*
G02*
X139129999Y-134555000I249999J0D01*
G01*
X139780001Y-134555000D01*
G75*
G02*
X140030000Y-134804999I0J-249999D01*
G01*
X140030000Y-135705001D01*
G75*
G02*
X139780001Y-135955000I-249999J0D01*
G01*
X139129999Y-135955000D01*
G75*
G02*
X138880000Y-135705001I0J249999D01*
G01*
G37*
G36*
G01*
X136830000Y-135705001D02*
X136830000Y-134804999D01*
G75*
G02*
X137079999Y-134555000I249999J0D01*
G01*
X137730001Y-134555000D01*
G75*
G02*
X137980000Y-134804999I0J-249999D01*
G01*
X137980000Y-135705001D01*
G75*
G02*
X137730001Y-135955000I-249999J0D01*
G01*
X137079999Y-135955000D01*
G75*
G02*
X136830000Y-135705001I0J249999D01*
G01*
G37*
G36*
G01*
X161105000Y-135705001D02*
X161105000Y-134804999D01*
G75*
G02*
X161354999Y-134555000I249999J0D01*
G01*
X162005001Y-134555000D01*
G75*
G02*
X162255000Y-134804999I0J-249999D01*
G01*
X162255000Y-135705001D01*
G75*
G02*
X162005001Y-135955000I-249999J0D01*
G01*
X161354999Y-135955000D01*
G75*
G02*
X161105000Y-135705001I0J249999D01*
G01*
G37*
G36*
G01*
X159055000Y-135705001D02*
X159055000Y-134804999D01*
G75*
G02*
X159304999Y-134555000I249999J0D01*
G01*
X159955001Y-134555000D01*
G75*
G02*
X160205000Y-134804999I0J-249999D01*
G01*
X160205000Y-135705001D01*
G75*
G02*
X159955001Y-135955000I-249999J0D01*
G01*
X159304999Y-135955000D01*
G75*
G02*
X159055000Y-135705001I0J249999D01*
G01*
G37*
G36*
G01*
X86175000Y-118560001D02*
X86175000Y-117659999D01*
G75*
G02*
X86424999Y-117410000I249999J0D01*
G01*
X87075001Y-117410000D01*
G75*
G02*
X87325000Y-117659999I0J-249999D01*
G01*
X87325000Y-118560001D01*
G75*
G02*
X87075001Y-118810000I-249999J0D01*
G01*
X86424999Y-118810000D01*
G75*
G02*
X86175000Y-118560001I0J249999D01*
G01*
G37*
G36*
G01*
X84125000Y-118560001D02*
X84125000Y-117659999D01*
G75*
G02*
X84374999Y-117410000I249999J0D01*
G01*
X85025001Y-117410000D01*
G75*
G02*
X85275000Y-117659999I0J-249999D01*
G01*
X85275000Y-118560001D01*
G75*
G02*
X85025001Y-118810000I-249999J0D01*
G01*
X84374999Y-118810000D01*
G75*
G02*
X84125000Y-118560001I0J249999D01*
G01*
G37*
G36*
G01*
X108400000Y-118560001D02*
X108400000Y-117659999D01*
G75*
G02*
X108649999Y-117410000I249999J0D01*
G01*
X109300001Y-117410000D01*
G75*
G02*
X109550000Y-117659999I0J-249999D01*
G01*
X109550000Y-118560001D01*
G75*
G02*
X109300001Y-118810000I-249999J0D01*
G01*
X108649999Y-118810000D01*
G75*
G02*
X108400000Y-118560001I0J249999D01*
G01*
G37*
G36*
G01*
X106350000Y-118560001D02*
X106350000Y-117659999D01*
G75*
G02*
X106599999Y-117410000I249999J0D01*
G01*
X107250001Y-117410000D01*
G75*
G02*
X107500000Y-117659999I0J-249999D01*
G01*
X107500000Y-118560001D01*
G75*
G02*
X107250001Y-118810000I-249999J0D01*
G01*
X106599999Y-118810000D01*
G75*
G02*
X106350000Y-118560001I0J249999D01*
G01*
G37*
G36*
G01*
X138880000Y-118560001D02*
X138880000Y-117659999D01*
G75*
G02*
X139129999Y-117410000I249999J0D01*
G01*
X139780001Y-117410000D01*
G75*
G02*
X140030000Y-117659999I0J-249999D01*
G01*
X140030000Y-118560001D01*
G75*
G02*
X139780001Y-118810000I-249999J0D01*
G01*
X139129999Y-118810000D01*
G75*
G02*
X138880000Y-118560001I0J249999D01*
G01*
G37*
G36*
G01*
X136830000Y-118560001D02*
X136830000Y-117659999D01*
G75*
G02*
X137079999Y-117410000I249999J0D01*
G01*
X137730001Y-117410000D01*
G75*
G02*
X137980000Y-117659999I0J-249999D01*
G01*
X137980000Y-118560001D01*
G75*
G02*
X137730001Y-118810000I-249999J0D01*
G01*
X137079999Y-118810000D01*
G75*
G02*
X136830000Y-118560001I0J249999D01*
G01*
G37*
G36*
G01*
X161105000Y-118560001D02*
X161105000Y-117659999D01*
G75*
G02*
X161354999Y-117410000I249999J0D01*
G01*
X162005001Y-117410000D01*
G75*
G02*
X162255000Y-117659999I0J-249999D01*
G01*
X162255000Y-118560001D01*
G75*
G02*
X162005001Y-118810000I-249999J0D01*
G01*
X161354999Y-118810000D01*
G75*
G02*
X161105000Y-118560001I0J249999D01*
G01*
G37*
G36*
G01*
X159055000Y-118560001D02*
X159055000Y-117659999D01*
G75*
G02*
X159304999Y-117410000I249999J0D01*
G01*
X159955001Y-117410000D01*
G75*
G02*
X160205000Y-117659999I0J-249999D01*
G01*
X160205000Y-118560001D01*
G75*
G02*
X159955001Y-118810000I-249999J0D01*
G01*
X159304999Y-118810000D01*
G75*
G02*
X159055000Y-118560001I0J249999D01*
G01*
G37*
G36*
G01*
X86175000Y-101415001D02*
X86175000Y-100514999D01*
G75*
G02*
X86424999Y-100265000I249999J0D01*
G01*
X87075001Y-100265000D01*
G75*
G02*
X87325000Y-100514999I0J-249999D01*
G01*
X87325000Y-101415001D01*
G75*
G02*
X87075001Y-101665000I-249999J0D01*
G01*
X86424999Y-101665000D01*
G75*
G02*
X86175000Y-101415001I0J249999D01*
G01*
G37*
G36*
G01*
X84125000Y-101415001D02*
X84125000Y-100514999D01*
G75*
G02*
X84374999Y-100265000I249999J0D01*
G01*
X85025001Y-100265000D01*
G75*
G02*
X85275000Y-100514999I0J-249999D01*
G01*
X85275000Y-101415001D01*
G75*
G02*
X85025001Y-101665000I-249999J0D01*
G01*
X84374999Y-101665000D01*
G75*
G02*
X84125000Y-101415001I0J249999D01*
G01*
G37*
G36*
G01*
X108400000Y-101415001D02*
X108400000Y-100514999D01*
G75*
G02*
X108649999Y-100265000I249999J0D01*
G01*
X109300001Y-100265000D01*
G75*
G02*
X109550000Y-100514999I0J-249999D01*
G01*
X109550000Y-101415001D01*
G75*
G02*
X109300001Y-101665000I-249999J0D01*
G01*
X108649999Y-101665000D01*
G75*
G02*
X108400000Y-101415001I0J249999D01*
G01*
G37*
G36*
G01*
X106350000Y-101415001D02*
X106350000Y-100514999D01*
G75*
G02*
X106599999Y-100265000I249999J0D01*
G01*
X107250001Y-100265000D01*
G75*
G02*
X107500000Y-100514999I0J-249999D01*
G01*
X107500000Y-101415001D01*
G75*
G02*
X107250001Y-101665000I-249999J0D01*
G01*
X106599999Y-101665000D01*
G75*
G02*
X106350000Y-101415001I0J249999D01*
G01*
G37*
G36*
G01*
X138880000Y-101415001D02*
X138880000Y-100514999D01*
G75*
G02*
X139129999Y-100265000I249999J0D01*
G01*
X139780001Y-100265000D01*
G75*
G02*
X140030000Y-100514999I0J-249999D01*
G01*
X140030000Y-101415001D01*
G75*
G02*
X139780001Y-101665000I-249999J0D01*
G01*
X139129999Y-101665000D01*
G75*
G02*
X138880000Y-101415001I0J249999D01*
G01*
G37*
G36*
G01*
X136830000Y-101415001D02*
X136830000Y-100514999D01*
G75*
G02*
X137079999Y-100265000I249999J0D01*
G01*
X137730001Y-100265000D01*
G75*
G02*
X137980000Y-100514999I0J-249999D01*
G01*
X137980000Y-101415001D01*
G75*
G02*
X137730001Y-101665000I-249999J0D01*
G01*
X137079999Y-101665000D01*
G75*
G02*
X136830000Y-101415001I0J249999D01*
G01*
G37*
G36*
G01*
X161105000Y-101415001D02*
X161105000Y-100514999D01*
G75*
G02*
X161354999Y-100265000I249999J0D01*
G01*
X162005001Y-100265000D01*
G75*
G02*
X162255000Y-100514999I0J-249999D01*
G01*
X162255000Y-101415001D01*
G75*
G02*
X162005001Y-101665000I-249999J0D01*
G01*
X161354999Y-101665000D01*
G75*
G02*
X161105000Y-101415001I0J249999D01*
G01*
G37*
G36*
G01*
X159055000Y-101415001D02*
X159055000Y-100514999D01*
G75*
G02*
X159304999Y-100265000I249999J0D01*
G01*
X159955001Y-100265000D01*
G75*
G02*
X160205000Y-100514999I0J-249999D01*
G01*
X160205000Y-101415001D01*
G75*
G02*
X159955001Y-101665000I-249999J0D01*
G01*
X159304999Y-101665000D01*
G75*
G02*
X159055000Y-101415001I0J249999D01*
G01*
G37*
G36*
G01*
X86175000Y-84270001D02*
X86175000Y-83369999D01*
G75*
G02*
X86424999Y-83120000I249999J0D01*
G01*
X87075001Y-83120000D01*
G75*
G02*
X87325000Y-83369999I0J-249999D01*
G01*
X87325000Y-84270001D01*
G75*
G02*
X87075001Y-84520000I-249999J0D01*
G01*
X86424999Y-84520000D01*
G75*
G02*
X86175000Y-84270001I0J249999D01*
G01*
G37*
G36*
G01*
X84125000Y-84270001D02*
X84125000Y-83369999D01*
G75*
G02*
X84374999Y-83120000I249999J0D01*
G01*
X85025001Y-83120000D01*
G75*
G02*
X85275000Y-83369999I0J-249999D01*
G01*
X85275000Y-84270001D01*
G75*
G02*
X85025001Y-84520000I-249999J0D01*
G01*
X84374999Y-84520000D01*
G75*
G02*
X84125000Y-84270001I0J249999D01*
G01*
G37*
G36*
G01*
X108400000Y-84270001D02*
X108400000Y-83369999D01*
G75*
G02*
X108649999Y-83120000I249999J0D01*
G01*
X109300001Y-83120000D01*
G75*
G02*
X109550000Y-83369999I0J-249999D01*
G01*
X109550000Y-84270001D01*
G75*
G02*
X109300001Y-84520000I-249999J0D01*
G01*
X108649999Y-84520000D01*
G75*
G02*
X108400000Y-84270001I0J249999D01*
G01*
G37*
G36*
G01*
X106350000Y-84270001D02*
X106350000Y-83369999D01*
G75*
G02*
X106599999Y-83120000I249999J0D01*
G01*
X107250001Y-83120000D01*
G75*
G02*
X107500000Y-83369999I0J-249999D01*
G01*
X107500000Y-84270001D01*
G75*
G02*
X107250001Y-84520000I-249999J0D01*
G01*
X106599999Y-84520000D01*
G75*
G02*
X106350000Y-84270001I0J249999D01*
G01*
G37*
G36*
G01*
X138880000Y-84270001D02*
X138880000Y-83369999D01*
G75*
G02*
X139129999Y-83120000I249999J0D01*
G01*
X139780001Y-83120000D01*
G75*
G02*
X140030000Y-83369999I0J-249999D01*
G01*
X140030000Y-84270001D01*
G75*
G02*
X139780001Y-84520000I-249999J0D01*
G01*
X139129999Y-84520000D01*
G75*
G02*
X138880000Y-84270001I0J249999D01*
G01*
G37*
G36*
G01*
X136830000Y-84270001D02*
X136830000Y-83369999D01*
G75*
G02*
X137079999Y-83120000I249999J0D01*
G01*
X137730001Y-83120000D01*
G75*
G02*
X137980000Y-83369999I0J-249999D01*
G01*
X137980000Y-84270001D01*
G75*
G02*
X137730001Y-84520000I-249999J0D01*
G01*
X137079999Y-84520000D01*
G75*
G02*
X136830000Y-84270001I0J249999D01*
G01*
G37*
G36*
G01*
X161105000Y-84270001D02*
X161105000Y-83369999D01*
G75*
G02*
X161354999Y-83120000I249999J0D01*
G01*
X162005001Y-83120000D01*
G75*
G02*
X162255000Y-83369999I0J-249999D01*
G01*
X162255000Y-84270001D01*
G75*
G02*
X162005001Y-84520000I-249999J0D01*
G01*
X161354999Y-84520000D01*
G75*
G02*
X161105000Y-84270001I0J249999D01*
G01*
G37*
G36*
G01*
X159055000Y-84270001D02*
X159055000Y-83369999D01*
G75*
G02*
X159304999Y-83120000I249999J0D01*
G01*
X159955001Y-83120000D01*
G75*
G02*
X160205000Y-83369999I0J-249999D01*
G01*
X160205000Y-84270001D01*
G75*
G02*
X159955001Y-84520000I-249999J0D01*
G01*
X159304999Y-84520000D01*
G75*
G02*
X159055000Y-84270001I0J249999D01*
G01*
G37*
G36*
G01*
X86175000Y-67125001D02*
X86175000Y-66224999D01*
G75*
G02*
X86424999Y-65975000I249999J0D01*
G01*
X87075001Y-65975000D01*
G75*
G02*
X87325000Y-66224999I0J-249999D01*
G01*
X87325000Y-67125001D01*
G75*
G02*
X87075001Y-67375000I-249999J0D01*
G01*
X86424999Y-67375000D01*
G75*
G02*
X86175000Y-67125001I0J249999D01*
G01*
G37*
G36*
G01*
X84125000Y-67125001D02*
X84125000Y-66224999D01*
G75*
G02*
X84374999Y-65975000I249999J0D01*
G01*
X85025001Y-65975000D01*
G75*
G02*
X85275000Y-66224999I0J-249999D01*
G01*
X85275000Y-67125001D01*
G75*
G02*
X85025001Y-67375000I-249999J0D01*
G01*
X84374999Y-67375000D01*
G75*
G02*
X84125000Y-67125001I0J249999D01*
G01*
G37*
G36*
G01*
X108400000Y-67125001D02*
X108400000Y-66224999D01*
G75*
G02*
X108649999Y-65975000I249999J0D01*
G01*
X109300001Y-65975000D01*
G75*
G02*
X109550000Y-66224999I0J-249999D01*
G01*
X109550000Y-67125001D01*
G75*
G02*
X109300001Y-67375000I-249999J0D01*
G01*
X108649999Y-67375000D01*
G75*
G02*
X108400000Y-67125001I0J249999D01*
G01*
G37*
G36*
G01*
X106350000Y-67125001D02*
X106350000Y-66224999D01*
G75*
G02*
X106599999Y-65975000I249999J0D01*
G01*
X107250001Y-65975000D01*
G75*
G02*
X107500000Y-66224999I0J-249999D01*
G01*
X107500000Y-67125001D01*
G75*
G02*
X107250001Y-67375000I-249999J0D01*
G01*
X106599999Y-67375000D01*
G75*
G02*
X106350000Y-67125001I0J249999D01*
G01*
G37*
G36*
G01*
X138880000Y-67125001D02*
X138880000Y-66224999D01*
G75*
G02*
X139129999Y-65975000I249999J0D01*
G01*
X139780001Y-65975000D01*
G75*
G02*
X140030000Y-66224999I0J-249999D01*
G01*
X140030000Y-67125001D01*
G75*
G02*
X139780001Y-67375000I-249999J0D01*
G01*
X139129999Y-67375000D01*
G75*
G02*
X138880000Y-67125001I0J249999D01*
G01*
G37*
G36*
G01*
X136830000Y-67125001D02*
X136830000Y-66224999D01*
G75*
G02*
X137079999Y-65975000I249999J0D01*
G01*
X137730001Y-65975000D01*
G75*
G02*
X137980000Y-66224999I0J-249999D01*
G01*
X137980000Y-67125001D01*
G75*
G02*
X137730001Y-67375000I-249999J0D01*
G01*
X137079999Y-67375000D01*
G75*
G02*
X136830000Y-67125001I0J249999D01*
G01*
G37*
G36*
G01*
X161105000Y-67125001D02*
X161105000Y-66224999D01*
G75*
G02*
X161354999Y-65975000I249999J0D01*
G01*
X162005001Y-65975000D01*
G75*
G02*
X162255000Y-66224999I0J-249999D01*
G01*
X162255000Y-67125001D01*
G75*
G02*
X162005001Y-67375000I-249999J0D01*
G01*
X161354999Y-67375000D01*
G75*
G02*
X161105000Y-67125001I0J249999D01*
G01*
G37*
G36*
G01*
X159055000Y-67125001D02*
X159055000Y-66224999D01*
G75*
G02*
X159304999Y-65975000I249999J0D01*
G01*
X159955001Y-65975000D01*
G75*
G02*
X160205000Y-66224999I0J-249999D01*
G01*
X160205000Y-67125001D01*
G75*
G02*
X159955001Y-67375000I-249999J0D01*
G01*
X159304999Y-67375000D01*
G75*
G02*
X159055000Y-67125001I0J249999D01*
G01*
G37*
G36*
G01*
X86175000Y-49980001D02*
X86175000Y-49079999D01*
G75*
G02*
X86424999Y-48830000I249999J0D01*
G01*
X87075001Y-48830000D01*
G75*
G02*
X87325000Y-49079999I0J-249999D01*
G01*
X87325000Y-49980001D01*
G75*
G02*
X87075001Y-50230000I-249999J0D01*
G01*
X86424999Y-50230000D01*
G75*
G02*
X86175000Y-49980001I0J249999D01*
G01*
G37*
G36*
G01*
X84125000Y-49980001D02*
X84125000Y-49079999D01*
G75*
G02*
X84374999Y-48830000I249999J0D01*
G01*
X85025001Y-48830000D01*
G75*
G02*
X85275000Y-49079999I0J-249999D01*
G01*
X85275000Y-49980001D01*
G75*
G02*
X85025001Y-50230000I-249999J0D01*
G01*
X84374999Y-50230000D01*
G75*
G02*
X84125000Y-49980001I0J249999D01*
G01*
G37*
G36*
G01*
X108400000Y-49980001D02*
X108400000Y-49079999D01*
G75*
G02*
X108649999Y-48830000I249999J0D01*
G01*
X109300001Y-48830000D01*
G75*
G02*
X109550000Y-49079999I0J-249999D01*
G01*
X109550000Y-49980001D01*
G75*
G02*
X109300001Y-50230000I-249999J0D01*
G01*
X108649999Y-50230000D01*
G75*
G02*
X108400000Y-49980001I0J249999D01*
G01*
G37*
G36*
G01*
X106350000Y-49980001D02*
X106350000Y-49079999D01*
G75*
G02*
X106599999Y-48830000I249999J0D01*
G01*
X107250001Y-48830000D01*
G75*
G02*
X107500000Y-49079999I0J-249999D01*
G01*
X107500000Y-49980001D01*
G75*
G02*
X107250001Y-50230000I-249999J0D01*
G01*
X106599999Y-50230000D01*
G75*
G02*
X106350000Y-49980001I0J249999D01*
G01*
G37*
G36*
G01*
X138880000Y-49980001D02*
X138880000Y-49079999D01*
G75*
G02*
X139129999Y-48830000I249999J0D01*
G01*
X139780001Y-48830000D01*
G75*
G02*
X140030000Y-49079999I0J-249999D01*
G01*
X140030000Y-49980001D01*
G75*
G02*
X139780001Y-50230000I-249999J0D01*
G01*
X139129999Y-50230000D01*
G75*
G02*
X138880000Y-49980001I0J249999D01*
G01*
G37*
G36*
G01*
X136830000Y-49980001D02*
X136830000Y-49079999D01*
G75*
G02*
X137079999Y-48830000I249999J0D01*
G01*
X137730001Y-48830000D01*
G75*
G02*
X137980000Y-49079999I0J-249999D01*
G01*
X137980000Y-49980001D01*
G75*
G02*
X137730001Y-50230000I-249999J0D01*
G01*
X137079999Y-50230000D01*
G75*
G02*
X136830000Y-49980001I0J249999D01*
G01*
G37*
G36*
G01*
X161105000Y-49980001D02*
X161105000Y-49079999D01*
G75*
G02*
X161354999Y-48830000I249999J0D01*
G01*
X162005001Y-48830000D01*
G75*
G02*
X162255000Y-49079999I0J-249999D01*
G01*
X162255000Y-49980001D01*
G75*
G02*
X162005001Y-50230000I-249999J0D01*
G01*
X161354999Y-50230000D01*
G75*
G02*
X161105000Y-49980001I0J249999D01*
G01*
G37*
G36*
G01*
X159055000Y-49980001D02*
X159055000Y-49079999D01*
G75*
G02*
X159304999Y-48830000I249999J0D01*
G01*
X159955001Y-48830000D01*
G75*
G02*
X160205000Y-49079999I0J-249999D01*
G01*
X160205000Y-49980001D01*
G75*
G02*
X159955001Y-50230000I-249999J0D01*
G01*
X159304999Y-50230000D01*
G75*
G02*
X159055000Y-49980001I0J249999D01*
G01*
G37*
G36*
G01*
X86175000Y-32835001D02*
X86175000Y-31934999D01*
G75*
G02*
X86424999Y-31685000I249999J0D01*
G01*
X87075001Y-31685000D01*
G75*
G02*
X87325000Y-31934999I0J-249999D01*
G01*
X87325000Y-32835001D01*
G75*
G02*
X87075001Y-33085000I-249999J0D01*
G01*
X86424999Y-33085000D01*
G75*
G02*
X86175000Y-32835001I0J249999D01*
G01*
G37*
G36*
G01*
X84125000Y-32835001D02*
X84125000Y-31934999D01*
G75*
G02*
X84374999Y-31685000I249999J0D01*
G01*
X85025001Y-31685000D01*
G75*
G02*
X85275000Y-31934999I0J-249999D01*
G01*
X85275000Y-32835001D01*
G75*
G02*
X85025001Y-33085000I-249999J0D01*
G01*
X84374999Y-33085000D01*
G75*
G02*
X84125000Y-32835001I0J249999D01*
G01*
G37*
G36*
G01*
X108400000Y-32835001D02*
X108400000Y-31934999D01*
G75*
G02*
X108649999Y-31685000I249999J0D01*
G01*
X109300001Y-31685000D01*
G75*
G02*
X109550000Y-31934999I0J-249999D01*
G01*
X109550000Y-32835001D01*
G75*
G02*
X109300001Y-33085000I-249999J0D01*
G01*
X108649999Y-33085000D01*
G75*
G02*
X108400000Y-32835001I0J249999D01*
G01*
G37*
G36*
G01*
X106350000Y-32835001D02*
X106350000Y-31934999D01*
G75*
G02*
X106599999Y-31685000I249999J0D01*
G01*
X107250001Y-31685000D01*
G75*
G02*
X107500000Y-31934999I0J-249999D01*
G01*
X107500000Y-32835001D01*
G75*
G02*
X107250001Y-33085000I-249999J0D01*
G01*
X106599999Y-33085000D01*
G75*
G02*
X106350000Y-32835001I0J249999D01*
G01*
G37*
G36*
G01*
X138880000Y-32835001D02*
X138880000Y-31934999D01*
G75*
G02*
X139129999Y-31685000I249999J0D01*
G01*
X139780001Y-31685000D01*
G75*
G02*
X140030000Y-31934999I0J-249999D01*
G01*
X140030000Y-32835001D01*
G75*
G02*
X139780001Y-33085000I-249999J0D01*
G01*
X139129999Y-33085000D01*
G75*
G02*
X138880000Y-32835001I0J249999D01*
G01*
G37*
G36*
G01*
X136830000Y-32835001D02*
X136830000Y-31934999D01*
G75*
G02*
X137079999Y-31685000I249999J0D01*
G01*
X137730001Y-31685000D01*
G75*
G02*
X137980000Y-31934999I0J-249999D01*
G01*
X137980000Y-32835001D01*
G75*
G02*
X137730001Y-33085000I-249999J0D01*
G01*
X137079999Y-33085000D01*
G75*
G02*
X136830000Y-32835001I0J249999D01*
G01*
G37*
G36*
G01*
X161105000Y-32835001D02*
X161105000Y-31934999D01*
G75*
G02*
X161354999Y-31685000I249999J0D01*
G01*
X162005001Y-31685000D01*
G75*
G02*
X162255000Y-31934999I0J-249999D01*
G01*
X162255000Y-32835001D01*
G75*
G02*
X162005001Y-33085000I-249999J0D01*
G01*
X161354999Y-33085000D01*
G75*
G02*
X161105000Y-32835001I0J249999D01*
G01*
G37*
G36*
G01*
X159055000Y-32835001D02*
X159055000Y-31934999D01*
G75*
G02*
X159304999Y-31685000I249999J0D01*
G01*
X159955001Y-31685000D01*
G75*
G02*
X160205000Y-31934999I0J-249999D01*
G01*
X160205000Y-32835001D01*
G75*
G02*
X159955001Y-33085000I-249999J0D01*
G01*
X159304999Y-33085000D01*
G75*
G02*
X159055000Y-32835001I0J249999D01*
G01*
G37*
G36*
G01*
X86175000Y-15690001D02*
X86175000Y-14789999D01*
G75*
G02*
X86424999Y-14540000I249999J0D01*
G01*
X87075001Y-14540000D01*
G75*
G02*
X87325000Y-14789999I0J-249999D01*
G01*
X87325000Y-15690001D01*
G75*
G02*
X87075001Y-15940000I-249999J0D01*
G01*
X86424999Y-15940000D01*
G75*
G02*
X86175000Y-15690001I0J249999D01*
G01*
G37*
G36*
G01*
X84125000Y-15690001D02*
X84125000Y-14789999D01*
G75*
G02*
X84374999Y-14540000I249999J0D01*
G01*
X85025001Y-14540000D01*
G75*
G02*
X85275000Y-14789999I0J-249999D01*
G01*
X85275000Y-15690001D01*
G75*
G02*
X85025001Y-15940000I-249999J0D01*
G01*
X84374999Y-15940000D01*
G75*
G02*
X84125000Y-15690001I0J249999D01*
G01*
G37*
G36*
G01*
X108400000Y-15690001D02*
X108400000Y-14789999D01*
G75*
G02*
X108649999Y-14540000I249999J0D01*
G01*
X109300001Y-14540000D01*
G75*
G02*
X109550000Y-14789999I0J-249999D01*
G01*
X109550000Y-15690001D01*
G75*
G02*
X109300001Y-15940000I-249999J0D01*
G01*
X108649999Y-15940000D01*
G75*
G02*
X108400000Y-15690001I0J249999D01*
G01*
G37*
G36*
G01*
X106350000Y-15690001D02*
X106350000Y-14789999D01*
G75*
G02*
X106599999Y-14540000I249999J0D01*
G01*
X107250001Y-14540000D01*
G75*
G02*
X107500000Y-14789999I0J-249999D01*
G01*
X107500000Y-15690001D01*
G75*
G02*
X107250001Y-15940000I-249999J0D01*
G01*
X106599999Y-15940000D01*
G75*
G02*
X106350000Y-15690001I0J249999D01*
G01*
G37*
G36*
G01*
X138880000Y-15690001D02*
X138880000Y-14789999D01*
G75*
G02*
X139129999Y-14540000I249999J0D01*
G01*
X139780001Y-14540000D01*
G75*
G02*
X140030000Y-14789999I0J-249999D01*
G01*
X140030000Y-15690001D01*
G75*
G02*
X139780001Y-15940000I-249999J0D01*
G01*
X139129999Y-15940000D01*
G75*
G02*
X138880000Y-15690001I0J249999D01*
G01*
G37*
G36*
G01*
X136830000Y-15690001D02*
X136830000Y-14789999D01*
G75*
G02*
X137079999Y-14540000I249999J0D01*
G01*
X137730001Y-14540000D01*
G75*
G02*
X137980000Y-14789999I0J-249999D01*
G01*
X137980000Y-15690001D01*
G75*
G02*
X137730001Y-15940000I-249999J0D01*
G01*
X137079999Y-15940000D01*
G75*
G02*
X136830000Y-15690001I0J249999D01*
G01*
G37*
G36*
G01*
X161105000Y-15690001D02*
X161105000Y-14789999D01*
G75*
G02*
X161354999Y-14540000I249999J0D01*
G01*
X162005001Y-14540000D01*
G75*
G02*
X162255000Y-14789999I0J-249999D01*
G01*
X162255000Y-15690001D01*
G75*
G02*
X162005001Y-15940000I-249999J0D01*
G01*
X161354999Y-15940000D01*
G75*
G02*
X161105000Y-15690001I0J249999D01*
G01*
G37*
G36*
G01*
X159055000Y-15690001D02*
X159055000Y-14789999D01*
G75*
G02*
X159304999Y-14540000I249999J0D01*
G01*
X159955001Y-14540000D01*
G75*
G02*
X160205000Y-14789999I0J-249999D01*
G01*
X160205000Y-15690001D01*
G75*
G02*
X159955001Y-15940000I-249999J0D01*
G01*
X159304999Y-15940000D01*
G75*
G02*
X159055000Y-15690001I0J249999D01*
G01*
G37*
D10*
X171450000Y-103310000D03*
D11*
X171450000Y-101210000D03*
X171450000Y-105410000D03*
D10*
X171450000Y-95055000D03*
D11*
X171450000Y-92955000D03*
X171450000Y-97155000D03*
D10*
X171450000Y-86800000D03*
D11*
X171450000Y-84700000D03*
X171450000Y-88900000D03*
D10*
X171450000Y-78545000D03*
D11*
X171450000Y-76445000D03*
X171450000Y-80645000D03*
D10*
X171450000Y-70290000D03*
D11*
X171450000Y-68190000D03*
X171450000Y-72390000D03*
D10*
X171450000Y-62035000D03*
D11*
X171450000Y-59935000D03*
X171450000Y-64135000D03*
D10*
X171450000Y-53780000D03*
D11*
X171450000Y-51680000D03*
X171450000Y-55880000D03*
D10*
X171450000Y-45525000D03*
D11*
X171450000Y-43425000D03*
X171450000Y-47625000D03*
D10*
X171450000Y-114105000D03*
D11*
X171450000Y-112005000D03*
X171450000Y-116205000D03*
D10*
X171450000Y-150300000D03*
D11*
X171450000Y-148200000D03*
X171450000Y-152400000D03*
D10*
X171450000Y-122360000D03*
D11*
X171450000Y-120260000D03*
X171450000Y-124460000D03*
D10*
X171450000Y-130615000D03*
D11*
X171450000Y-128515000D03*
X171450000Y-132715000D03*
D10*
X171450000Y-142045000D03*
D11*
X171450000Y-139945000D03*
X171450000Y-144145000D03*
D10*
X171450000Y-169350000D03*
D11*
X171450000Y-167250000D03*
X171450000Y-171450000D03*
D10*
X171450000Y-161060000D03*
D11*
X171450000Y-158960000D03*
X171450000Y-163160000D03*
D10*
X171450000Y-34095000D03*
D11*
X171450000Y-31995000D03*
X171450000Y-36195000D03*
D10*
X171450000Y-25840000D03*
D11*
X171450000Y-23740000D03*
X171450000Y-27940000D03*
D10*
X171450000Y-17585000D03*
D11*
X171450000Y-15485000D03*
X171450000Y-19685000D03*
D10*
X171450000Y-9330000D03*
D11*
X171450000Y-7230000D03*
X171450000Y-11430000D03*
M02*
